<?xml version="1.0" encoding="utf-8"?>
<!-- Generator: Adobe Illustrator 17.0.0, SVG Export Plug-In . SVG Version: 6.00 Build 0)  -->
<!DOCTYPE svg PUBLIC "-//W3C//DTD SVG 1.1//EN" "http://www.w3.org/Graphics/SVG/1.1/DTD/svg11.dtd">
<svg version="1.1" id="Layer_1" xmlns="http://www.w3.org/2000/svg" xmlns:xlink="http://www.w3.org/1999/xlink" x="0px" y="0px"
	 width="1800px" height="560px" viewBox="0 0 1800 560" enable-background="new 0 0 1800 560" xml:space="preserve">
<g>
	<path fill="#8D8280" d="M747.359,15.747h116.053c0,0,12.407,90.029,26.952,118.482H729.522L747.359,15.747z"/>
	<path opacity="0.3" fill="#6D605E" enable-background="new    " d="M729.619,133.591l-0.096,0.638h160.842
		c-8.137-15.917-15.604-51.101-20.605-79.017C839.694,83.868,785.395,127.711,729.619,133.591z"/>
</g>
<g>
	<defs>
		<path id="SVGID_1_" d="M748.011,16.509h116.053c0,0,12.407,90.029,26.952,118.482H730.174L748.011,16.509z"/>
	</defs>
	<clipPath id="SVGID_2_">
		<use xlink:href="#SVGID_1_"  overflow="visible"/>
	</clipPath>
	<g clip-path="url(#SVGID_2_)">
		<path fill="#5A5244" d="M1033.025,144.851l0.451-0.28l-5.871-9.476l30.049,0.249l0.008-1.062l-47.959-0.397l-3.987-11.01
			l13.973,0.193l0.001,0.002l0.004-0.002l32.408,0.448l0.015-1.062l-31.714-0.439l-5.543-13.36l33.733,0.45l0.015-1.062
			l-113.825-1.52l-0.028-0.082l-0.234,0.079l-189.572-2.531l-0.041-0.149l-0.513,0.141l-119.765-1.599l-0.015,1.062l39.719,0.53
			l-0.438,13.108l-39.267-0.543l-0.015,1.062l39.768,0.55l0.539,0.018l0-0.01l18.922,0.262l2.902,12.789l-62.12-0.514l-0.008,1.062
			l62.37,0.517l0.028,0.122l0.519-0.118l18.683,0.155l1.532,12.418h-46.569l-1.785-12.647l-1.051,0.149l1.764,12.498h-35.486v1.062
			h83.258l0.008,0.065l0.527-0.065h87.668l0.018,0.097l0.522-0.097h37.207l0.041,0.145l0.511-0.145h43.529l0.057,0.169l0.503-0.169
			h75.04l0.12,0.238l0.474-0.238h107.202v-1.062H1033.025z M1008.572,133.876l-40.82-0.338l-2.31-11.22l18.462,0.255l0.187,0.294
			l0.447-0.285l20.611,0.285l-0.498,0.18L1008.572,133.876z M810.234,120.171l12.684,0.175l0.031,0.13l0.517-0.123l22.502,0.311
			l3.061,11.889l-36.628-0.303l0.388-0.083L810.234,120.171z M774.58,131.938l-43.499-0.36l-2.973-12.543l44.127,0.611l-0.516,0.121
			L774.58,131.938z M772.782,119.652l36.362,0.503l2.575,12.09l-36.047-0.299L772.782,119.652z M847.069,120.68l45.67,0.632
			l3.84,11.636l-46.45-0.385L847.069,120.68z M893.861,121.328l6.474,0.09l0.044,0.154l0.51-0.146l26.853,0.372l-0.489,0.202
			l4.637,11.242l-34.191-0.283L893.861,121.328z M928.32,121.804l36.578,0.506l-0.518,0.107l2.288,11.112l-33.626-0.278
			L928.32,121.804z M1014.282,108.649l-0.49,0.203l5.456,13.149l-34.755-0.481l-8.511-13.383L1014.282,108.649z M975.346,108.129
			l-0.448,0.285l8.324,13.088l-43.597-0.603l-4.484-13.307L975.346,108.129z M934.016,107.577l4.484,13.307l-37.362-0.517
			l-3.805-13.279L934.016,107.577z M896.224,107.072l3.805,13.279l-6.52-0.09l-0.024-0.073l-0.212,0.07l-27.286-0.378l0.506-0.162
			l-4.196-13.099L896.224,107.072z M861.738,106.612l-0.507,0.162l4.195,13.098l-18.632-0.258l-0.036-0.14l-0.512,0.132
			l-22.486-0.311l-3.128-13.233L861.738,106.612z M819.538,106.048l3.128,13.232l-37.508-0.519l0.526-0.086l-2.137-13.016
			l-1.047,0.172l2.122,12.923l-36.301-0.502l0.511-0.141l-3.59-13.055L819.538,106.048z M744.136,105.042l3.631,13.203
			l-39.069-0.541l-3.315-13.18L744.136,105.042z M664.958,117.098L665.397,104l-0.513-0.017l39.948,0.533l-0.515,0.13l3.281,13.042
			L664.958,117.098z M687.837,131.219l-2.901-12.783l22.93,0.317l0.034,0.137l0.514-0.129l19.147,0.265l-0.517,0.122l2.944,12.419
			L687.837,131.219z M753.802,144.851l0.523-0.093l-2.123-11.831l-1.045,0.187l2.107,11.738h-44.444l-1.531-12.409l67.542,0.559
			l0.03,0.126l0.515-0.121l18.332,0.152l2.179,11.693H753.802z M796.965,144.851l-2.177-11.684l36.06,0.299l-0.51,0.145
			l3.191,11.241H796.965z M834.633,144.851l-3.231-11.381l42.999,0.356l-0.502,0.169l3.655,10.856H834.633z M878.674,144.851
			l-3.71-11.02l21.967,0.182l0.057,0.171l0.505-0.166l10.524,0.087l-0.507,0.16l3.33,10.587H878.674z M954.165,144.851
			l-5.237-10.387l-0.948,0.477l4.996,9.91H911.95l-3.379-10.742l58.315,0.483l0.023,0.111l0.518-0.106l16.76,0.139l-0.441,0.294
			l6.564,9.822H954.165z M991.587,144.851l-6.757-10.111l42.707,0.354l-0.853,0.529l5.717,9.228H991.587z"/>
		<path fill="#5A5244" d="M1009.359,97.212l0.451-0.28l-5.871-9.476l30.049,0.249l0.008-1.062l-47.959-0.397l-3.987-11.01
			l13.973,0.193l0.001,0.002l0.004-0.002l32.408,0.448l0.014-1.062l-31.714-0.439l-5.543-13.36l33.733,0.45l0.015-1.062
			l-113.825-1.52l-0.028-0.082l-0.234,0.079l-189.572-2.531l-0.041-0.149l-0.513,0.141l-119.765-1.599l-0.014,1.062l39.719,0.53
			l-0.438,13.108l-39.267-0.543l-0.014,1.062l39.768,0.55l0.539,0.018l0-0.01l18.922,0.262l2.902,12.789l-62.12-0.514l-0.008,1.062
			l62.37,0.517l0.028,0.122l0.519-0.118l18.683,0.155l1.532,12.418h-46.569l-1.785-12.647l-1.051,0.149l1.764,12.498h-35.486v1.062
			h83.258l0.008,0.065l0.527-0.065h87.668l0.018,0.097l0.521-0.097h37.207l0.041,0.145l0.511-0.145h43.529l0.057,0.169l0.503-0.169
			h75.04l0.12,0.238l0.474-0.238h107.202v-1.062H1009.359z M984.906,86.236l-40.82-0.338l-2.31-11.22l18.462,0.255l0.187,0.294
			l0.447-0.285l20.611,0.285l-0.498,0.18L984.906,86.236z M786.568,72.531l12.684,0.175l0.031,0.13l0.517-0.123l22.502,0.311
			l3.061,11.889l-36.628-0.303l0.388-0.083L786.568,72.531z M750.914,84.298l-43.499-0.36l-2.973-12.543l44.127,0.611l-0.516,0.121
			L750.914,84.298z M749.116,72.013l36.362,0.503l2.575,12.09l-36.047-0.299L749.116,72.013z M823.403,73.04l45.67,0.632
			l3.84,11.636l-46.45-0.385L823.403,73.04z M870.195,73.688l6.474,0.09l0.044,0.154l0.51-0.146l26.853,0.372l-0.489,0.202
			l4.637,11.242l-34.191-0.283L870.195,73.688z M904.654,74.165l36.578,0.506l-0.518,0.107l2.288,11.112l-33.626-0.278
			L904.654,74.165z M990.615,61.009l-0.49,0.203l5.456,13.149l-34.755-0.481l-8.511-13.383L990.615,61.009z M951.68,60.489
			l-0.448,0.285l8.324,13.088l-43.597-0.603l-4.484-13.307L951.68,60.489z M910.35,59.937l4.484,13.307l-37.362-0.517l-3.805-13.279
			L910.35,59.937z M872.558,59.432l3.805,13.279l-6.52-0.09l-0.024-0.073l-0.212,0.07l-27.286-0.378l0.506-0.162l-4.196-13.099
			L872.558,59.432z M838.072,58.972l-0.507,0.162l4.195,13.098l-18.632-0.258l-0.036-0.14l-0.512,0.132l-22.486-0.311l-3.128-13.233
			L838.072,58.972z M795.872,58.409L799,71.641l-37.508-0.519l0.526-0.086l-2.137-13.016l-1.047,0.172l2.122,12.923l-36.301-0.502
			l0.511-0.141l-3.59-13.055L795.872,58.409z M720.469,57.402l3.631,13.203l-39.069-0.541l-3.315-13.18L720.469,57.402z
			 M641.292,69.459l0.438-13.098l-0.513-0.017l39.948,0.533l-0.515,0.13l3.281,13.042L641.292,69.459z M664.17,83.58l-2.901-12.783
			l22.93,0.317l0.034,0.137l0.514-0.129l19.147,0.265l-0.517,0.122l2.944,12.419L664.17,83.58z M730.136,97.212l0.523-0.093
			l-2.123-11.831l-1.045,0.187l2.107,11.738h-44.444l-1.531-12.409l67.542,0.559l0.03,0.126l0.515-0.121l18.332,0.152l2.179,11.693
			H730.136z M773.299,97.212l-2.177-11.684l36.06,0.299l-0.51,0.145l3.191,11.241H773.299z M810.967,97.212l-3.231-11.381
			l42.999,0.356l-0.502,0.169l3.655,10.856H810.967z M855.007,97.212l-3.71-11.02l21.967,0.182l0.056,0.171l0.505-0.166
			l10.523,0.087l-0.507,0.16l3.33,10.587H855.007z M930.498,97.212l-5.237-10.387l-0.948,0.477l4.996,9.91h-41.026l-3.379-10.742
			l58.315,0.483l0.023,0.111l0.518-0.106l16.76,0.139l-0.441,0.294l6.564,9.822H930.498z M967.92,97.212l-6.757-10.111l42.707,0.354
			l-0.853,0.529l5.717,9.228H967.92z"/>
		<path fill="#5A5244" d="M998.3,47.816l0.451-0.28l-5.871-9.476l30.049,0.249l0.008-1.062l-47.959-0.397l-3.987-11.01l13.973,0.193
			l0.001,0.002l0.004-0.002l32.408,0.448l0.015-1.062l-31.714-0.439l-5.543-13.36l33.733,0.45l0.015-1.062L900.056,9.49
			l-0.028-0.082l-0.234,0.079L710.223,6.955l-0.041-0.149l-0.513,0.141L589.904,5.348L589.89,6.41l39.719,0.53l-0.438,13.108
			l-39.267-0.543l-0.014,1.062l39.768,0.55l0.539,0.018l0-0.01l18.922,0.262l2.902,12.789l-62.12-0.514l-0.008,1.062l62.37,0.517
			l0.028,0.122l0.519-0.118l18.683,0.155l1.532,12.418h-46.569l-1.785-12.647l-1.051,0.149l1.764,12.498h-35.486v1.062h83.258
			l0.008,0.065l0.527-0.065h87.668l0.018,0.097l0.522-0.097h37.207l0.041,0.145l0.511-0.145h43.529l0.057,0.169l0.503-0.169h75.04
			l0.12,0.238l0.474-0.238h107.202v-1.062H998.3z M973.847,36.84l-40.82-0.338l-2.31-11.22l18.462,0.255l0.187,0.294l0.447-0.285
			l20.611,0.285l-0.498,0.18L973.847,36.84z M775.508,23.135l12.684,0.175l0.031,0.13l0.517-0.123l22.502,0.311l3.061,11.889
			l-36.628-0.303l0.388-0.083L775.508,23.135z M739.855,34.902l-43.499-0.36l-2.973-12.543l44.127,0.611l-0.516,0.121
			L739.855,34.902z M738.057,22.617l36.362,0.503l2.575,12.09l-36.047-0.299L738.057,22.617z M812.344,23.645l45.67,0.632
			l3.84,11.636l-46.45-0.385L812.344,23.645z M859.136,24.292l6.474,0.09l0.044,0.154l0.51-0.146l26.853,0.372l-0.489,0.202
			l4.637,11.242l-34.191-0.283L859.136,24.292z M893.595,24.769l36.578,0.506l-0.518,0.107l2.288,11.112l-33.626-0.278
			L893.595,24.769z M979.556,11.613l-0.49,0.203l5.456,13.149l-34.755-0.481l-8.511-13.383L979.556,11.613z M940.621,11.093
			l-0.448,0.285l8.324,13.088l-43.597-0.603l-4.484-13.307L940.621,11.093z M899.291,10.541l4.484,13.307l-37.362-0.517
			l-3.805-13.279L899.291,10.541z M861.499,10.037l3.805,13.279l-6.52-0.09l-0.024-0.073l-0.212,0.07l-27.286-0.378l0.506-0.162
			l-4.196-13.099L861.499,10.037z M827.013,9.576l-0.507,0.162l4.195,13.098l-18.632-0.258l-0.036-0.14l-0.512,0.132l-22.486-0.311
			l-3.128-13.233L827.013,9.576z M784.812,9.013l3.128,13.232l-37.508-0.519l0.526-0.086l-2.137-13.016l-1.047,0.172l2.122,12.923
			l-36.301-0.502l0.511-0.141l-3.59-13.055L784.812,9.013z M709.41,8.006l3.631,13.203l-39.069-0.541l-3.315-13.18L709.41,8.006z
			 M630.233,20.063l0.438-13.098l-0.513-0.017l39.948,0.533l-0.515,0.13l3.281,13.042L630.233,20.063z M653.111,34.184
			l-2.901-12.783l22.93,0.317l0.034,0.137l0.514-0.129l19.147,0.265l-0.517,0.122l2.944,12.419L653.111,34.184z M719.077,47.816
			l0.523-0.093l-2.123-11.831l-1.045,0.187l2.107,11.738h-44.444l-1.531-12.409l67.542,0.559l0.03,0.126l0.515-0.121l18.332,0.152
			l2.179,11.693H719.077z M762.24,47.816l-2.177-11.684l36.06,0.299l-0.51,0.145l3.191,11.241H762.24z M799.908,47.816
			l-3.231-11.381l42.999,0.356l-0.502,0.169l3.655,10.856H799.908z M843.948,47.816l-3.71-11.02l21.967,0.182l0.056,0.171
			l0.505-0.166l10.523,0.087l-0.507,0.16l3.33,10.587H843.948z M919.439,47.816l-5.237-10.387l-0.948,0.477l4.996,9.91h-41.026
			l-3.379-10.742l58.315,0.483l0.023,0.111l0.518-0.106l16.76,0.139l-0.441,0.294l6.564,9.822H919.439z M956.861,47.816
			l-6.757-10.111l42.707,0.354l-0.853,0.529l5.717,9.228H956.861z"/>
	</g>
</g>
<polygon fill="#A8C1CD" points="470.081,561.393 432.903,561.393 432.903,240.107 468.167,222.517 "/>
<polygon fill="#C6E2EA" points="693.921,562.062 687.255,229.703 746.078,215.712 746.078,560.877 "/>
<path opacity="0.2" fill="#576487" enable-background="new    " d="M733.025,200.212c-0.025,0-0.051,0-0.077,0l5.367-14.367
	l-15.251,0.326l-5.582-5.792c-27.48-34.967-48.244-103.964-48.244-103.964v-8.316H604.32V56.38h-18.428V27.84h-13.135l0.945,28.54
	h-15.498l2.253,11.718h-36.371l-1.512,11.34l6.048,3.78c-9.073,24.626-57.028,90.355-70.539,108.625l-2.318,0.05l0.754,2.061
	c-1.273,1.715-1.985,2.664-1.985,2.664l2.946-0.039l3.956,10.813l0.36-0.01c-0.236,0.613-0.369,1.277-0.359,1.973
	c0.041,2.897,2.402,5.217,5.29,5.217c0.001,0,0.001,0,0.002,0v15.876h0.321l0.718,47.404l0,0v24.668h0.374l0.855,56.474v25.017
	h0.379l0.514,33.924v32.257h0.488l0.749,49.486v20.985h0.318l0.577,38.078l1.51-0.108l0.002,0.108l12.62-0.01l0.61,0.01v-0.01
	l37.422-0.028v1.645h1.927h1.097h29.295h13.761h1.626l0,0h1.087l0.01-1.502c0-0.044,0.001-0.107,0.001-0.18l138.863-0.105
	l-0.002,0.18l12.096-0.189l2.646,0.189l0.577-38.078h0.318v-20.987l0,0l0.749-49.484h0.488v-32.26l0,0l0.514-33.922h0.379v-25.018
	l0,0l0.855-56.473h0.374V286.41l1.917-75.611l0.337-0.005c2.922-0.041,5.257-2.445,5.216-5.367
	C738.274,202.531,735.913,200.212,733.025,200.212z"/>
<path fill="#DBD9D2" d="M1194.851,560.957"/>
<g>
	<path fill="#634F30" d="M1253.568,558.922"/>
</g>
<g>
	<path fill="#F3B63C" d="M1255.728,556.7"/>
</g>
<polyline opacity="0.2" fill="#576487" enable-background="new    " points="732.046,219.049 734.111,561 738.337,561.367 
	738.337,218.5 "/>
<g>
	<rect x="734.613" y="134.229" fill="#BA8A79" width="149.483" height="422.968"/>
	<g>
		<polygon fill="#936B5F" points="800.134,195.466 803.879,195.145 786.787,181.449 786.557,181.449 789.89,176.614 
			783.707,176.614 784.051,172.048 777.999,172.048 778.281,176.614 771.629,176.614 774.869,181.449 774.79,181.449 
			767.673,187.549 767.223,187.549 767.223,187.935 759.926,194.189 763.825,194.446 763.825,233.152 763.825,236.656 
			800.665,236.656 800.665,233.152 800.134,233.152 		"/>
		<g>
			<rect x="766.586" y="207.537" fill="#55574C" width="27.603" height="23.675"/>
			<path fill="#5A584E" d="M785.021,207.537c1.763,3.484,2.797,7.563,2.797,11.944c0,4.292-0.993,8.294-2.69,11.731h9.06v-23.675
				H785.021z"/>
			<g>
				<rect x="764.675" y="184.759" fill="#9FA496" width="26.86" height="20.76"/>
				<path opacity="0.3" fill="#6A685B" enable-background="new    " d="M775.154,184.759c3.632,5.576,8.02,13.958,7.069,20.76h9.311
					v-20.76H775.154z"/>
				<g>
					<g>
						<rect x="761.277" y="191.009" fill="#FFEDE2" stroke="#AFAAAA" stroke-miterlimit="10" width="6.795" height="39.354"/>
						<rect x="768.072" y="204.883" fill="#FFEDE2" stroke="#AFAAAA" stroke-miterlimit="10" width="24.631" height="4.034"/>
						<rect x="790.791" y="191.009" fill="#FFEDE2" stroke="#AFAAAA" stroke-miterlimit="10" width="6.795" height="39.354"/>
					</g>
					<path fill="#AFAAAA" d="M794.189,193.948c-0.352,0-0.637,0.285-0.637,0.637v31.956c0,0.352,0.285,0.637,0.637,0.637
						c0.352,0,0.637-0.285,0.637-0.637v-31.956C794.826,194.233,794.541,193.948,794.189,193.948z"/>
					<g>
						<path fill="#AFAAAA" d="M764.144,227.815c-0.352,0-0.637-0.285-0.637-0.637v-33.23c0-0.352,0.285-0.637,0.637-0.637
							c0.352,0,0.637,0.285,0.637,0.637v33.23C764.781,227.53,764.496,227.815,764.144,227.815z"/>
					</g>
					<g>
						<polygon fill="#FFEDE2" stroke="#AFAAAA" stroke-miterlimit="10" points="757.378,191.4 767.04,192.037 777.125,185.242 
							779.886,185.242 790.184,193.311 801.331,192.355 784.239,178.66 772.242,178.66 						"/>
						<path fill="none" stroke="#AFAAAA" stroke-miterlimit="10" d="M761.867,191.696c0.536,0.035,14.115-9.909,14.115-9.909h5.202
							l14.958,11.013"/>
						<polygon fill="#FFEDE2" stroke="#AFAAAA" stroke-miterlimit="10" points="776.407,184.76 769.081,173.824 787.342,173.824 
							779.804,184.76 						"/>
						<polygon fill="#FFEDE2" stroke="#AFAAAA" stroke-miterlimit="10" points="776.407,184.76 775.451,169.259 781.503,169.259 
							780.335,184.76 						"/>
					</g>
					<rect x="761.277" y="230.363" fill="#FFEDE2" stroke="#AFAAAA" stroke-miterlimit="10" width="36.84" height="3.503"/>
				</g>
			</g>
		</g>
	</g>
	<g>
		<polygon fill="#936B5F" points="852.7,195.466 856.445,195.145 839.352,181.449 839.122,181.449 842.456,176.614 836.272,176.614 
			836.616,172.048 830.565,172.048 830.846,176.614 824.195,176.614 827.434,181.449 827.355,181.449 820.239,187.549 
			819.788,187.549 819.788,187.935 812.492,194.189 816.391,194.446 816.391,233.152 816.391,236.656 853.231,236.656 
			853.231,233.152 852.7,233.152 		"/>
		<g>
			<rect x="819.151" y="207.537" fill="#55574C" width="27.603" height="23.675"/>
			<path fill="#5A584E" d="M837.587,207.537c1.763,3.484,2.797,7.563,2.797,11.944c0,4.292-0.993,8.294-2.69,11.731h9.06v-23.675
				H837.587z"/>
			<g>
				<rect x="817.24" y="184.76" fill="#9FA496" width="26.86" height="20.76"/>
				<path opacity="0.3" fill="#6A685B" enable-background="new    " d="M827.72,184.759c3.632,5.576,8.02,13.958,7.069,20.76h9.311
					v-20.76H827.72z"/>
				<g>
					<g>
						<rect x="813.843" y="191.009" fill="#FFEDE2" stroke="#AFAAAA" stroke-miterlimit="10" width="6.795" height="39.354"/>
						<rect x="820.637" y="204.883" fill="#FFEDE2" stroke="#AFAAAA" stroke-miterlimit="10" width="24.631" height="4.034"/>
						<rect x="843.357" y="191.009" fill="#FFEDE2" stroke="#AFAAAA" stroke-miterlimit="10" width="6.795" height="39.354"/>
					</g>
					<path fill="#AFAAAA" d="M846.754,193.948c-0.352,0-0.637,0.285-0.637,0.637v31.956c0,0.352,0.285,0.637,0.637,0.637
						c0.352,0,0.637-0.285,0.637-0.637v-31.956C847.391,194.233,847.106,193.948,846.754,193.948z"/>
					<g>
						<path fill="#AFAAAA" d="M816.71,227.815c-0.352,0-0.637-0.285-0.637-0.637v-33.23c0-0.352,0.285-0.637,0.637-0.637
							c0.352,0,0.637,0.285,0.637,0.637v33.23C817.347,227.53,817.062,227.815,816.71,227.815z"/>
					</g>
					<g>
						<polygon fill="#FFEDE2" stroke="#AFAAAA" stroke-miterlimit="10" points="809.944,191.4 819.605,192.037 829.691,185.242 
							832.451,185.242 842.749,193.311 853.897,192.355 836.804,178.66 824.807,178.66 						"/>
						<path fill="none" stroke="#AFAAAA" stroke-miterlimit="10" d="M814.432,191.696c0.536,0.035,14.115-9.909,14.115-9.909h5.202
							l14.958,11.013"/>
						<polygon fill="#FFEDE2" stroke="#AFAAAA" stroke-miterlimit="10" points="828.972,184.76 821.647,173.824 839.908,173.824 
							832.37,184.76 						"/>
						<polygon fill="#FFEDE2" stroke="#AFAAAA" stroke-miterlimit="10" points="828.972,184.76 828.017,169.259 834.068,169.259 
							832.901,184.76 						"/>
					</g>
					<rect x="813.843" y="230.363" fill="#FFEDE2" stroke="#AFAAAA" stroke-miterlimit="10" width="36.84" height="3.503"/>
				</g>
			</g>
		</g>
	</g>
	<polygon opacity="0.4" fill="#936B5F" enable-background="new    " points="856.954,372.59 856.954,302.722 860.032,302.458 
		860.033,302.458 860.033,302.458 865.221,302.013 848.129,288.317 847.899,288.317 851.232,283.482 845.049,283.482 
		845.393,278.917 839.341,278.917 839.623,283.482 832.971,283.482 836.211,288.317 836.132,288.317 821.268,301.057 824.947,301.3 
		824.946,301.3 824.946,372.59 803.764,372.59 803.764,302.722 806.843,302.458 806.843,302.458 806.843,302.458 812.032,302.013 
		794.939,288.317 794.71,288.317 798.043,283.482 791.859,283.482 792.203,278.917 786.152,278.917 786.433,283.482 
		779.782,283.482 783.021,288.317 782.942,288.317 768.079,301.057 771.757,301.3 771.756,301.3 771.756,372.59 762.201,372.59 
		762.201,378.068 766.979,378.068 766.979,402.433 861.096,402.433 861.096,378.068 865.873,378.068 865.873,372.59 	"/>
	<g>
		<g>
			<g>
				<g>
					<rect x="823.832" y="298.446" fill="#9BA492" width="26.052" height="72.126"/>
					<path opacity="0.3" fill="#707067" enable-background="new    " d="M823.832,298.447v3.703
						c6.198,1.902,15.9,6.552,16.974,17.193c1.384,13.7-1.032,43.622-1.689,51.23h10.766v-72.126H823.832z"/>
					<g>
						<g>
							<rect x="825.549" y="333.043" fill="#707067" width="21.986" height="1.274"/>
						</g>
						<g>
							<rect x="825.694" y="344.349" fill="#707067" width="21.986" height="1.274"/>
						</g>
					</g>
					<path fill="#707067" d="M837.494,298.228h-1.68h-10.442v72.563h22.971v-72.563L837.494,298.228L837.494,298.228z
						 M826.646,310.962h9.574v10.033h-9.574V310.962z M826.646,322.268h9.574v34.079h-9.574V322.268z M837.494,322.268h9.575v34.079
						h-9.575V322.268z M837.494,320.994v-10.033h9.575v10.033H837.494z M847.069,299.502v10.186h-9.575v-10.186H847.069z
						 M835.814,299.502h0.406v10.186h-9.574v-10.186H835.814z M826.646,369.517v-11.895h9.574v11.895H826.646z M837.494,369.517
						v-11.895h9.575v11.895H837.494z"/>
					<g>
						<rect x="821.537" y="299.283" fill="#FFEDE2" stroke="#AFAAAA" stroke-miterlimit="10" width="4.59" height="71.29"/>
						<rect x="848.954" y="299.283" fill="#FFEDE2" stroke="#AFAAAA" stroke-miterlimit="10" width="4.59" height="71.29"/>
						<g>
							<polygon fill="#FFEDE2" stroke="#AFAAAA" stroke-miterlimit="10" points="826.127,299.595 853.545,299.595 838.708,287.652 
															"/>
							<g>
								<polygon fill="#FFEDE2" stroke="#AFAAAA" stroke-miterlimit="10" points="817.859,299.04 827.52,299.677 837.606,292.883 
									840.367,292.883 850.665,300.951 861.812,299.996 844.719,286.3 832.723,286.3 								"/>
								<path fill="none" stroke="#AFAAAA" stroke-miterlimit="10" d="M822.348,299.336c0.536,0.035,14.115-9.909,14.115-9.909
									h5.202l14.958,11.013"/>
								<polygon fill="#FFEDE2" stroke="#AFAAAA" stroke-miterlimit="10" points="836.888,292.4 829.562,281.465 847.823,281.465 
									840.285,292.4 								"/>
								<polygon fill="#FFEDE2" stroke="#AFAAAA" stroke-miterlimit="10" points="836.888,292.4 835.932,276.9 841.984,276.9 
									840.816,292.4 								"/>
							</g>
						</g>
					</g>
				</g>
				<g>
					<rect x="770.642" y="298.446" fill="#9BA492" width="26.052" height="72.126"/>
					<path opacity="0.3" fill="#707067" enable-background="new    " d="M770.642,298.447v3.703
						c6.198,1.902,15.9,6.552,16.974,17.193c1.384,13.7-1.032,43.622-1.689,51.23h10.766v-72.126H770.642z"/>
					<g>
						<g>
							<rect x="772.359" y="333.043" fill="#707067" width="21.986" height="1.274"/>
						</g>
						<g>
							<rect x="772.504" y="344.349" fill="#707067" width="21.986" height="1.274"/>
						</g>
					</g>
					<path fill="#707067" d="M784.305,298.228h-1.68h-10.442v72.563h22.971v-72.563L784.305,298.228L784.305,298.228z
						 M773.457,310.962h9.574v10.033h-9.574V310.962z M773.457,322.268h9.574v34.079h-9.574V322.268z M784.305,322.268h9.575v34.079
						h-9.575V322.268z M784.305,320.994v-10.033h9.575v10.033H784.305z M793.88,299.502v10.186h-9.575v-10.186H793.88z
						 M782.625,299.502h0.406v10.186h-9.574v-10.186H782.625z M773.457,369.517v-11.895h9.574v11.895H773.457z M784.305,369.517
						v-11.895h9.575v11.895H784.305z"/>
					<g>
						<rect x="768.347" y="299.283" fill="#FFEDE2" stroke="#AFAAAA" stroke-miterlimit="10" width="4.59" height="71.29"/>
						<rect x="795.765" y="299.283" fill="#FFEDE2" stroke="#AFAAAA" stroke-miterlimit="10" width="4.59" height="71.29"/>
						<g>
							<polygon fill="#FFEDE2" stroke="#AFAAAA" stroke-miterlimit="10" points="772.937,299.595 800.355,299.595 785.518,287.652 
															"/>
							<g>
								<polygon fill="#FFEDE2" stroke="#AFAAAA" stroke-miterlimit="10" points="764.67,299.04 774.331,299.677 784.417,292.883 
									787.177,292.883 797.475,300.951 808.623,299.996 791.53,286.3 779.533,286.3 								"/>
								<path fill="none" stroke="#AFAAAA" stroke-miterlimit="10" d="M769.158,299.336c0.536,0.035,14.115-9.909,14.115-9.909
									h5.202l14.958,11.013"/>
								<polygon fill="#FFEDE2" stroke="#AFAAAA" stroke-miterlimit="10" points="783.698,292.4 776.373,281.465 794.634,281.465 
									787.096,292.4 								"/>
								<polygon fill="#FFEDE2" stroke="#AFAAAA" stroke-miterlimit="10" points="783.698,292.4 782.743,276.9 788.794,276.9 
									787.626,292.4 								"/>
							</g>
						</g>
					</g>
				</g>
				<rect x="758.793" y="370.573" fill="#FFEDE2" stroke="#AFAAAA" stroke-miterlimit="10" width="103.672" height="5.478"/>
			</g>
			<rect x="763.57" y="376.051" fill="#FFEDE2" stroke="#AFAAAA" stroke-miterlimit="10" width="94.117" height="24.365"/>
		</g>
		<path fill="#ADAAA5" d="M825.731,380.023v14.439h24.881v-14.439H825.731z M838.36,388.065l9.622,5.123h-18.933L838.36,388.065z
			 M827.005,392.858v-10.839l10.012,5.331L827.005,392.858z M828.361,381.297h19.656l-9.667,5.319L828.361,381.297z
			 M849.339,382.024v10.442l-9.645-5.135L849.339,382.024z"/>
		<path fill="#ADAAA5" d="M771.057,380.023v14.439h24.882v-14.439H771.057z M783.686,388.065l9.622,5.123h-18.933L783.686,388.065z
			 M772.331,392.858v-10.839l10.012,5.331L772.331,392.858z M773.687,381.297h19.656l-9.667,5.319L773.687,381.297z
			 M794.665,382.024v10.442l-9.645-5.135L794.665,382.024z"/>
	</g>
	<polyline opacity="0.4" fill="#936B5F" enable-background="new    " points="853.545,419.162 853.545,444.642 845.71,445.704 
		844.355,547.517 853.545,561 819.062,561 809.354,445.704 814.037,433.707 839.588,425.001 847.68,422.984 	"/>
	<rect x="734.613" y="557.197" fill="#FFEDE2" stroke="#AFAAAA" stroke-miterlimit="10" width="149.483" height="3.803"/>
	<rect x="784.275" y="549.746" fill="#CCCABF" width="52.765" height="9.98"/>
	<g>
		<g>
			<rect x="788.92" y="425.001" fill="#CCCABF" width="46.819" height="126.763"/>
			<g>
				<path fill="#737166" d="M831.068,441.138h-36.946v-12.527h36.946V441.138z M795.396,439.864h34.398v-9.979h-34.398V439.864z"/>
			</g>
			<rect x="796.883" y="433.707" fill="none" stroke="#737166" stroke-miterlimit="10" width="30.788" height="4.034"/>
			<g>
				<rect x="794.122" y="445.704" fill="none" stroke="#737166" stroke-miterlimit="10" width="13.165" height="48.093"/>
				<rect x="797.944" y="448.995" fill="none" stroke="#737166" stroke-miterlimit="10" width="5.308" height="40.98"/>
			</g>
			<g>
				<rect x="817.903" y="445.704" fill="none" stroke="#737166" stroke-miterlimit="10" width="13.165" height="48.093"/>
				<rect x="821.726" y="448.995" fill="none" stroke="#737166" stroke-miterlimit="10" width="5.308" height="40.98"/>
			</g>
			<polygon fill="none" stroke="#737166" stroke-miterlimit="10" points="832.262,502.821 827.06,502.821 827.06,497.725 
				796.484,497.725 796.484,502.821 791.282,502.821 791.282,514.287 796.484,514.287 796.484,519.383 827.06,519.383 
				827.06,514.287 832.262,514.287 			"/>
			<rect x="799.139" y="504.095" fill="none" stroke="#737166" stroke-miterlimit="10" width="25.267" height="8.918"/>
			<g>
				<rect x="794.706" y="523.417" fill="none" stroke="#737166" stroke-miterlimit="10" width="36.096" height="22.72"/>
				<rect x="798.21" y="527.452" fill="none" stroke="#737166" stroke-miterlimit="10" width="29.09" height="14.651"/>
			</g>
		</g>
		<path opacity="0.3" fill="#92908A" enable-background="new    " d="M795.895,425.001c7.617,21.975,32.377,95.955,31.126,126.763
			h8.719V425.001H795.895z"/>
	</g>
	<polygon fill="#FFEDE2" stroke="#AFAAAA" stroke-miterlimit="10" points="841.048,554.736 832.156,554.736 832.156,438.059 
		841.924,438.059 	"/>
	<polygon fill="#FFEDE2" stroke="#AFAAAA" stroke-miterlimit="10" points="848.345,561 842.985,551.87 830.458,551.87 828.814,561 	
		"/>
	<g>
		<polygon fill="#FFEDE2" stroke="#AFAAAA" stroke-miterlimit="10" points="782.789,553.781 792.556,551.87 792.556,438.059 
			782.789,438.059 		"/>
		<g>
			<g>
				<rect x="779.038" y="420.86" fill="#FFEDE2" stroke="#AFAAAA" stroke-miterlimit="10" width="66.673" height="14.863"/>
				<rect x="779.038" y="425.319" fill="#FFEDE2" stroke="#AFAAAA" stroke-miterlimit="10" width="66.673" height="10.404"/>
				<rect x="805.686" y="420.86" fill="#FFEDE2" stroke="#AFAAAA" stroke-miterlimit="10" width="13.377" height="14.863"/>
			</g>
			<rect x="774.826" y="420.86" fill="#FFEDE2" stroke="#AFAAAA" stroke-miterlimit="10" width="18.898" height="21.658"/>
			<rect x="830.458" y="420.86" fill="#FFEDE2" stroke="#AFAAAA" stroke-miterlimit="10" width="18.261" height="19.959"/>
		</g>
	</g>
	<polygon fill="#FFEDE2" stroke="#AFAAAA" stroke-miterlimit="10" points="776.368,561 781.727,551.87 794.255,551.87 795.898,561 	
		"/>
	<g>
		<rect x="733.339" y="134.229" fill="#FFEDE2" stroke="#AFAAAA" stroke-miterlimit="10" width="17.272" height="426.771"/>
		<g>
			<rect x="733.339" y="148.755" fill="#FFEDE2" stroke="#AFAAAA" stroke-miterlimit="10" width="22.765" height="23.293"/>
			<rect x="733.339" y="230.363" fill="#FFEDE2" stroke="#AFAAAA" stroke-miterlimit="10" width="22.765" height="23.293"/>
			<rect x="733.339" y="311.899" fill="#FFEDE2" stroke="#AFAAAA" stroke-miterlimit="10" width="22.765" height="23.293"/>
		</g>
		<rect x="733.339" y="394.709" fill="#FFEDE2" stroke="#AFAAAA" stroke-miterlimit="10" width="22.765" height="23.293"/>
		<rect x="733.339" y="476.316" fill="#FFEDE2" stroke="#AFAAAA" stroke-miterlimit="10" width="22.765" height="23.293"/>
	</g>
	<g>
		<rect x="868.172" y="132.327" fill="#FFEDE2" stroke="#AFAAAA" stroke-miterlimit="10" width="17.272" height="426.771"/>
		<g>
			<rect x="862.679" y="146.854" fill="#FFEDE2" stroke="#AFAAAA" stroke-miterlimit="10" width="22.765" height="23.293"/>
			<rect x="862.679" y="228.461" fill="#FFEDE2" stroke="#AFAAAA" stroke-miterlimit="10" width="22.765" height="23.293"/>
			<rect x="862.679" y="309.997" fill="#FFEDE2" stroke="#AFAAAA" stroke-miterlimit="10" width="22.765" height="23.293"/>
		</g>
		<rect x="862.679" y="392.807" fill="#FFEDE2" stroke="#AFAAAA" stroke-miterlimit="10" width="22.765" height="23.293"/>
		<rect x="862.679" y="474.415" fill="#FFEDE2" stroke="#AFAAAA" stroke-miterlimit="10" width="22.765" height="23.293"/>
	</g>
	<rect x="734.613" y="401.159" fill="#FFEDE2" stroke="#AFAAAA" stroke-miterlimit="10" width="149.483" height="20.232"/>
</g>
<rect x="729.619" y="133.591" fill="#FFEDE2" stroke="#AFAAAA" stroke-miterlimit="10" width="159.008" height="3.698"/>
<polyline fill="#8EA5AF" points="439.601,236.766 463.277,224.956 463.277,226.5 439.619,237.854 "/>
<g>
	<path fill="#C6B8AF" d="M-473.555,605.808c-0.143,0-0.287-0.047-0.408-0.145c-0.279-0.225-0.322-0.635-0.096-0.914
		c4.53-5.607,28.162-6.318,53.181-7.069c21.94-0.66,44.627-1.343,47.271-5.767c0.291-0.487,0.282-1.004-0.03-1.627
		c-3.791-7.579-36.326-6.234-62.468-5.151c-17.302,0.715-32.245,1.333-36.839-0.604c-0.343-0.145-1.386-0.585-1.248-1.46
		c0.297-1.886,6.845-2.706,32.712-4.965c25.273-2.206,63.467-5.541,63.012-11.454c-0.036-0.473-0.268-0.886-0.707-1.258
		c-4.192-3.557-23.439-1.876-42.052-0.253c-20.458,1.786-39.786,3.475-42.907-1.211c-0.601-0.902-0.458-1.646-0.232-2.112
		c1.648-3.392,14.096-4.536,34.27-6.121c18.845-1.481,42.298-3.324,42.096-8.564c-0.027-0.689-0.33-1.272-0.927-1.781
		c-5.161-4.403-28.998-1.537-46.4,0.555c-10.172,1.223-18.956,2.278-22.709,1.847c-0.609-0.071-1.742-0.202-1.784-1.041
		c-0.066-1.331,2.915-2.18,22.779-6.495c16.964-3.684,40.197-8.73,42.202-12.071c0.147-0.246,0.087-0.346,0.047-0.414
		c-2.067-3.441-34.244-3.094-54.039-2.07c-0.365,0.049-0.664-0.256-0.683-0.614c-0.018-0.359,0.257-0.665,0.616-0.683
		c5.32-0.277,52.072-2.543,55.22,2.698c0.324,0.539,0.308,1.161-0.046,1.75c-2.125,3.542-19.953,7.659-43.041,12.674
		c-8.832,1.918-17.923,3.892-20.905,4.997c3.727,0.355,12.294-0.678,22.187-1.868c18.625-2.24,41.805-5.027,47.399-0.253
		c0.876,0.748,1.341,1.663,1.382,2.718c0.232,6.037-16.991,7.843-43.293,9.911c-14.904,1.17-31.796,2.498-33.203,5.393
		c-0.079,0.164-0.135,0.406,0.144,0.824c2.696,4.042,23.425,2.234,41.713,0.637c19.747-1.725,38.401-3.351,43.006,0.556
		c0.708,0.6,1.098,1.324,1.162,2.15c0.513,6.666-27.509,9.645-64.194,12.848c-14.254,1.245-28.97,2.529-31.334,3.81
		c0.069,0.036,0.155,0.077,0.262,0.122c4.324,1.822,19.846,1.183,36.28,0.504c27.898-1.155,59.519-2.463,63.685,5.869
		c0.64,1.281,0.344,2.27-0.017,2.875c-3.009,5.036-24.02,5.668-48.347,6.399c-22.525,0.678-48.054,1.446-52.209,6.588
		C-473.178,605.726-473.366,605.808-473.555,605.808z"/>
</g>
<g>
	<polygon opacity="0.2" fill="#576487" enable-background="new    " points="445.68,521.465 445.68,520.165 443.146,520.165 
		443.146,507.603 443.543,507.603 443.543,506.303 443.146,506.303 443.146,493.956 443.796,493.956 443.796,492.657 
		443.146,492.657 443.146,482.915 443.168,482.26 443.146,482.259 443.146,468.019 443.157,468.019 443.157,466.719 
		443.146,466.719 443.146,446.7 443.157,446.041 443.146,446.041 443.146,432.625 443.146,432.625 443.146,431.326 443.146,431.326 
		443.146,422.695 443.146,417.26 443.796,417.26 443.796,398.653 443.141,398.653 438.558,124.598 434.988,124.598 427.846,124.598 
		406.144,52.208 406.144,52.208 332.456,28.102 331.811,12.14 331.811,18.205 294.394,118.815 287.093,118.815 288.433,127.531 
		290.306,127.531 290.306,398.653 289.656,398.653 289.656,417.26 290.024,417.26 290.306,422.694 290.306,445.669 289.801,445.669 
		289.801,446.969 290.306,446.969 290.306,477.069 289.823,477.053 289.779,478.352 290.306,478.37 290.306,492.657 
		289.656,492.657 289.656,493.956 290.306,493.956 290.306,506.303 289.403,506.303 289.403,507.603 290.306,507.603 
		290.306,536.168 289.662,536.168 289.662,537.467 290.306,537.467 290.306,556.626 290.306,556.626 313.107,556.626 
		313.107,556.998 313.107,556.998 338.253,556.998 338.253,556.998 345.597,556.998 345.597,556.998 345.597,556.626 
		383.264,556.626 383.264,556.626 408.41,556.626 408.41,556.626 415.754,556.626 415.754,556.626 443.146,556.626 443.146,537.467 
		443.801,537.467 443.801,536.168 443.146,536.168 443.146,521.465 	"/>
	<g>
		<polygon fill="#AB9F96" points="285.047,126.065 324.035,21.231 324.035,14.733 392.048,12.134 392.048,17.765 428.437,123.466 		
			"/>
		<g>
			<defs>
				<polygon id="SVGID_3_" points="284.608,126.065 323.596,21.231 323.596,14.733 391.609,12.134 391.609,17.765 427.998,123.466 
									"/>
			</defs>
			<clipPath id="SVGID_4_">
				<use xlink:href="#SVGID_3_"  overflow="visible"/>
			</clipPath>
			<g clip-path="url(#SVGID_4_)">
				<path fill="#5A5244" d="M559.45,126.684l0.376-0.233l-4.892-7.897l25.041,0.207l0.007-0.885l-39.966-0.331l-3.322-9.175
					l11.645,0.161l0,0.001l0.003-0.001l27.006,0.374l0.012-0.885l-26.428-0.366l-4.619-11.134l28.111,0.375l0.012-0.885
					l-94.854-1.267l-0.023-0.068l-0.195,0.066l-157.976-2.109l-0.034-0.124l-0.428,0.118l-99.804-1.333l-0.012,0.885l33.099,0.442
					l-0.365,10.923l-32.722-0.453l-0.012,0.885l33.14,0.459l0.449,0.015l0-0.009l15.768,0.218l2.418,10.657l-51.767-0.429
					l-0.007,0.885l51.975,0.43l0.023,0.102l0.433-0.098l15.569,0.129l1.277,10.348H249.58l-1.488-10.539l-0.876,0.124l1.47,10.415
					h-29.572v0.885h69.382l0.007,0.054l0.439-0.054h73.057l0.015,0.081l0.435-0.081h31.006l0.034,0.121l0.426-0.121h36.274
					l0.048,0.141l0.419-0.141h62.534l0.1,0.199l0.395-0.199h89.335v-0.885H559.45z M539.073,117.538l-34.017-0.282l-1.925-9.35
					l15.385,0.213l0.156,0.245l0.373-0.237l17.176,0.238l-0.415,0.15L539.073,117.538z M373.791,106.117l10.57,0.146l0.026,0.108
					l0.431-0.102l18.752,0.259l2.551,9.908l-30.523-0.253l0.323-0.069L373.791,106.117z M344.08,115.923l-36.249-0.3l-2.478-10.453
					l36.773,0.509l-0.43,0.101L344.08,115.923z M342.581,105.685l30.302,0.419l2.146,10.075l-30.039-0.249L342.581,105.685z
					 M404.487,106.542l38.058,0.527l3.2,9.697l-38.709-0.321L404.487,106.542z M443.481,107.081l5.395,0.075l0.037,0.128
					l0.425-0.122l22.378,0.31l-0.408,0.168l3.864,9.369l-28.492-0.236L443.481,107.081z M472.196,107.478l30.481,0.422l-0.432,0.089
					l1.907,9.26l-28.022-0.232L472.196,107.478z M543.831,96.515l-0.408,0.169l4.546,10.958l-28.963-0.401l-7.093-11.152
					L543.831,96.515z M511.385,96.082l-0.374,0.238l6.937,10.907l-36.331-0.503l-3.737-11.089L511.385,96.082z M476.943,95.622
					l3.736,11.089l-31.135-0.431l-3.171-11.066L476.943,95.622z M445.45,95.202l3.171,11.066l-5.433-0.075l-0.02-0.061l-0.176,0.058
					l-22.739-0.315l0.422-0.135l-3.496-10.916L445.45,95.202z M416.711,94.818l-0.423,0.135l3.496,10.915l-15.527-0.215l-0.03-0.117
					l-0.427,0.11l-18.739-0.259l-2.607-11.027L416.711,94.818z M381.544,94.348l2.607,11.027l-31.257-0.432l0.438-0.072
					l-1.781-10.847l-0.873,0.143l1.768,10.769l-30.251-0.419l0.426-0.117l-2.992-10.879L381.544,94.348z M318.709,93.509
					l3.026,11.002l-32.558-0.45l-2.763-10.983L318.709,93.509z M252.728,103.557l0.365-10.915l-0.427-0.014l33.29,0.445
					l-0.429,0.108l2.734,10.868L252.728,103.557z M271.793,115.324l-2.417-10.652l19.108,0.264l0.029,0.114l0.428-0.108
					l15.956,0.221l-0.431,0.102l2.453,10.35L271.793,115.324z M326.765,126.684l0.435-0.078l-1.769-9.859l-0.871,0.156l1.756,9.781
					h-37.037l-1.275-10.341l56.285,0.466l0.025,0.105l0.429-0.101l15.277,0.127l1.816,9.745H326.765z M362.734,126.684l-1.814-9.737
					l30.05,0.249l-0.425,0.121l2.659,9.367H362.734z M394.124,126.684l-2.692-9.484l35.832,0.297l-0.419,0.141l3.046,9.047H394.124z
					 M430.824,126.684l-3.092-9.184l18.306,0.152l0.047,0.142l0.421-0.139l8.77,0.073l-0.422,0.133l2.775,8.822H430.824z
					 M493.733,126.684l-4.364-8.656l-0.79,0.397l4.163,8.258h-34.189l-2.816-8.952l48.596,0.402l0.019,0.092l0.432-0.089
					l13.967,0.116l-0.368,0.245l5.47,8.185H493.733z M524.918,126.684l-5.631-8.425l35.589,0.295l-0.711,0.441l4.764,7.69H524.918z"
					/>
				<path fill="#5A5244" d="M539.728,86.984l0.376-0.233l-4.892-7.897l25.041,0.207l0.007-0.885l-39.966-0.331l-3.322-9.175
					l11.645,0.161l0,0.001l0.003-0.001l27.006,0.374l0.012-0.885l-26.428-0.366l-4.619-11.134l28.111,0.375l0.012-0.885
					l-94.854-1.267l-0.023-0.068l-0.195,0.066l-157.976-2.109l-0.034-0.124l-0.428,0.118l-99.804-1.333l-0.012,0.885l33.099,0.442
					l-0.365,10.923l-32.722-0.453l-0.012,0.885l33.14,0.459l0.449,0.015l0-0.009l15.768,0.218l2.418,10.657l-51.767-0.429
					l-0.007,0.885l51.975,0.43l0.023,0.102l0.433-0.098l15.569,0.129l1.277,10.348h-38.807l-1.488-10.539l-0.876,0.124l1.47,10.415
					h-29.572v0.885h69.382l0.007,0.054l0.439-0.054h73.057l0.015,0.081l0.435-0.081h31.006l0.034,0.121l0.426-0.121h36.274
					l0.048,0.141l0.419-0.141h62.534l0.1,0.199l0.395-0.199h89.335v-0.885H539.728z M519.351,77.838l-34.017-0.282l-1.925-9.35
					l15.385,0.213l0.156,0.245l0.373-0.237l17.176,0.238l-0.415,0.15L519.351,77.838z M354.069,66.417l10.57,0.146l0.026,0.108
					l0.431-0.102l18.752,0.259l2.551,9.908l-30.523-0.253l0.323-0.069L354.069,66.417z M324.358,76.223l-36.249-0.3l-2.478-10.453
					l36.773,0.509l-0.43,0.101L324.358,76.223z M322.859,65.985l30.302,0.419l2.146,10.075l-30.039-0.249L322.859,65.985z
					 M384.765,66.842l38.058,0.527l3.2,9.697l-38.709-0.321L384.765,66.842z M423.759,67.381l5.395,0.075l0.037,0.128l0.425-0.122
					l22.378,0.31l-0.408,0.168l3.864,9.369l-28.492-0.236L423.759,67.381z M452.475,67.779l30.481,0.422l-0.432,0.089l1.907,9.26
					l-28.022-0.232L452.475,67.779z M524.109,56.815l-0.408,0.169l4.546,10.958l-28.963-0.401l-7.093-11.152L524.109,56.815z
					 M491.663,56.382l-0.374,0.238l6.937,10.907l-36.331-0.503l-3.737-11.089L491.663,56.382z M457.221,55.922l3.736,11.089
					l-31.135-0.431l-3.171-11.066L457.221,55.922z M425.728,55.502l3.171,11.066l-5.433-0.075l-0.02-0.061l-0.176,0.058
					l-22.739-0.315l0.422-0.135l-3.496-10.916L425.728,55.502z M396.99,55.118l-0.422,0.135l3.496,10.915l-15.527-0.215l-0.03-0.117
					l-0.427,0.11l-18.739-0.259l-2.607-11.027L396.99,55.118z M361.822,54.649l2.607,11.027l-31.257-0.432l0.438-0.072
					l-1.781-10.847l-0.873,0.143l1.768,10.769l-30.251-0.419l0.426-0.117l-2.992-10.879L361.822,54.649z M298.987,53.81
					l3.026,11.002l-32.558-0.45l-2.763-10.983L298.987,53.81z M233.006,63.857l0.365-10.915l-0.427-0.014l33.29,0.445l-0.429,0.108
					l2.734,10.868L233.006,63.857z M252.071,75.624l-2.417-10.652l19.108,0.264l0.029,0.114l0.428-0.108l15.956,0.221l-0.431,0.102
					l2.453,10.35L252.071,75.624z M307.043,86.984l0.435-0.078l-1.769-9.859l-0.871,0.156l1.756,9.781h-37.037l-1.275-10.341
					l56.285,0.466l0.025,0.105l0.429-0.101l15.277,0.127l1.816,9.745H307.043z M343.012,86.984l-1.814-9.737l30.05,0.249
					l-0.425,0.121l2.659,9.367H343.012z M374.402,86.984L371.71,77.5l35.832,0.297l-0.419,0.141l3.046,9.047H374.402z
					 M411.102,86.984l-3.092-9.184l18.306,0.152l0.047,0.142l0.421-0.139l8.77,0.073l-0.423,0.133l2.775,8.822H411.102z
					 M474.011,86.984l-4.364-8.656l-0.79,0.397l4.163,8.258h-34.189l-2.816-8.952l48.596,0.402l0.019,0.092l0.432-0.089
					l13.967,0.116l-0.368,0.245l5.47,8.185H474.011z M505.196,86.984l-5.631-8.425l35.589,0.295l-0.711,0.441l4.764,7.69H505.196z"
					/>
				<path fill="#5A5244" d="M530.512,45.821l0.376-0.233l-4.892-7.897l25.041,0.207l0.007-0.885l-39.966-0.331l-3.322-9.175
					l11.645,0.161l0,0.001l0.003-0.001l27.006,0.374l0.012-0.885l-26.428-0.366l-4.619-11.134l28.111,0.375l0.012-0.885
					l-94.854-1.267l-0.023-0.068l-0.195,0.066l-157.976-2.109l-0.034-0.124l-0.428,0.118l-99.804-1.333l-0.012,0.885l33.099,0.442
					l-0.365,10.923l-32.722-0.453l-0.012,0.885l33.14,0.459l0.449,0.015l0-0.009l15.768,0.218l2.418,10.657l-51.767-0.429
					l-0.007,0.885l51.975,0.43l0.023,0.102l0.433-0.098l15.569,0.129l1.277,10.348h-38.807l-1.488-10.539l-0.876,0.124l1.47,10.415
					h-29.572v0.885h69.382l0.007,0.054l0.439-0.054h73.057l0.015,0.081l0.435-0.081h31.006l0.034,0.121l0.426-0.121h36.274
					l0.048,0.141l0.419-0.141h62.534l0.1,0.199l0.395-0.199h89.335v-0.885H530.512z M510.135,36.675l-34.017-0.282l-1.925-9.35
					l15.385,0.213l0.156,0.245l0.373-0.237l17.176,0.238l-0.415,0.15L510.135,36.675z M344.853,25.254l10.57,0.146l0.026,0.108
					l0.431-0.102l18.752,0.259l2.551,9.908l-30.523-0.253l0.323-0.069L344.853,25.254z M315.142,35.06l-36.249-0.3l-2.478-10.453
					l36.773,0.509l-0.43,0.101L315.142,35.06z M313.643,24.822l30.302,0.419l2.146,10.075l-30.039-0.249L313.643,24.822z
					 M375.549,25.679l38.058,0.527l3.2,9.697l-38.709-0.321L375.549,25.679z M414.543,26.218l5.395,0.075l0.037,0.128l0.425-0.122
					l22.378,0.31l-0.408,0.168l3.864,9.369l-28.492-0.236L414.543,26.218z M443.259,26.615l30.481,0.422l-0.432,0.089l1.907,9.26
					l-28.022-0.232L443.259,26.615z M514.893,15.652l-0.408,0.169l4.546,10.958l-28.963-0.401l-7.093-11.152L514.893,15.652z
					 M482.447,15.219l-0.374,0.238l6.937,10.907l-36.331-0.503l-3.737-11.089L482.447,15.219z M448.005,14.759l3.736,11.089
					l-31.135-0.431l-3.171-11.066L448.005,14.759z M416.512,14.339l3.171,11.066l-5.433-0.075l-0.02-0.061l-0.176,0.058
					l-22.739-0.315l0.422-0.135l-3.496-10.916L416.512,14.339z M387.774,13.955l-0.422,0.135l3.496,10.915L375.32,24.79l-0.03-0.117
					l-0.427,0.11l-18.739-0.259l-2.607-11.027L387.774,13.955z M352.606,13.485l2.607,11.027l-31.257-0.432l0.438-0.072
					l-1.781-10.847l-0.873,0.143l1.768,10.769l-30.251-0.419l0.426-0.117l-2.992-10.879L352.606,13.485z M289.771,12.646
					l3.026,11.002l-32.558-0.45l-2.763-10.983L289.771,12.646z M223.79,22.694l0.365-10.915l-0.427-0.014l33.29,0.445l-0.429,0.108
					l2.734,10.868L223.79,22.694z M242.855,34.461l-2.417-10.652l19.108,0.264l0.029,0.114l0.428-0.108l15.956,0.221l-0.431,0.102
					l2.453,10.35L242.855,34.461z M297.827,45.821l0.435-0.078l-1.769-9.859l-0.871,0.156l1.756,9.781h-37.037l-1.275-10.341
					l56.285,0.466l0.025,0.105l0.429-0.101l15.277,0.127l1.816,9.745H297.827z M333.796,45.821l-1.814-9.737l30.05,0.249
					l-0.425,0.121l2.659,9.367H333.796z M365.186,45.821l-2.692-9.484l35.832,0.297l-0.419,0.141l3.046,9.047H365.186z
					 M401.886,45.821l-3.092-9.184l18.306,0.152l0.047,0.142l0.421-0.139l8.77,0.073l-0.423,0.133l2.775,8.822H401.886z
					 M464.795,45.821l-4.364-8.656l-0.79,0.397l4.163,8.258h-34.189l-2.816-8.952l48.596,0.402l0.019,0.092l0.432-0.089
					l13.967,0.116l-0.368,0.245l5.47,8.185H464.795z M495.98,45.821l-5.631-8.425l35.589,0.295l-0.711,0.441l4.764,7.69H495.98z"/>
			</g>
		</g>
	</g>
	<path opacity="0.6" fill="#7A736F" d="M317.08,81.823c-12.13-18.628,10.83-15.162,9.53-39.854s11.696-11.696,11.696-21.227
		c0-3.688,2.468-7.438,5.49-10.653l-18.053,0.69v6.498l-38.988,104.834l65.335-1.184C338.25,107.847,323.599,91.834,317.08,81.823z"
		/>
	<g>
		<polygon fill="#CE9D7C" points="284.026,560.629 284.026,131.533 430.448,131.533 436.866,560.629 		"/>
		<polygon fill="#EEE3C9" points="436.866,560.629 284.026,560.629 284.026,408.504 436.866,403.305 		"/>
		<polygon fill="#BCB59E" points="283.521,416.951 284.026,426.698 436.866,426.698 436.866,411.959 		"/>
		<rect x="284.026" y="403.305" fill="#EEE3C9" width="152.84" height="17.307"/>
		<g>
			<g>
				<polygon fill="#BFB5A1" points="308.191,459.859 300.128,450.971 283.521,450.971 283.521,449.672 300.704,449.672 
					309.153,458.986 				"/>
			</g>
			<g>
				<rect x="322.422" y="421.262" fill="#BFB5A1" width="1.3" height="29.431"/>
			</g>
			<g>
				<polygon fill="#BFB5A1" points="316.847,452.081 306.481,436.628 284.026,436.628 284.026,435.328 307.173,435.328 
					317.926,451.357 				"/>
			</g>
			<g>
				<g>
					<polygon fill="#BFB5A1" points="338.167,459.859 337.204,458.986 345.653,449.672 362.836,449.672 362.836,450.971 
						346.229,450.971 					"/>
				</g>
				<g>
					<polygon fill="#BFB5A1" points="329.51,452.081 328.431,451.357 339.183,435.328 362.331,435.328 362.331,436.628 
						339.876,436.628 					"/>
				</g>
			</g>
		</g>
		<g>
			<g>
				<polygon fill="#BFB5A1" points="378.241,459.859 370.178,450.971 353.571,450.971 353.571,449.672 370.754,449.672 
					379.203,458.986 				"/>
			</g>
			<g>
				<rect x="392.473" y="421.262" fill="#BFB5A1" width="1.3" height="29.431"/>
			</g>
			<g>
				<polygon fill="#BFB5A1" points="386.898,452.081 376.531,436.628 354.076,436.628 354.076,435.328 377.224,435.328 
					387.976,451.357 				"/>
			</g>
			<g>
				<g>
					<polygon fill="#BFB5A1" points="408.217,459.859 407.255,458.986 415.708,449.667 436.878,450.044 436.855,451.343 
						416.274,450.977 					"/>
				</g>
				<g>
					<polygon fill="#BFB5A1" points="399.561,452.081 398.482,451.357 409.234,435.328 436.866,435.328 436.866,436.628 
						409.927,436.628 					"/>
				</g>
			</g>
		</g>
		<g>
			<rect x="284.026" y="470.722" fill="#BFB5A1" width="152.851" height="1.3"/>
		</g>
		<g>
			
				<rect x="283.497" y="483.634" transform="matrix(-0.9994 -0.0339 0.0339 -0.9994 703.7844 980.5017)" fill="#BFB5A1" width="153.414" height="1.3"/>
		</g>
		<g>
			<rect x="283.376" y="496.659" fill="#BFB5A1" width="154.14" height="1.3"/>
		</g>
		<g>
			<rect x="283.124" y="510.305" fill="#BFB5A1" width="154.14" height="1.3"/>
		</g>
		<g>
			<rect x="285.261" y="524.168" fill="#BFB5A1" width="154.14" height="1.3"/>
		</g>
		<g>
			<rect x="283.382" y="540.17" fill="#BFB5A1" width="154.14" height="1.3"/>
		</g>
		<g>
			<g>
				<path fill="#807B6E" d="M409.474,560.629v-94.062c0-8.972-7.273-16.245-16.245-16.245s-16.245,7.273-16.245,16.245v94.062
					H409.474z"/>
				<path opacity="0.4" fill="#5B554B" enable-background="new    " d="M393.229,450.322c-0.626,0-1.241,0.044-1.849,0.113
					c7.554,8.505,17.258,33.993,10.75,110.194h7.344v-94.062C409.474,457.595,402.201,450.322,393.229,450.322z"/>
			</g>
			<g>
				<path fill="#3D3829" d="M406.896,471.372h-26.684l0.022-0.67c0.005-0.164,0.66-16.388,13.141-16.388l0.187,0.001
					c12.643,0.164,13.307,16.225,13.312,16.387L406.896,471.372z M381.573,470.072h23.96c-0.246-2.948-1.85-14.327-11.988-14.458
					l-0.171-0.001C383.388,455.613,381.813,467.107,381.573,470.072z"/>
			</g>
			<g>
				<path fill="#3D3829" d="M406.55,490.541h-26.317v-8.934v-7.437h26.317V490.541z M381.533,489.241h23.718v-13.773h-23.718
					V489.241z"/>
			</g>
			<g>
				<rect x="381.533" y="481.705" fill="#3D3829" width="25.017" height="1.3"/>
			</g>
			<rect x="380.883" y="492.851" fill="none" stroke="#3D3829" stroke-miterlimit="10" width="6.66" height="43.176"/>
			<rect x="380.883" y="539.799" fill="none" stroke="#3D3829" stroke-miterlimit="10" width="6.66" height="16.859"/>
			<g>
				<rect x="398.59" y="492.851" fill="none" stroke="#3D3829" stroke-miterlimit="10" width="6.66" height="43.176"/>
				<rect x="398.59" y="539.799" fill="none" stroke="#3D3829" stroke-miterlimit="10" width="6.66" height="16.859"/>
			</g>
		</g>
		<path fill="none" stroke="#3D3829" stroke-miterlimit="10" d="M393.229,450.322c-0.626,0-1.241,0.044-1.849,0.113l0,0l0,0
			c-8.1,0.919-14.396,7.787-14.396,16.132v94.062h25.146h7.344v-94.062C409.474,457.595,402.201,450.322,393.229,450.322z"/>
		<g>
			<g>
				<path fill="#807B6E" d="M339.317,561v-94.062c0-8.972-7.273-16.245-16.245-16.245s-16.245,7.273-16.245,16.245V561H339.317z"/>
				<path opacity="0.4" fill="#5B554B" enable-background="new    " d="M323.072,450.693c-0.626,0-1.241,0.044-1.849,0.113
					c7.554,8.505,17.258,33.993,10.75,110.194h7.344v-94.062C339.317,457.967,332.044,450.693,323.072,450.693z"/>
			</g>
			<g>
				<path fill="#3D3829" d="M336.74,471.743h-26.684l0.022-0.67c0.005-0.164,0.66-16.388,13.141-16.388l0.187,0.001
					c12.643,0.164,13.307,16.225,13.312,16.387L336.74,471.743z M311.416,470.443h23.96c-0.246-2.948-1.85-14.327-11.988-14.458
					l-0.171-0.001C313.231,455.984,311.656,467.479,311.416,470.443z"/>
			</g>
			<g>
				<path fill="#3D3829" d="M336.393,490.912h-26.317v-8.934v-7.437h26.317V490.912z M311.376,489.613h23.718V475.84h-23.718
					V489.613z"/>
			</g>
			<g>
				<rect x="311.376" y="482.076" fill="#3D3829" width="25.017" height="1.3"/>
			</g>
			<rect x="310.726" y="493.222" fill="none" stroke="#3D3829" stroke-miterlimit="10" width="6.66" height="43.176"/>
			<rect x="310.726" y="540.17" fill="none" stroke="#3D3829" stroke-miterlimit="10" width="6.66" height="16.859"/>
			<g>
				<rect x="328.433" y="493.222" fill="none" stroke="#3D3829" stroke-miterlimit="10" width="6.66" height="43.176"/>
				<rect x="328.433" y="540.17" fill="none" stroke="#3D3829" stroke-miterlimit="10" width="6.66" height="16.859"/>
			</g>
		</g>
		<path fill="none" stroke="#3D3829" stroke-miterlimit="10" d="M323.072,450.693c-0.626,0-1.241,0.044-1.849,0.113l0,0l0,0
			c-8.1,0.919-14.396,7.787-14.396,16.132V561h25.146h7.344v-94.062C339.317,457.967,332.044,450.693,323.072,450.693z"/>
		<g>
			<path fill="#EDBF96" d="M381.532,363.667c-2.645,0-24.509-7.64-25.181-15.029c-0.343-3.772,4.419-6.509,14.558-8.37
				c7.656-1.404,7.833-2.692,7.828-2.834c-0.122-3.438-31.326-8.944-61.423-12.28l0.044-1.296l104.094-4.483l-132.095-16.932
				l0.459-23.36l0.737,0.117l137.923,21.921l0.78-11.253l-139.888-35.931V232.62l0.737,0.1l138.32,18.651v-17.429l-137.758-16.038
				v-16.383l137.758,7.459v-13.52L290.742,180.8l-1.477-10.826l139.159,9.538v-13.453l-138.48-15.65l0.073-1.296h138.546l1.34-5.523
				l-139.473-4.32c-0.359-0.011-0.64-0.311-0.629-0.67c0.011-0.359,0.298-0.65,0.669-0.63l141.073,4.371l-1.959,8.072H301.555
				l128.171,14.486v16.004l-0.694-0.047l-138.261-9.475l1.123,8.234l137.832,14.678v16.058l-137.758-7.459v13.855l137.758,16.038
				v20.074l-0.737-0.1l-138.32-18.651v18.823l139.959,35.948l-0.953,13.749l-0.701-0.11l-137.886-21.914l-0.407,20.702
				l138.478,17.749l-0.055,1.295l-103.574,4.46c18,2.21,54.319,7.318,54.506,12.581c0.062,1.76-2.597,3.004-8.892,4.159
				c-9.094,1.668-13.761,4.079-13.499,6.973c0.579,6.363,21.979,13.848,23.887,13.848c0.359,0,0.65,0.291,0.65,0.65
				S381.892,363.667,381.532,363.667z"/>
		</g>
		<polygon fill="#EEE3C9" points="290.669,405.904 284.026,403.305 284.026,131.533 290.669,131.533 		"/>
		<polygon fill="#EEE3C9" points="436.866,403.305 429.726,403.548 429.726,131.533 434.925,131.533 		"/>
		<g>
			<polygon fill="#D18D6F" points="430.376,403.955 290.019,403.955 290.019,131.534 291.319,131.534 291.319,402.655 
				429.076,402.655 429.076,131.534 430.376,131.534 			"/>
		</g>
		<g>
			<path fill="#BFB5A1" d="M437.516,421.262h-154.14v-18.607h154.14V421.262z M284.676,419.963h151.54v-16.008h-151.54
				L284.676,419.963L284.676,419.963z"/>
		</g>
	</g>
	<g>
		<path opacity="0.3" fill="#9B7861" enable-background="new    " d="M342.912,194.635h-0.439V161.3
			c0-9.03-7.346-16.375-16.375-16.375s-16.375,7.345-16.375,16.375v33.335h-5.199v9.876h43.146v-9.876L342.912,194.635
			L342.912,194.635z"/>
		<g>
			<path fill="#EEE3C9" d="M343.513,197.831v-38.793c0-8.612-6.982-15.595-15.595-15.595s-15.595,6.983-15.595,15.595v38.793
				H343.513z"/>
			<rect x="307.124" y="193.152" fill="#EEE3C9" width="41.587" height="8.318"/>
			<path fill="#BFB5A1" d="M349.881,201.892h-43.147v-9.876h5.199v-33.335c0-9.03,7.346-16.375,16.375-16.375
				s16.375,7.345,16.375,16.375v33.335h5.198V201.892z M308.294,200.332h40.027v-6.757h-5.198v-34.894
				c0-8.169-6.646-14.815-14.815-14.815s-14.815,6.646-14.815,14.815v34.894h-5.199V200.332z"/>
			<rect x="313.232" y="192.015" fill="#BFB5A1" width="33.189" height="1.56"/>
		</g>
		<g>
			<g>
				<path fill="#3C3536" d="M341.044,188.572h-25.472v-33.271h25.472V188.572z M317.131,187.012h22.353V156.86h-22.353V187.012z"/>
			</g>
			<g>
				<g>
					<rect x="316.351" y="156.081" fill="#7C6C71" width="23.913" height="31.71"/>
					<path opacity="0.4" fill="#58504D" enable-background="new    " d="M316.351,156.081v2.565
						c6.466,0.418,19.562,3.746,18.974,23.947c-0.055,1.891-0.161,3.609-0.304,5.198h5.242v-31.71H316.351z"/>
				</g>
				<g>
					<polygon fill="#3C3536" points="328.827,187.792 327.268,187.792 327.268,156.081 328.827,155.674 					"/>
				</g>
			</g>
		</g>
		<path opacity="0.3" fill="#9B7861" enable-background="new    " d="M413.069,194.635h-0.439V161.3
			c0-9.03-7.346-16.375-16.375-16.375S379.88,152.27,379.88,161.3v33.335h-5.199v9.876h43.146v-9.876L413.069,194.635
			L413.069,194.635z"/>
		<g>
			<path fill="#EEE3C9" d="M414.97,197.831v-38.793c0-8.612-6.982-15.595-15.595-15.595s-15.595,6.983-15.595,15.595v38.793H414.97z
				"/>
			<rect x="378.581" y="193.152" fill="#EEE3C9" width="41.587" height="8.318"/>
			<path fill="#BFB5A1" d="M421.337,201.892h-43.146v-9.876h5.199v-33.335c0-9.03,7.346-16.375,16.375-16.375
				s16.375,7.345,16.375,16.375v33.335h5.198v9.876H421.337z M379.75,200.332h40.027v-6.757h-5.198v-34.894
				c0-8.169-6.646-14.815-14.815-14.815s-14.815,6.646-14.815,14.815v34.894h-5.199V200.332z"/>
			<rect x="384.689" y="192.015" fill="#BFB5A1" width="33.189" height="1.56"/>
		</g>
		<g>
			<g>
				<path fill="#3C3536" d="M412.5,188.572h-25.472v-33.271H412.5V188.572z M388.587,187.012h22.353V156.86h-22.353V187.012z"/>
			</g>
			<g>
				<g>
					<rect x="387.808" y="156.081" fill="#7C6C71" width="23.913" height="31.71"/>
					<path opacity="0.4" fill="#58504D" enable-background="new    " d="M387.808,156.081v2.565
						c6.466,0.418,19.562,3.746,18.974,23.947c-0.055,1.891-0.161,3.609-0.304,5.198h5.242v-31.71H387.808z"/>
				</g>
				<g>
					<polygon fill="#3C3536" points="400.284,187.792 398.724,187.792 398.724,156.081 400.284,155.674 					"/>
				</g>
			</g>
		</g>
	</g>
	<path opacity="0.3" fill="#9B7861" enable-background="new    " d="M329.895,245.738c0,0-8.664,9.097-9.097,10.83
		c-0.433,1.733-9.964,3.899-9.53,8.664c0.433,4.765-0.014,130.393-0.014,130.393l-7.35,21.227c0,0,8.664,4.765,14.729,4.332
		s15.595-2.544,23.826,0.028c8.231,2.571,10.397,4.737,10.397,4.737l13.429-9.097l-4.332-72.344c0,0,1.3-38.122,0.433-42.02
		s-2.599-27.292-5.632-28.158C353.721,273.463,329.895,245.738,329.895,245.738z"/>
	<g>
		<path fill="#F8F7FA" stroke="#848484" stroke-miterlimit="10" d="M325.1,392.858c0,0,0.987,10.722,8.454,12.996
			s25.174,10.234,26.149,12.021h11.534c0,0,2.112-1.949,5.523-3.249s22.256-11.696,20.794-23.068
			C396.092,380.187,325.1,392.858,325.1,392.858z"/>
		<path fill="#DED7D0" d="M343.868,389.952c-10.724,1.471-18.767,2.906-18.767,2.906s0.987,10.722,8.454,12.996
			s25.174,10.234,26.149,12.021h7.005C355.502,411.89,347.545,397.703,343.868,389.952z"/>
		<g>
			<g>
				<path fill="#B4B1AC" d="M361.323,418.297c-0.03-0.041-3.112-4.146-9.272-9.989c-6.354-6.025-7.61-11.58-7.661-11.813l1.27-0.275
					c0.011,0.053,1.244,5.419,7.285,11.146c6.249,5.928,9.293,9.986,9.419,10.156L361.323,418.297z"/>
			</g>
		</g>
		<g>
			<g>
				<path fill="#B4B1AC" d="M367.837,417.214c0.03-0.041,3.112-4.146,9.272-9.989c6.354-6.025,7.61-11.58,7.661-11.813l-1.27-0.275
					c-0.011,0.053-1.244,5.419-7.285,11.146c-6.249,5.928-9.293,9.986-9.419,10.156L367.837,417.214z"/>
			</g>
		</g>
		<g>
			<g>
				<g>
					<polygon fill="#848484" points="322.635,270.646 322.202,267.568 335.631,260.355 385.665,260.355 401.164,267.872 
						400.286,272.202 385.665,263.907 337.07,263.907 					"/>
					<g>
						<g>
							<path fill="#958C79" d="M384.338,237.263l-13.09-21.707h-9.113h-9.113l-13.09,21.707c0,0-17.233,14.913-16.736,30.82
								l12.924-6.462h26.843h1.326h23.861l12.924,6.462C401.571,252.176,384.338,237.263,384.338,237.263z"/>
							<g>
								<path fill="#5A5244" d="M379.541,241.785l-2.106-1.873c-0.071-0.062-7.51-6.606-15.914-5.964
									c-8.486,0.639-15.993,5.955-16.068,6.008l-1.871,1.34l9.988-24.413h15.971L379.541,241.785z M354.46,218.208l-7.983,19.515
									c2.797-1.674,8.529-4.612,14.945-5.098c6.353-0.475,12.058,2.763,14.931,4.778l-7.707-19.195L354.46,218.208L354.46,218.208
									z"/>
							</g>
							<path fill="#5A5244" d="M339.231,253.833h1.343c0.868-1.371,9.774-14.889,23.354-15.193
								c0.584,0.008,13.958,0.368,19.503,15.193h1.414c-0.013-0.038-0.026-0.078-0.039-0.115c-0.889-2.744-2.919-9.906-1.114-13.2
								c0.447-0.816,1.614-1.315,2.503-1.508l-1.223-1.172c-1.269,0.274-1.808,0.888-2.442,2.044
								c-1.124,2.051-1.007,5.223-0.514,8.158c-6.769-10.456-17.943-10.723-18.094-10.724c-11.646,0.261-19.784,9.356-23.019,13.704
								c0.773-8.07-0.577-14.071-0.627-14.327l-1.045,1.207c0.013,0.067,1.339,6.34,0.044,15.621L339.231,253.833z"/>
							<g>
								<path fill="#5A5244" d="M325.094,263.116l0.63-1.673c2.24-5.954,6.33-15.942,8.554-15.942c0.177,0,0.345,0.043,0.5,0.126
									c2.088,1.126,0.056,8.453-1.342,12.72l-0.082,0.25L325.094,263.116z M334.209,246.858c-1.109,0.594-4.127,7.038-6.6,13.371
									l4.648-2.544C333.916,252.548,334.795,247.647,334.209,246.858z"/>
							</g>
							<g>
								<path fill="#5A5244" d="M379.677,255.49h-33.572l0.237-0.843c0.034-0.12,3.55-12.083,16.283-12.083l0.271,0.001
									c12.935,0.171,16.501,11.958,16.536,12.077L379.677,255.49z M347.907,254.165h29.951c-1.027-2.592-4.88-10.14-14.979-10.273
									l-0.254-0.001C352.694,243.89,348.909,251.555,347.907,254.165z"/>
							</g>
							<g>
								<path fill="#5A5244" d="M371.12,252.316h-16.378l0.108-0.756c0.112-0.786,2.165-6.124,7.9-5.809
									c5.444,0.3,7.842,5.409,7.941,5.626L371.12,252.316z M356.433,250.991h12.503c-0.906-1.359-2.951-3.733-6.259-3.916
									C358.947,246.872,357.085,249.578,356.433,250.991z"/>
							</g>
							<g>
								<path fill="#5A5244" d="M401.131,268.908l-13.712-6.856h-51.715l-13.712,6.856l-0.032-1.036
									c-0.439-14.038,12.324-27.04,16.246-30.691l0.995-1.156l12.873-21.364h18.975l13.231,21.94
									c0.102,0.091,0.298,0.267,0.568,0.517c0.308,0.286,0.711,0.669,1.192,1.142c4.714,4.654,15.525,16.756,15.123,29.612
									L401.131,268.908z M335.39,260.727h52.343l12.112,6.056c-0.214-11.948-10.276-23.176-14.69-27.533
									c-0.515-0.506-0.907-0.879-1.205-1.156c-0.388-0.359-0.617-0.559-0.621-0.562l-0.132-0.158L370.3,215.988h-17.479
									l-12.552,20.813l-1.111,1.3c-2.698,2.517-15.627,15.237-15.88,28.681L335.39,260.727z"/>
							</g>
							<g>
								<path fill="#5A5244" d="M388.932,258.121l-0.082-0.25c-1.397-4.267-3.43-11.594-1.342-12.72
									c0.155-0.083,0.323-0.126,0.5-0.126c2.224,0,6.314,9.989,8.554,15.942l0.63,1.673L388.932,258.121z M390.03,257.21
									l4.648,2.544c-2.473-6.333-5.491-12.777-6.6-13.371C387.492,247.171,388.371,252.072,390.03,257.21z"/>
							</g>
						</g>
						<path opacity="0.2" fill="#5A5244" enable-background="new    " d="M386.04,238.26c-0.48-0.473-0.884-0.856-1.192-1.142
							c-0.271-0.25-0.467-0.426-0.568-0.517l-13.231-21.94h-4.878c3.972,6.457,12.062,19.988,12.312,23.485
							c0.291,4.074,7.052,13.513,5.631,23.905h3.305l13.712,6.856l0.032-1.036C401.565,255.016,390.754,242.914,386.04,238.26z"/>
					</g>
					<g>
						<polygon fill="#F8F7FA" stroke="#848484" stroke-miterlimit="10" points="399.525,373.94 399.853,270.646 385.665,263.907 
							385.665,367.875 						"/>
						<g>
							<polygon fill="#7C6E70" points="396.094,364.046 396.094,273.941 389.096,271.341 389.096,360.581 							"/>
							<path fill="#5F5453" d="M389.728,279.709l-0.632-8.367l6.998,2.599v9.463C394.166,282.216,391.946,280.903,389.728,279.709z"
								/>
						</g>
						<g>
							<polygon fill="#F8F7FA" points="391.945,362.313 393.245,363.288 393.245,272.641 391.945,271.341 							"/>
						</g>
					</g>
					<rect x="337.07" y="263.907" fill="#F8F7FA" stroke="#848484" stroke-miterlimit="10" width="48.596" height="103.968"/>
					<g>
						<polygon fill="#F8F7FA" stroke="#848484" stroke-miterlimit="10" points="323.21,373.94 323.21,269.755 337.07,263.907 
							337.07,367.875 						"/>
						<g>
							<polygon fill="#7C6E70" points="326.641,364.046 326.641,273.941 333.639,271.341 333.639,360.581 							"/>
							<path fill="#5F5453" d="M333.007,279.709l0.632-8.367l-6.998,2.599v9.463C328.569,282.216,330.789,280.903,333.007,279.709z"
								/>
						</g>
						<g>
							<polygon fill="#F8F7FA" points="330.79,362.313 329.49,363.288 329.49,272.641 330.79,271.341 							"/>
						</g>
					</g>
					<g>
						<rect x="342.455" y="270.646" fill="#7C6E70" width="38.299" height="90.81"/>
						<path fill="#5F5453" d="M380.754,277.895v-7.249h-38.299v16.923C351.238,282.117,367.017,273.88,380.754,277.895z"/>
					</g>
					<path fill="#5F5453" d="M381.167,361.946h-39.598v-92.109h39.598V361.946z M342.868,360.646h36.999v-89.51h-36.999V360.646z"/>
					<g>
						
							<rect x="314.491" y="315.645" transform="matrix(-0.0025 -1 1 -0.0025 46.0886 678.5638)" fill="#F8F7FA" width="93.976" height="1.3"/>
					</g>
				</g>
				<g>
					<g>
						<polygon fill="#F8F7FA" stroke="#848484" stroke-miterlimit="10" points="320.868,391.909 320.868,375.177 334.189,371.765 
							386.66,371.765 401.443,373.228 402.256,391.097 385.686,397.595 334.514,396.783 						"/>
						<polygon fill="#DED7D0" points="337.687,372.339 334.113,396.219 321.209,392.031 320.868,375.507 334.52,372.339 						"/>
					</g>
					<g>
						<path fill="#B4B1AC" d="M381.339,393.792l-44.382-0.671l2.021-17.046h41.484L381.339,393.792z M338.418,391.844l41.554,0.628
							l-0.748-15.098h-39.091L338.418,391.844z"/>
					</g>
					<g>
						<path fill="#B4B1AC" d="M386.392,393.186l-1.069-17.816l13.852,1.079v12.776L386.392,393.186z M386.71,376.781l0.88,14.674
							l10.285-3.187v-10.616L386.71,376.781z"/>
					</g>
					<g>
						<path fill="#B4B1AC" d="M375.782,391.547l-35.024-2.031l1.486-10.03h33.538V391.547z M342.252,388.301l32.23,1.868v-9.383
							h-31.117L342.252,388.301z"/>
					</g>
					<g>
						<path fill="#B4B1AC" d="M332.936,392.368l-11.25-3.128v-11.941l13.937-1.991L332.936,392.368z M322.986,388.253l8.893,2.474
							l2.187-13.883l-11.08,1.583L322.986,388.253L322.986,388.253z"/>
					</g>
				</g>
				<polygon fill="#F8F7FA" stroke="#848484" stroke-miterlimit="10" points="320.126,376.351 320.126,375.579 320.126,372.647 
					334.941,366.855 386.178,366.618 402.256,371.484 402.256,374.613 386.332,371.484 336.176,372.184 				"/>
			</g>
			<polyline fill="#DED7D0" points="337.687,371.484 338.689,367.357 335.623,367.357 320.868,372.88 320.868,375.507 
				335.623,371.464 336.957,371.432 			"/>
		</g>
		<path fill="#F8F7FA" stroke="#848484" stroke-width="0.75" stroke-miterlimit="10" d="M356.938,416.437h16.238
			c0,0-2.297,4.839-7.723,4.839S356.938,417.628,356.938,416.437z"/>
		<circle fill="#F8F7FA" stroke="#848484" stroke-width="0.75" stroke-miterlimit="10" cx="365.058" cy="423.605" r="2.328"/>
	</g>
	<polygon fill="#EEE3C9" points="280.814,122.817 436.866,122.817 434.925,131.533 282.153,131.534 	"/>
	<polygon opacity="0.3" fill="#9B7861" enable-background="new    " points="284.026,127.041 433.296,127.474 433.296,130.29 
		286.543,130.29 	"/>
</g>
<g>
	<polyline fill="#494042" points="562.264,77.688 558.484,58.032 604.6,58.032 604.6,81.468 558.484,81.468 	"/>
	<path fill="#9D949A" d="M456.8,195.606c0,0,61.519-82.008,72.103-110.736l-6.048-3.78l1.512-11.34h145.152v8.316
		c0,0,27.114,90.096,60.378,116.556L456.8,195.606z"/>
	<polyline fill="#494042" points="573.982,58.032 573.037,29.493 586.172,29.493 586.172,62.757 	"/>
	<g>
		<defs>
			<path id="SVGID_5_" d="M456.8,195.606c0,0,61.519-82.008,72.103-110.736l-6.048-3.78l1.512-11.34h145.152v8.316
				c0,0,27.114,90.096,60.378,116.556L456.8,195.606z"/>
		</defs>
		<clipPath id="SVGID_6_">
			<use xlink:href="#SVGID_5_"  overflow="visible"/>
		</clipPath>
		<g clip-path="url(#SVGID_6_)">
			<path fill="#7C757A" d="M837.021,204.325l0.451-0.28l-5.871-9.476l30.049,0.249l0.008-1.062l-47.959-0.397l-3.987-11.01
				l13.973,0.193l0.001,0.002l0.004-0.002l32.408,0.448l0.015-1.062l-31.714-0.439l-5.543-13.36l33.733,0.45l0.014-1.062
				l-113.825-1.52l-0.028-0.082l-0.234,0.079l-189.572-2.531l-0.041-0.149l-0.513,0.141l-119.765-1.599l-0.014,1.062l39.719,0.53
				l-0.438,13.108l-39.267-0.543l-0.014,1.062l39.768,0.55l0.539,0.018l0-0.01l18.922,0.262l2.902,12.789l-62.12-0.514l-0.008,1.062
				l62.37,0.517l0.028,0.122l0.519-0.118l18.683,0.155l1.532,12.418h-46.569l-1.785-12.647l-1.051,0.149l1.764,12.498h-35.486v1.062
				h83.258l0.008,0.065l0.527-0.065h87.668l0.018,0.097l0.522-0.097h37.207l0.041,0.145l0.511-0.145h43.529l0.057,0.169l0.503-0.169
				h75.04l0.12,0.238l0.474-0.238h107.202v-1.062H837.021z M812.568,193.35l-40.82-0.338l-2.31-11.22l18.461,0.255l0.187,0.294
				l0.447-0.285l20.611,0.285l-0.498,0.18L812.568,193.35z M614.229,179.645l12.684,0.175l0.031,0.13l0.517-0.123l22.502,0.311
				l3.061,11.889l-36.628-0.303l0.388-0.083L614.229,179.645z M578.576,191.412l-43.499-0.36l-2.973-12.543l44.127,0.611
				l-0.516,0.121L578.576,191.412z M576.778,179.126l36.362,0.503l2.575,12.09l-36.047-0.299L576.778,179.126z M651.065,180.154
				l45.67,0.632l3.84,11.636l-46.451-0.385L651.065,180.154z M697.857,180.802l6.474,0.09l0.044,0.154l0.51-0.146l26.853,0.372
				l-0.489,0.202l4.637,11.242l-34.191-0.283L697.857,180.802z M732.316,181.278l36.578,0.506l-0.518,0.107l2.288,11.112
				l-33.626-0.278L732.316,181.278z M818.277,168.123l-0.49,0.203l5.456,13.149l-34.755-0.481l-8.511-13.383L818.277,168.123z
				 M779.342,167.603l-0.448,0.285l8.324,13.088l-43.597-0.603l-4.484-13.307L779.342,167.603z M738.012,167.051l4.484,13.307
				l-37.362-0.517l-3.805-13.279L738.012,167.051z M700.22,166.546l3.805,13.279l-6.52-0.09l-0.024-0.073l-0.212,0.07l-27.286-0.378
				l0.506-0.162l-4.196-13.099L700.22,166.546z M665.734,166.086l-0.507,0.162l4.195,13.098l-18.632-0.258l-0.036-0.14l-0.512,0.132
				l-22.486-0.311l-3.128-13.233L665.734,166.086z M623.533,165.522l3.128,13.232l-37.508-0.519l0.526-0.086l-2.137-13.016
				l-1.047,0.172l2.122,12.923l-36.301-0.502l0.511-0.141l-3.59-13.055L623.533,165.522z M548.131,164.516l3.631,13.203
				l-39.069-0.541l-3.315-13.18L548.131,164.516z M468.954,176.573l0.438-13.098l-0.513-0.017l39.948,0.533l-0.515,0.13
				l3.281,13.042L468.954,176.573z M491.832,190.693l-2.901-12.783l22.93,0.317l0.034,0.137l0.514-0.129l19.147,0.265l-0.517,0.122
				l2.944,12.419L491.832,190.693z M557.798,204.325l0.523-0.093l-2.123-11.831l-1.045,0.187l2.107,11.738h-44.444l-1.531-12.409
				l67.542,0.559l0.03,0.126l0.515-0.121l18.332,0.152l2.179,11.693H557.798z M600.961,204.325l-2.177-11.684l36.06,0.299
				l-0.51,0.145l3.191,11.241H600.961z M638.629,204.325l-3.231-11.381l42.999,0.356l-0.502,0.169l3.655,10.856H638.629z
				 M682.669,204.325l-3.71-11.02l21.967,0.182l0.057,0.171l0.505-0.166l10.524,0.087l-0.507,0.16l3.33,10.587H682.669z
				 M758.16,204.325l-5.237-10.387l-0.948,0.477l4.996,9.91h-41.026l-3.379-10.742l58.315,0.483l0.023,0.111l0.518-0.106
				l16.76,0.139l-0.441,0.294l6.564,9.822H758.16z M795.582,204.325l-6.757-10.111l42.707,0.354l-0.853,0.529l5.717,9.228H795.582z"
				/>
			<path fill="#7C757A" d="M813.354,156.686l0.451-0.28l-5.871-9.476l30.049,0.249l0.008-1.062l-47.959-0.397l-3.987-11.01
				l13.973,0.193l0.001,0.002l0.004-0.002l32.408,0.448l0.015-1.062l-31.714-0.439l-5.543-13.36l33.733,0.45l0.015-1.062
				l-113.825-1.52l-0.028-0.082l-0.234,0.079l-189.572-2.531l-0.041-0.149l-0.513,0.141l-119.765-1.599l-0.015,1.062l39.719,0.53
				l-0.438,13.108l-39.267-0.543l-0.015,1.062l39.768,0.55l0.539,0.018l0-0.01l18.922,0.262l2.902,12.789l-62.12-0.514l-0.008,1.062
				l62.37,0.517l0.028,0.122l0.519-0.118l18.683,0.155l1.532,12.418H441.51l-1.785-12.647l-1.051,0.149l1.764,12.498h-35.486v1.062
				h83.258l0.008,0.065l0.527-0.065h87.668l0.018,0.097l0.522-0.097h37.207l0.041,0.145l0.511-0.145h43.529l0.057,0.169l0.503-0.169
				h75.04l0.12,0.238l0.474-0.238h107.202v-1.062H813.354z M788.901,145.71l-40.82-0.338l-2.31-11.22l18.462,0.255l0.187,0.294
				l0.447-0.285l20.611,0.285l-0.498,0.18L788.901,145.71z M590.563,132.005l12.684,0.175l0.031,0.13l0.517-0.123l22.502,0.311
				l3.061,11.889l-36.628-0.303l0.388-0.083L590.563,132.005z M554.909,143.772l-43.499-0.36l-2.973-12.543l44.127,0.611
				l-0.516,0.121L554.909,143.772z M553.111,131.487l36.362,0.503l2.575,12.09l-36.047-0.299L553.111,131.487z M627.398,132.514
				l45.67,0.632l3.84,11.636l-46.45-0.385L627.398,132.514z M674.19,133.162l6.474,0.09l0.044,0.154l0.51-0.146l26.853,0.372
				l-0.489,0.202l4.637,11.242l-34.191-0.283L674.19,133.162z M708.65,133.639l36.578,0.506l-0.518,0.107l2.288,11.112
				l-33.626-0.278L708.65,133.639z M794.611,120.483l-0.49,0.203l5.456,13.149l-34.755-0.481l-8.511-13.383L794.611,120.483z
				 M755.675,119.963l-0.448,0.285l8.324,13.088l-43.597-0.603l-4.484-13.307L755.675,119.963z M714.345,119.411l4.484,13.307
				l-37.362-0.517l-3.805-13.279L714.345,119.411z M676.553,118.906l3.805,13.279l-6.52-0.09l-0.024-0.073l-0.212,0.07
				l-27.286-0.378l0.506-0.162l-4.196-13.099L676.553,118.906z M642.068,118.446l-0.507,0.162l4.195,13.098l-18.632-0.258
				l-0.036-0.14l-0.512,0.132l-22.486-0.311l-3.128-13.233L642.068,118.446z M599.867,117.883l3.128,13.232l-37.508-0.519
				l0.526-0.086l-2.137-13.016l-1.047,0.172l2.122,12.923l-36.301-0.502l0.511-0.141l-3.59-13.055L599.867,117.883z
				 M524.465,116.876l3.631,13.203l-39.069-0.541l-3.315-13.18L524.465,116.876z M445.288,128.933l0.438-13.098l-0.513-0.017
				l39.948,0.533l-0.515,0.13l3.281,13.042L445.288,128.933z M468.166,143.054l-2.901-12.783l22.93,0.317l0.034,0.137l0.514-0.129
				l19.147,0.265l-0.517,0.122l2.944,12.419L468.166,143.054z M534.131,156.686l0.523-0.093l-2.123-11.831l-1.045,0.187
				l2.107,11.738h-44.444l-1.531-12.409l67.542,0.559l0.03,0.126l0.515-0.121l18.332,0.152l2.179,11.693H534.131z M577.294,156.686
				l-2.177-11.684l36.06,0.299l-0.51,0.145l3.191,11.241H577.294z M614.962,156.686l-3.231-11.381l42.999,0.356l-0.502,0.169
				l3.655,10.856H614.962z M659.003,156.686l-3.71-11.02l21.967,0.182l0.056,0.171l0.505-0.166l10.523,0.087l-0.507,0.16
				l3.33,10.587H659.003z M734.494,156.686l-5.237-10.387l-0.948,0.477l4.996,9.91h-41.026l-3.379-10.742l58.315,0.483l0.023,0.111
				l0.518-0.106l16.76,0.139l-0.441,0.294l6.564,9.822H734.494z M771.916,156.686l-6.757-10.111l42.707,0.354l-0.853,0.529
				l5.717,9.228H771.916z"/>
			<path fill="#7C757A" d="M802.295,107.29l0.451-0.28l-5.871-9.476l30.049,0.249l0.008-1.062l-47.959-0.397l-3.987-11.01
				l13.973,0.193l0.001,0.002l0.004-0.002l32.408,0.448l0.015-1.062l-31.714-0.439l-5.543-13.36l33.733,0.45l0.014-1.062
				l-113.825-1.52l-0.028-0.082l-0.234,0.079l-189.572-2.531l-0.041-0.149l-0.513,0.141l-119.765-1.599l-0.015,1.062l39.719,0.53
				l-0.438,13.108l-39.267-0.543l-0.015,1.062l39.768,0.55l0.539,0.018l0-0.01l18.922,0.262l2.902,12.789l-62.12-0.514l-0.008,1.062
				l62.37,0.517l0.028,0.122l0.519-0.118l18.683,0.155l1.532,12.418h-46.569l-1.785-12.647l-1.051,0.149l1.764,12.498h-35.486v1.062
				h83.258l0.008,0.065l0.527-0.065h87.668l0.018,0.097l0.522-0.097H603.1l0.041,0.145l0.511-0.145h43.529l0.057,0.169l0.503-0.169
				h75.04l0.12,0.238l0.474-0.238h107.202v-1.062H802.295z M777.842,96.314l-40.82-0.338l-2.31-11.22l18.462,0.255l0.187,0.294
				l0.447-0.285l20.611,0.285l-0.498,0.18L777.842,96.314z M579.504,82.609l12.684,0.175l0.031,0.13l0.517-0.123l22.502,0.311
				l3.061,11.889l-36.628-0.303l0.388-0.083L579.504,82.609z M543.85,94.376l-43.499-0.36l-2.973-12.543l44.127,0.611l-0.516,0.121
				L543.85,94.376z M542.052,82.091l36.362,0.503l2.575,12.09l-36.047-0.299L542.052,82.091z M616.339,83.119l45.67,0.632
				l3.84,11.636l-46.45-0.385L616.339,83.119z M663.131,83.766l6.474,0.09l0.044,0.154l0.51-0.146l26.853,0.372l-0.489,0.202
				l4.637,11.242l-34.191-0.283L663.131,83.766z M697.59,84.243l36.578,0.506l-0.518,0.107l2.288,11.112l-33.626-0.278
				L697.59,84.243z M783.551,71.087l-0.49,0.203l5.456,13.149l-34.755-0.481l-8.511-13.383L783.551,71.087z M744.616,70.567
				l-0.448,0.285l8.324,13.088l-43.597-0.603l-4.484-13.307L744.616,70.567z M703.286,70.015l4.484,13.307l-37.362-0.517
				l-3.805-13.279L703.286,70.015z M665.494,69.511l3.805,13.279l-6.52-0.09l-0.024-0.073l-0.212,0.07l-27.286-0.378l0.506-0.162
				l-4.196-13.099L665.494,69.511z M631.008,69.05l-0.507,0.162l4.195,13.098l-18.632-0.258l-0.036-0.14l-0.512,0.132l-22.486-0.311
				l-3.128-13.233L631.008,69.05z M588.808,68.487l3.128,13.232L554.428,81.2l0.526-0.086l-2.137-13.016l-1.047,0.172l2.122,12.923
				l-36.301-0.502l0.511-0.141l-3.59-13.055L588.808,68.487z M513.406,67.48l3.631,13.203l-39.069-0.541l-3.315-13.18L513.406,67.48
				z M434.228,79.537l0.438-13.098l-0.513-0.017l39.948,0.533l-0.515,0.13l3.281,13.042L434.228,79.537z M457.107,93.658
				l-2.901-12.783l22.93,0.317l0.034,0.137l0.514-0.129l19.147,0.265l-0.517,0.122l2.944,12.419L457.107,93.658z M523.072,107.29
				l0.523-0.093l-2.123-11.831l-1.045,0.187l2.107,11.738h-44.444l-1.531-12.409L544.1,95.44l0.03,0.126l0.515-0.121l18.332,0.152
				l2.179,11.693H523.072z M566.235,107.29l-2.177-11.684l36.06,0.299l-0.51,0.145l3.191,11.241H566.235z M603.903,107.29
				l-3.231-11.381l42.999,0.356l-0.502,0.169l3.655,10.856H603.903z M647.943,107.29l-3.71-11.02l21.967,0.182l0.057,0.171
				l0.505-0.166l10.524,0.087l-0.507,0.16l3.33,10.587H647.943z M723.435,107.29l-5.237-10.387l-0.948,0.477l4.996,9.91H681.22
				l-3.379-10.742l58.315,0.483l0.023,0.111l0.518-0.106l16.76,0.139l-0.441,0.294l6.564,9.822H723.435z M760.857,107.29
				L754.1,97.179l42.707,0.354l-0.853,0.529l5.717,9.228H760.857z"/>
		</g>
	</g>
	<g>
		<g>
			<polygon fill="#A8C1CD" points="473.812,560.393 468.52,210.932 733.253,204.128 724.226,560.204 			"/>
			<g>
				<g>
					<path fill="#7DA1AF" d="M585.227,257.407l0.945-6.804l-4.536-1.134c-3.155-9.959-11.507-15.134-18.774-17.806
						c-9.121-4.755-23.538-0.451-23.538-0.451c-7.539,2.524-16.716,7.705-20.059,18.257l-4.536,1.134l0.945,6.804h10.395v51.597
						h-4.914l4.914,14.742h47.817l4.725-14.742h-3.78v-51.597L585.227,257.407L585.227,257.407z"/>
					<g>
						<path fill="#F8F7FA" stroke="#848484" stroke-miterlimit="10" d="M558.232,230.151c7.267,2.672,15.618,7.847,18.774,17.806
							l4.536,1.134l-0.945,6.804h-10.395v-7.182c0,0-7.371-12.852-24.381-12.663c-17.01-0.189-24.381,12.663-24.381,12.663v7.182
							h-10.395l-0.945-6.804l4.536-1.134c3.343-10.552,12.52-15.733,20.059-18.257C534.695,229.7,549.112,225.396,558.232,230.151z"
							/>
						<path fill="#796845" d="M523.897,305.98v-56.511c0,0,5.103-14.175,22.302-12.474s21.546,9.45,21.546,9.45l-1.512,61.047
							L523.897,305.98z"/>
						<path opacity="0.4" fill="#534933" enable-background="new    " d="M546.199,236.995c-4.537-0.449-8.225,0.213-11.207,1.422
							l3.08,2.358c0,0,13.986,4.347,17.199,10.962V307.1l10.962,0.391l1.512-61.047
							C567.745,246.445,563.398,238.696,546.199,236.995z"/>
						<path fill="#F8F7FA" stroke="#848484" stroke-miterlimit="10" d="M545.821,236.05v71.442h24.381v-58.779
							C570.202,248.713,562.453,234.727,545.821,236.05z M565.477,250.092v13.741H549.79v-22.491
							C560.752,242.098,565.477,250.092,565.477,250.092z M549.79,266.857h15.687v17.955H549.79V266.857z M549.79,303.712v-16.065
							h15.687v16.065H549.79z"/>
						<path fill="#F8F7FA" stroke="#848484" stroke-miterlimit="10" d="M521.44,248.713v58.779h24.381V236.05
							C529.189,234.727,521.44,248.713,521.44,248.713z M541.852,241.342v22.491h-15.687v-13.741
							C526.165,250.092,530.89,242.098,541.852,241.342z M541.852,284.812h-15.687v-17.955h15.687V284.812z M526.165,303.712
							v-16.065h15.687v16.065H526.165z"/>
						<polygon fill="#F8F7FA" stroke="#848484" stroke-miterlimit="10" points="516.526,307.492 573.982,307.492 569.257,322.234 
							521.44,322.234 						"/>
					</g>
				</g>
				<g>
					<path fill="#7DA1AF" d="M682.184,257.407l0.945-6.804l-4.536-1.134c-3.155-9.959-11.507-15.134-18.774-17.806
						c-9.121-4.755-23.538-0.451-23.538-0.451c-7.539,2.524-16.716,7.705-20.059,18.257l-4.536,1.134l0.945,6.804h10.395v51.597
						h-4.914l4.914,14.742h47.817l4.725-14.742h-3.78v-51.597L682.184,257.407L682.184,257.407z"/>
					<g>
						<path fill="#F8F7FA" stroke="#848484" stroke-miterlimit="10" d="M655.189,230.151c7.267,2.672,15.618,7.847,18.774,17.806
							l4.536,1.134l-0.945,6.804h-10.395v-7.182c0,0-7.371-12.852-24.381-12.663c-17.01-0.189-24.381,12.663-24.381,12.663v7.182
							h-10.395l-0.945-6.804l4.536-1.134c3.343-10.552,12.52-15.733,20.059-18.257C631.652,229.7,646.069,225.396,655.189,230.151z"
							/>
						<path fill="#796845" d="M620.854,305.98v-56.511c0,0,5.103-14.175,22.302-12.474s21.546,9.45,21.546,9.45l-1.512,61.047
							L620.854,305.98z"/>
						<path opacity="0.4" fill="#534933" enable-background="new    " d="M643.156,236.995c-4.537-0.449-8.225,0.213-11.207,1.422
							l3.08,2.358c0,0,13.986,4.347,17.199,10.962V307.1l10.962,0.391l1.512-61.047
							C664.702,246.445,660.355,238.696,643.156,236.995z"/>
						<path fill="#F8F7FA" stroke="#848484" stroke-miterlimit="10" d="M642.778,236.05v71.442h24.381v-58.779
							C667.159,248.713,659.41,234.727,642.778,236.05z M662.434,250.092v13.741h-15.687v-22.491
							C657.709,242.098,662.434,250.092,662.434,250.092z M646.747,266.857h15.687v17.955h-15.687V266.857z M646.747,303.712
							v-16.065h15.687v16.065H646.747z"/>
						<path fill="#F8F7FA" stroke="#848484" stroke-miterlimit="10" d="M618.397,248.713v58.779h24.381V236.05
							C626.146,234.727,618.397,248.713,618.397,248.713z M638.809,241.342v22.491h-15.687v-13.741
							C623.122,250.092,627.847,242.098,638.809,241.342z M638.809,284.812h-15.687v-17.955h15.687V284.812z M623.122,303.712
							v-16.065h15.687v16.065H623.122z"/>
						<polygon fill="#F8F7FA" stroke="#848484" stroke-miterlimit="10" points="613.483,307.492 670.939,307.492 666.214,322.234 
							618.397,322.234 						"/>
					</g>
				</g>
				<g>
					<path fill="#7DA1AF" d="M584.282,373.743l0.945-6.804l-4.536-1.134c-3.155-9.959-11.507-15.134-18.774-17.806
						c-9.121-4.755-23.538-0.451-23.538-0.451c-7.539,2.524-16.716,7.705-20.059,18.257l-4.536,1.134l0.945,6.804h10.395v51.597
						h-4.914l4.914,14.742h47.817l4.725-14.742h-3.78v-51.597L584.282,373.743L584.282,373.743z"/>
					<g>
						<path fill="#F8F7FA" stroke="#848484" stroke-miterlimit="10" d="M557.287,346.487c7.267,2.672,15.618,7.847,18.774,17.806
							l4.536,1.134l-0.945,6.804h-10.395v-7.182c0,0-7.371-12.852-24.381-12.663c-17.01-0.189-24.381,12.663-24.381,12.663v7.182
							H510.1l-0.945-6.804l4.536-1.134c3.343-10.552,12.52-15.733,20.059-18.257C533.75,346.036,548.167,341.732,557.287,346.487z"
							/>
						<path fill="#796845" d="M522.952,422.316v-56.511c0,0,5.103-14.175,22.302-12.474s21.546,9.45,21.546,9.45l-1.512,61.047
							L522.952,422.316z"/>
						<path opacity="0.4" fill="#534933" enable-background="new    " d="M545.254,353.331c-4.537-0.449-8.225,0.213-11.207,1.422
							l3.08,2.358c0,0,13.986,4.347,17.199,10.962v55.364l10.962,0.391l1.512-61.047C566.8,362.781,562.453,355.032,545.254,353.331
							z"/>
						<path fill="#F8F7FA" stroke="#848484" stroke-miterlimit="10" d="M544.876,352.386v71.442h24.381v-58.779
							C569.257,365.049,561.508,351.063,544.876,352.386z M564.532,366.428v13.741h-15.687v-22.491
							C559.807,358.434,564.532,366.428,564.532,366.428z M548.845,383.193h15.687v17.955h-15.687V383.193z M548.845,420.048
							v-16.065h15.687v16.065H548.845z"/>
						<path fill="#F8F7FA" stroke="#848484" stroke-miterlimit="10" d="M520.495,365.049v58.779h24.381v-71.442
							C528.244,351.063,520.495,365.049,520.495,365.049z M540.907,357.678v22.491H525.22v-13.741
							C525.22,366.428,529.945,358.434,540.907,357.678z M540.907,401.148H525.22v-17.955h15.687V401.148z M525.22,420.048v-16.065
							h15.687v16.065H525.22z"/>
						<polygon fill="#F8F7FA" stroke="#848484" stroke-miterlimit="10" points="515.581,423.828 573.037,423.828 568.312,438.57 
							520.495,438.57 						"/>
					</g>
				</g>
				<g>
					<path fill="#7DA1AF" d="M681.239,373.743l0.945-6.804l-4.536-1.134c-3.155-9.959-11.507-15.134-18.774-17.806
						c-9.121-4.755-23.538-0.451-23.538-0.451c-7.539,2.524-16.716,7.705-20.059,18.257l-4.536,1.134l0.945,6.804h10.395v51.597
						h-4.914l4.914,14.742h47.817l4.725-14.742h-3.78v-51.597L681.239,373.743L681.239,373.743z"/>
					<g>
						<path fill="#F8F7FA" stroke="#848484" stroke-miterlimit="10" d="M654.244,346.487c7.267,2.672,15.618,7.847,18.774,17.806
							l4.536,1.134l-0.945,6.804h-10.395v-7.182c0,0-7.371-12.852-24.381-12.663c-17.01-0.189-24.381,12.663-24.381,12.663v7.182
							h-10.395l-0.945-6.804l4.536-1.134c3.343-10.552,12.52-15.733,20.059-18.257C630.707,346.036,645.124,341.732,654.244,346.487
							z"/>
						<path fill="#796845" d="M619.909,422.316v-56.511c0,0,5.103-14.175,22.302-12.474s21.546,9.45,21.546,9.45l-1.512,61.047
							L619.909,422.316z"/>
						<path opacity="0.4" fill="#534933" enable-background="new    " d="M642.211,353.331c-4.537-0.449-8.225,0.213-11.207,1.422
							l3.08,2.358c0,0,13.986,4.347,17.199,10.962v55.364l10.962,0.391l1.512-61.047
							C663.757,362.781,659.41,355.032,642.211,353.331z"/>
						<path fill="#F8F7FA" stroke="#848484" stroke-miterlimit="10" d="M641.833,352.386v71.442h24.381v-58.779
							C666.214,365.049,658.465,351.063,641.833,352.386z M661.489,366.428v13.741h-15.687v-22.491
							C656.764,358.434,661.489,366.428,661.489,366.428z M645.802,383.193h15.687v17.955h-15.687V383.193z M645.802,420.048
							v-16.065h15.687v16.065H645.802z"/>
						<path fill="#F8F7FA" stroke="#848484" stroke-miterlimit="10" d="M617.452,365.049v58.779h24.381v-71.442
							C625.201,351.063,617.452,365.049,617.452,365.049z M637.864,357.678v22.491h-15.687v-13.741
							C622.177,366.428,626.902,358.434,637.864,357.678z M637.864,401.148h-15.687v-17.955h15.687V401.148z M622.177,420.048
							v-16.065h15.687v16.065H622.177z"/>
						<polygon fill="#F8F7FA" stroke="#848484" stroke-miterlimit="10" points="612.538,423.828 669.994,423.828 665.269,438.57 
							617.452,438.57 						"/>
					</g>
				</g>
			</g>
			<g>
				<g>
					<g>
						<path fill="#74675A" d="M526.39,562v-89.964c0,0,2.268-14.553,24.003-14.553c0,0,20.412,0.378,21.357,15.12
							S572.17,562,572.17,562H526.39z"/>
						<g>
							<ellipse fill="#9CA38B" cx="549.353" cy="472.792" rx="17.294" ry="10.206"/>
							<path fill="#6A775F" d="M566.592,472.155l-8.201-0.083c-0.505-2.607-3.931-4.58-8.282-4.705v-4.78h-1.512v4.81
								c-3.947,0.284-7.007,2.109-7.598,4.5l-9.077-0.092l-0.015,1.512l9.049,0.091c0.48,2.478,3.597,4.385,7.641,4.676v4.914h1.512
								v-4.885c4.252-0.122,7.617-2.011,8.24-4.53l8.223,0.083L566.592,472.155z M556.816,472.056l-6.707-0.068v-3.099
								C553.423,469.002,556.214,470.345,556.816,472.056z M548.597,468.925v3.048l-6.014-0.061
								C543.239,470.38,545.659,469.171,548.597,468.925z M542.531,473.424l6.066,0.061v3.069
								C545.568,476.302,543.094,475.023,542.531,473.424z M550.109,476.59v-3.09l6.655,0.067
								C556.06,475.21,553.33,476.481,550.109,476.59z"/>
							<ellipse fill="#9CA38B" cx="549.673" cy="472.792" rx="7.17" ry="4.089"/>
						</g>
						<g>
							<path fill="#6A775F" d="M550.109,483.754l-2.268-0.05c-8.607-0.428-15.424-4.453-16.396-9.639l-0.301-0.004l0.03-3.023
								l0.359,0.004c1.291-4.998,7.944-8.749,16.309-9.162v-0.028l3.024-0.022v0.05c8.883,0.444,15.909,4.753,16.478,10.196
								c0.039,0.335,0.059,0.524,0.059,0.716c0,5.735-7.206,10.445-16.537,10.912v0.028L550.109,483.754z M532.67,472.572
								l0.128,0.001l0.059,0.681c0.417,4.812,7.339,8.75,15.759,8.966l0.737,0.019l0.737-0.019
								c8.712-0.223,15.801-4.453,15.801-9.428c0-0.134-0.017-0.266-0.033-0.397l-0.018-0.161c-0.499-4.76-7.418-8.657-15.75-8.87
								l-1.08-0.022l-0.394,0.022c-8.207,0.21-14.967,3.892-15.726,8.564l-0.105,0.644l-0.114-0.001L532.67,472.572L532.67,472.572z
								"/>
						</g>
						<path opacity="0.3" fill="#6A775F" enable-background="new    " d="M566.592,472.155c-0.35-3.338-3.421-6.231-7.914-7.935
							c-1.153,3.584-5.608,16.058-12.462,18.586c0.779,0.084,1.569,0.149,2.38,0.17v0.022h1.512v-0.022
							c8.702-0.223,15.73-4.23,16.463-9.309l0,0L566.592,472.155L566.592,472.155z"/>
						<g>
							<g>
								<path fill="#534338" d="M566.867,527.829h-14.986v-39.427l0.599-0.127c3.571-0.755,10.082-2.618,13.573-6.619l1.349-1.546
									L566.867,527.829z M553.393,526.317h11.978l0.475-42.326c-3.677,3.216-9.048,4.862-12.453,5.632V526.317z"/>
							</g>
							<g>
								<path fill="#534338" d="M564.076,522.315h-9.45v-26.779l0.695-0.056c0.045-0.004,4.527-0.399,7.505-2.969l1.25-1.078
									V522.315z M556.138,520.803h6.426v-26.215c-2.419,1.562-5.164,2.126-6.426,2.314V520.803z"/>
							</g>
						</g>
						<g>
							<g>
								<path fill="#534338" d="M531.907,480.109l1.349,1.546c3.491,4.001,10.001,5.865,13.573,6.619l0.599,0.127v39.427h-14.986
									L531.907,480.109z M545.915,489.623c-3.405-0.769-8.776-2.416-12.453-5.632l0.475,42.326h11.978V489.623z"/>
							</g>
							<g>
								<path fill="#534338" d="M535.233,491.433l1.25,1.078c2.978,2.571,7.46,2.965,7.505,2.969l0.695,0.056v26.779h-9.45V491.433z
									 M543.171,496.902c-1.262-0.188-4.007-0.752-6.426-2.314v26.215h6.426V496.902z"/>
							</g>
						</g>
						<g>
							<path fill="#534338" d="M532.172,556.659v-27.356h34.523v26.698L532.172,556.659z M533.684,530.815v24.303l31.5-0.599
								v-23.703L533.684,530.815L533.684,530.815z"/>
						</g>
						<g>
							<path fill="#534338" d="M562.257,551.806h-26.683v-19.353h27.369L562.257,551.806z M537.086,550.294h23.712l0.578-16.329
								h-24.29V550.294z"/>
						</g>
					</g>
					<path opacity="0.4" fill="#534338" enable-background="new    " d="M571.75,472.603c-0.821-12.81-16.333-14.773-20.388-15.068
						c2.294,3.448,4.585,8.64,5.042,16.029c0.822,13.304,0.366,70.881,0.379,88.436h15.387
						C572.17,562,572.695,487.345,571.75,472.603z"/>
				</g>
				<path fill="#F8F7FA" stroke="#848484" stroke-miterlimit="10" d="M572.844,470.994c-0.818-12.759-15.296-16.394-22.866-16.535
					c-22.766,0-25.472,15.674-25.497,15.832L524.463,562h3.024v-3.024v-36.137v-52.178c0.245-1.196,3.195-13.178,22.463-13.178
					c0.19,0.003,19.03,0.505,19.876,13.705c0.48,7.479,0.577,30.743,0.558,51.651h0.16V562h2.713l0.01-1.502
					C573.289,557.448,573.782,485.622,572.844,470.994z"/>
			</g>
			<g>
				<rect x="618.02" y="498.682" fill="#F8F7FA" stroke="#848484" stroke-miterlimit="10" width="59.157" height="32.508"/>
				<path fill="#F8F7FA" stroke="#848484" stroke-miterlimit="10" d="M617.075,496.225v-26.082c0,0,15.687-11.151,31.374-9.828
					s29.295,10.773,29.295,10.773v25.137H617.075z"/>
				<g>
					<path fill="#858073" d="M624.257,490.744l-1.512-17.388c0,0,27.027-13.608,49.707,0.945v16.443H624.257z"/>
					<polyline fill="#858073" points="672.452,490.744 624.257,490.744 622.745,473.356 					"/>
					<path fill="#595346" d="M656.318,468.205c3.702,2.593,7.312,5.707,8.394,8.56c1.909,5.035,2.788,11.388,3.087,13.979h4.653
						v-16.443C667.177,470.916,661.669,469.068,656.318,468.205z"/>
				</g>
				<polygon fill="#F8F7FA" stroke="#848484" stroke-miterlimit="10" points="679.445,473.457 677.177,471.088 676.232,471.088 
					676.232,495.658 619.282,495.658 618.894,473.457 614.429,473.457 615.374,531.568 619.91,531.568 619.328,498.304 
					676.232,498.304 676.232,530.245 680.201,531.568 680.201,477.892 				"/>
				<path fill="#F8F7FA" stroke="#848484" stroke-miterlimit="10" d="M685.859,473.811c-14.553-17.199-34.587-17.577-34.587-17.577
					c-1.348-0.044-2.634-0.04-3.891-0.014c-1.257-0.026-2.543-0.03-3.891,0.014c0,0-20.034,0.378-34.587,17.577h-6.237l4.158,6.993
					h7.938v-5.103c0,0,13.23-13.041,31.563-12.852v0.068c0.414-0.025,0.754-0.038,1.056-0.049c0.302,0.01,0.642,0.024,1.056,0.049
					v-0.068C666.77,462.66,680,475.701,680,475.701v5.103h7.938l4.158-6.993H685.859z"/>
				<g>
					<rect x="622.745" y="503.974" fill="#858073" width="49.707" height="21.168"/>
					<path fill="#595346" d="M660.758,503.974c0.909,5.397,1.809,13.762,0.456,21.168h11.238v-21.168L660.758,503.974
						L660.758,503.974z"/>
				</g>
				<rect x="608.759" y="531.568" fill="#F8F7FA" stroke="#848484" stroke-miterlimit="10" width="75.789" height="5.292"/>
			</g>
		</g>
		<g>
			<polyline fill="#F8F7FA" stroke="#848484" stroke-miterlimit="10" points="472.3,560.393 467.008,210.932 483.514,210.932 
				487.042,560.393 474.946,560.205 			"/>
			<g>
				<rect x="467.008" y="210.933" fill="#F8F7FA" stroke="#848484" stroke-miterlimit="10" width="41.58" height="21.168"/>
				<rect x="468.046" y="279.505" fill="#F8F7FA" stroke="#848484" stroke-miterlimit="10" width="31.092" height="24.668"/>
				<rect x="469.275" y="360.645" fill="#F8F7FA" stroke="#848484" stroke-miterlimit="10" width="29.863" height="25.018"/>
				<rect x="470.168" y="419.585" fill="#F8F7FA" stroke="#848484" stroke-miterlimit="10" width="28.97" height="32.26"/>
				<rect x="471.406" y="501.328" fill="#F8F7FA" stroke="#848484" stroke-miterlimit="10" width="31.26" height="20.987"/>
			</g>
		</g>
		<g>
			<polyline fill="#F8F7FA" stroke="#848484" stroke-miterlimit="10" points="726.872,560.393 732.164,210.932 715.658,210.932 
				712.13,560.393 724.226,560.204 			"/>
			<g>
				<rect x="690.584" y="210.933" fill="#F8F7FA" stroke="#848484" stroke-miterlimit="10" width="41.58" height="21.168"/>
				<rect x="700.034" y="279.505" fill="#F8F7FA" stroke="#848484" stroke-miterlimit="10" width="31.092" height="24.668"/>
				<rect x="700.034" y="360.645" fill="#F8F7FA" stroke="#848484" stroke-miterlimit="10" width="29.863" height="25.018"/>
				<rect x="700.034" y="419.585" fill="#F8F7FA" stroke="#848484" stroke-miterlimit="10" width="28.97" height="32.26"/>
				<rect x="696.506" y="501.328" fill="#F8F7FA" stroke="#848484" stroke-miterlimit="10" width="31.26" height="20.987"/>
			</g>
		</g>
	</g>
	<path fill="#F8F7FA" stroke="#848484" stroke-miterlimit="10" d="M733.305,201.863c-0.025,0-0.051,0-0.077,0l-266.296,3.777
		c-2.922,0.041-5.257,2.445-5.216,5.367c0.041,2.897,2.402,5.217,5.29,5.217c0.025,0,0.051,0,0.077,0l266.296-3.777
		c2.922-0.041,5.257-2.445,5.216-5.367C738.554,204.183,736.193,201.863,733.305,201.863z"/>
	<polygon opacity="0.4" fill="#776E74" enable-background="new    " points="467.008,198.109 711.374,175.4 729.897,194.622 	"/>
	<polygon fill="#F8F7FA" stroke="#848484" stroke-miterlimit="10" points="461.716,209.044 456.046,193.544 738.596,187.497 
		733.228,201.863 	"/>
</g>
<path opacity="0.3" fill="#6D605E" enable-background="new    " d="M471.037,768.34l-0.096,0.638h160.842
	c-8.137-15.917-15.604-51.101-20.605-79.017C581.112,718.617,526.813,762.46,471.037,768.34z"/>
</svg>
