<?xml version="1.0" encoding="utf-8"?>
<!-- Generator: Adobe Illustrator 17.0.0, SVG Export Plug-In . SVG Version: 6.00 Build 0)  -->
<!DOCTYPE svg PUBLIC "-//W3C//DTD SVG 1.1//EN" "http://www.w3.org/Graphics/SVG/1.1/DTD/svg11.dtd">
<svg version="1.1" id="Layer_1" xmlns="http://www.w3.org/2000/svg" xmlns:xlink="http://www.w3.org/1999/xlink" x="0px" y="0px"
	 width="1800px" height="560px" viewBox="0 0 1800 560" enable-background="new 0 0 1800 560" xml:space="preserve">
<polygon fill="#3D4660" points="1495.674,-599.8 1595.355,-599.8 1596.322,-596.884 1493.836,-596.884 "/>
<rect x="3464.055" y="1875.813" fill="none" stroke="#5A5B57" stroke-miterlimit="10" width="17.214" height="6.25"/>
<g>
	<polygon fill="#615B4F" points="1232.174,325.217 984.5,325.217 1023.005,254.377 1232.174,254.377 	"/>
	<polygon opacity="0.3" fill="#4F493F" enable-background="new    " points="1195.528,295.177 1160.294,325.217 1232.174,325.217 
		1232.174,257.595 	"/>
	<g>
		<g>
			<g>
				<path fill="#FDECE2" stroke="#AFAAA9" stroke-miterlimit="10" d="M1174.528,513.62v-1v-72c0,0,3.4-8.4,16.4-8.4
					c0,0,13,0.8,16.4,9v71.6"/>
				<rect x="1168.328" y="512.02" fill="#FDECE2" stroke="#AFAAA9" stroke-miterlimit="10" width="44.4" height="7.2"/>
			</g>
			<polygon fill="#97A25E" points="1181.408,441.94 1181.408,452.14 1181.408,498.9 1181.408,509.1 1199.648,509.1 1199.648,498.9 
				1199.648,452.14 1199.648,441.94 			"/>
			<polygon opacity="0.5" fill="#70764B" enable-background="new    " points="1181.408,441.94 1181.408,447.22 1192.328,447.22 
				1197.928,509.1 1199.648,509.1 1199.648,498.9 1199.648,452.14 1199.648,441.94 			"/>
			<g>
				<path fill="#5E682D" d="M1200.248,509.699h-19.44v-68.36h19.44V509.699z M1182.008,508.499h17.04v-65.96h-17.04V508.499z"/>
			</g>
			<g>
				<rect x="1181.328" y="456.97" fill="#5E682D" width="18.92" height="1.2"/>
			</g>
			<g>
				<rect x="1181.628" y="474.22" fill="#5E682D" width="18.15" height="1.2"/>
			</g>
			<g>
				<rect x="1181.478" y="490.72" fill="#5E682D" width="18.3" height="1.2"/>
			</g>
			<line fill="none" stroke="#5E682D" stroke-miterlimit="10" x1="1190.528" y1="441.94" x2="1190.528" y2="509.1"/>
		</g>
		<path fill="#FDECE2" stroke="#AFAAA9" stroke-miterlimit="10" d="M1174.14,441.339h-0.457h-3.968l0.534-3.203l2.766-0.122
			c0,0,8.325-7.025,18.675-6.65c0,0,7.8-0.225,15.15,6.825l3.075,0.15l1.425,3h-5.012c0,0-5.637-7.95-16.287-7.425
			C1190.04,433.914,1179.24,434.289,1174.14,441.339z"/>
	</g>
	<g>
		<polygon fill="#9DB1B1" points="1232.174,559.777 1080.974,559.777 1080.974,409.528 1080.974,302.121 1232.174,302.121 		"/>
		<path opacity="0.4" fill="#768381" enable-background="new    " d="M1107.974,417.977l-4.728,1.713
			c0,0-16.672,5.128-15.072,12.808c1.169,5.612,8.674,11.391,12.633,14.098l2.44,106.854h2.087V434.844L1107.974,417.977z"/>
		<rect x="1080.974" y="393.777" opacity="0.4" fill="#768381" enable-background="new    " width="151.2" height="18.45"/>
		<g>
			<g>
				<g>
					<rect x="1106.145" y="431.55" fill="#82847F" width="28" height="124"/>
					<g>
						<g>
							<path fill="#5B5B58" d="M1131.139,485.15h-0.6c-4.301,0-7.8-3.499-7.8-7.8V434.9h8.4V485.15z M1123.939,436.1v41.25
								c0,3.437,2.64,6.27,6,6.573V436.1H1123.939z"/>
						</g>
						<rect x="1125.789" y="437.85" fill="none" stroke="#5B5B58" stroke-miterlimit="10" width="2.3" height="39.8"/>
					</g>
					<g>
						<g>
							<path fill="#5B5B58" d="M1110.264,434.9h8.4v42.45c0,4.301-3.499,7.8-7.8,7.8h-0.6V434.9z M1111.464,436.1v47.823
								c3.36-0.304,6-3.136,6-6.573V436.1H1111.464z"/>
						</g>
						<rect x="1113.314" y="437.85" fill="none" stroke="#5B5B58" stroke-miterlimit="10" width="2.3" height="39.8"/>
					</g>
					<path fill="none" stroke="#5B5B58" stroke-miterlimit="10" d="M1126.667,487.55c0.002,0.063,0.019,0.122,0.019,0.185
						c0,3.211-2.603,5.815-5.815,5.815c-3.211,0-5.814-2.603-5.814-5.815c0-0.063,0.017-0.122,0.019-0.185h-4.254v40.5h20.1v-40.5
						H1126.667z"/>
					<rect x="1114.464" y="496.1" fill="none" stroke="#5B5B58" stroke-miterlimit="10" width="13.625" height="28.5"/>
					<rect x="1110.264" y="533.15" fill="none" stroke="#5B5B58" stroke-miterlimit="10" width="20.657" height="7.5"/>
				</g>
				<polygon fill="#9DB1B1" points="1145.321,556.6 1145.321,552.85 1097.171,552.85 1097.171,556.6 1093.271,556.6 1093.271,564.4 
					1148.471,564.4 1148.471,556.6 				"/>
				<g>
					<path fill="#5B5B58" d="M1149.072,565h-56.4v-9h3.9v-3.75h49.35V556h3.15V565z M1093.872,563.8h54v-6.6h-3.15v-3.75h-46.95
						v3.75h-3.9V563.8z"/>
				</g>
				<polygon fill="#5B5B58" points="1107.192,552.25 1107.192,432.149 1133.992,432.149 1133.992,552.25 1135.192,552.25 
					1135.192,430.949 1105.992,430.949 1105.992,552.25 				"/>
				<g>
					<rect x="1093.272" y="556" fill="#5B5B58" width="55.2" height="1.2"/>
				</g>
			</g>
			<path opacity="0.4" fill="#5B5B58" enable-background="new    " d="M1124.814,521.8c-0.256,11.761-0.637,21.815-1.1,30.45h10.82
				V432.497h-29.2v10.784C1114.789,452.54,1125.86,473.669,1124.814,521.8z"/>
		</g>
		<rect x="1080.974" y="384.177" fill="#FDECE2" stroke="#AFAAA9" stroke-miterlimit="10" width="151.2" height="19.2"/>
		<rect x="1080.974" y="393.777" fill="#FDECE2" stroke="#AFAAA9" stroke-miterlimit="10" width="151.2" height="9.6"/>
		<g>
			<g>
				<g>
					<polygon fill="#FDECE2" stroke="#AFAAA9" stroke-miterlimit="10" points="1134.147,409.527 1141.947,431.877 1099.497,431.877 
						1106.097,410.427 					"/>
					<rect x="1103.247" y="403.377" fill="#FDECE2" stroke="#AFAAA9" stroke-miterlimit="10" width="35.25" height="8.85"/>
				</g>
				<path fill="#FDECE2" stroke="#AFAAA9" stroke-miterlimit="10" d="M1142.964,435.477c0,0,4.725-5.175,1.275-8.025
					c0,0-1.5,3.9-4.8,4.425c-1.431,0.228-8.683,0.258-16.439,0.219v-0.03c-0.761,0.006-1.527,0.011-2.294,0.016
					c-0.767-0.005-1.533-0.01-2.294-0.016v0.03c-7.757,0.039-15.009,0.009-16.439-0.219c-3.3-0.525-4.8-4.425-4.8-4.425
					c-3.45,2.85,1.275,8.025,1.275,8.025c-0.089,0.138-0.171,0.274-0.248,0.406c-2.914,5.039,2.498,5.894,2.498,5.894
					c1.8-3.75,3.15-3.975,3.15-3.975s9.016-0.567,16.859-0.658c7.842,0.091,16.858,0.658,16.858,0.658s1.35,0.225,3.15,3.975
					c0,0,5.412-0.854,2.498-5.894C1143.135,435.751,1143.052,435.615,1142.964,435.477z"/>
			</g>
			<polyline fill="#FDECE2" stroke="#AFAAA9" stroke-miterlimit="10" points="1106.174,427.452 1106.335,426.608 1107.974,417.977 
				1132.774,417.977 1135.374,427.452 			"/>
		</g>
		<path fill="#9DB1B1" d="M1228.359,412.227"/>
	</g>
	<path opacity="0.4" fill="#5E5E5E" enable-background="new    " d="M1212.328,514.614v-70.68h4.012l-1.425-3l-3.075-0.15
		c-7.35-7.05-15.15-6.825-15.15-6.825c-10.35-0.375-18.675,6.65-18.675,6.65l-2.766,0.122l-0.534,3.203h3.968h0.457
		c0.121-0.168,0.26-0.313,0.388-0.473v71.154h-6.2v7.2h44.4v-7.2h-5.4L1212.328,514.614L1212.328,514.614z"/>
	<polygon opacity="0.4" fill="#768381" enable-background="new    " points="1232.174,318.985 1232.174,311.377 1138.797,311.377 
		1131.139,308.577 1131.285,311.377 1080.974,311.377 1080.974,318.985 1131.684,318.985 1134.145,365.985 1153.374,365.985 
		1153.374,352.977 1147.548,352.977 1147.548,318.985 	"/>
	<circle opacity="0.4" fill="#768381" enable-background="new    " cx="1190.528" cy="346.371" r="23.911"/>
	<g>
		<g>
			<circle fill="#7C7F79" cx="1185.577" cy="342.574" r="17.356"/>
			<path fill="#FDECE2" stroke="#AFAAA9" stroke-miterlimit="10" d="M1162.098,342.109c0,13.206,10.705,23.911,23.911,23.911
				s23.911-10.705,23.911-23.911c0-13.206-10.705-23.911-23.911-23.911S1162.098,328.903,1162.098,342.109z M1169.984,342.109
				c0-8.85,7.175-16.025,16.025-16.025s16.025,7.175,16.025,16.025s-7.174,16.025-16.025,16.025
				C1177.159,358.134,1169.984,350.959,1169.984,342.109z"/>
		</g>
		<polygon fill="#5A5B57" points="1167.426,341.628 1185.529,341.628 1185.529,322.46 1186.489,322.46 1186.489,341.628 
			1206.306,341.628 1206.306,342.588 1186.489,342.588 1186.489,362.78 1185.529,362.78 1185.529,342.588 1167.426,342.588 		"/>
	</g>
	<rect x="1080.974" y="302.121" fill="#FDECE2" stroke="#AFAAA9" stroke-miterlimit="10" width="151.2" height="9.255"/>
	<g>
		<g>
			<g>
				<path fill="#FDECE2" stroke="#AFAAA9" stroke-miterlimit="10" d="M1109.348,360.385v-1v-72c0,0,3.4-8.4,16.4-8.4
					c0,0,13,0.8,16.4,9v71.6"/>
				<rect x="1103.148" y="358.785" fill="#FDECE2" stroke="#AFAAA9" stroke-miterlimit="10" width="44.4" height="7.2"/>
			</g>
			<polygon fill="#97A25E" points="1116.228,288.705 1116.228,298.905 1116.228,345.665 1116.228,355.865 1134.468,355.865 
				1134.468,345.665 1134.468,298.905 1134.468,288.705 			"/>
			<polygon opacity="0.5" fill="#70764B" enable-background="new    " points="1116.228,288.705 1116.228,293.985 1127.148,293.985 
				1132.748,355.865 1134.468,355.865 1134.468,345.665 1134.468,298.905 1134.468,288.705 			"/>
			<g>
				<path fill="#5E682D" d="M1135.068,356.464h-19.44v-68.36h19.44V356.464z M1116.828,355.264h17.04v-65.96h-17.04V355.264z"/>
			</g>
			<g>
				<rect x="1116.148" y="303.735" fill="#5E682D" width="18.92" height="1.2"/>
			</g>
			<g>
				<rect x="1116.448" y="320.985" fill="#5E682D" width="18.15" height="1.2"/>
			</g>
			<g>
				<rect x="1116.298" y="337.485" fill="#5E682D" width="18.3" height="1.2"/>
			</g>
			<line fill="none" stroke="#5E682D" stroke-miterlimit="10" x1="1125.348" y1="288.705" x2="1125.348" y2="355.865"/>
		</g>
		<path fill="#FDECE2" stroke="#AFAAA9" stroke-miterlimit="10" d="M1108.96,288.104h-0.457h-3.968l0.534-3.203l2.766-0.122
			c0,0,8.325-7.025,18.675-6.65c0,0,7.8-0.225,15.15,6.825l3.075,0.15l1.425,3h-5.012c0,0-5.637-7.95-16.287-7.425
			C1124.86,280.679,1114.06,281.054,1108.96,288.104z"/>
	</g>
	<g>
		<g>
			<g>
				<path fill="#FDECE2" stroke="#AFAAA9" stroke-miterlimit="10" d="M1174.528,513.62v-1v-72c0,0,3.4-8.4,16.4-8.4
					c0,0,13,0.8,16.4,9v71.6"/>
				<rect x="1168.328" y="512.02" fill="#FDECE2" stroke="#AFAAA9" stroke-miterlimit="10" width="44.4" height="7.2"/>
			</g>
			<polygon fill="#97A25E" points="1181.408,441.94 1181.408,452.14 1181.408,498.9 1181.408,509.1 1199.648,509.1 1199.648,498.9 
				1199.648,452.14 1199.648,441.94 			"/>
			<polygon opacity="0.5" fill="#70764B" enable-background="new    " points="1181.408,441.94 1181.408,447.22 1192.328,447.22 
				1197.928,509.1 1199.648,509.1 1199.648,498.9 1199.648,452.14 1199.648,441.94 			"/>
			<g>
				<path fill="#5E682D" d="M1200.248,509.699h-19.44v-68.36h19.44V509.699z M1182.008,508.499h17.04v-65.96h-17.04V508.499z"/>
			</g>
			<g>
				<rect x="1181.328" y="456.97" fill="#5E682D" width="18.92" height="1.2"/>
			</g>
			<g>
				<rect x="1181.628" y="474.22" fill="#5E682D" width="18.15" height="1.2"/>
			</g>
			<g>
				<rect x="1181.478" y="490.72" fill="#5E682D" width="18.3" height="1.2"/>
			</g>
			<line fill="none" stroke="#5E682D" stroke-miterlimit="10" x1="1190.528" y1="441.94" x2="1190.528" y2="509.1"/>
		</g>
		<path fill="#FDECE2" stroke="#AFAAA9" stroke-miterlimit="10" d="M1174.14,441.339h-0.457h-3.968l0.534-3.203l2.766-0.122
			c0,0,8.325-7.025,18.675-6.65c0,0,7.8-0.225,15.15,6.825l3.075,0.15l1.425,3h-5.012c0,0-5.637-7.95-16.287-7.425
			C1190.04,433.914,1179.24,434.289,1174.14,441.339z"/>
	</g>
	<g>
		<path fill="#4F493F" d="M1180.974,293.977c-0.164,0-0.327-0.067-0.445-0.198c-0.559-0.618-0.53-1.171-0.407-1.526
			c0.606-1.744,5.072-2.579,12.309-3.797c5.477-0.922,12.294-2.071,13.259-3.69c0.09-0.152,0.104-0.286,0.049-0.448
			c-0.743-2.159-13.152-1.563-23.128-1.085c-10.671,0.513-21.704,1.044-27.587-0.475c-0.923-0.239-1.904-0.559-1.843-1.349
			c0.102-1.31,2.786-1.77,20.515-3.517c17.77-1.752,44.626-4.398,46.894-9.229c0.08-0.17,0.046-0.244-0.002-0.315
			c-2.142-3.229-32.816-2-59.883-0.915c-36.018,1.441-58.164,2.133-59.496-1.658c-0.144-0.41-0.081-0.834,0.177-1.193
			c2.262-3.138,23.75-3.026,58.875-2.464c22.168,0.35,49.757,0.791,51.083-1.409c-3.574-4.624-72.599-2.38-118.133,0.266
			c-0.319,0.021-0.614-0.233-0.634-0.564c-0.02-0.332,0.233-0.615,0.564-0.634c11.661-0.677,114.064-6.425,119.113,0.237
			c0.41,0.541,0.277,1.009,0.159,1.239c-1.311,2.589-17.697,2.611-52.171,2.065c-24.872-0.397-55.825-0.889-57.882,1.965
			c1.088,3.24,32.809,1.97,58.297,0.952c36.349-1.455,58.585-2.082,60.932,1.45c0.296,0.449,0.328,0.977,0.088,1.491
			c-2.366,5.037-23.075,7.47-47.863,9.912c-8.182,0.806-16.614,1.637-18.957,2.375c0.126,0.041,0.281,0.086,0.469,0.134
			c5.707,1.474,16.648,0.947,27.23,0.439c14.435-0.695,23.337-0.973,24.32,1.894c0.17,0.495,0.117,0.996-0.152,1.45
			c-1.161,1.952-6.333,2.954-14.091,4.26c-4.63,0.779-10.971,1.847-11.375,3.008c-0.032,0.093,0.089,0.245,0.164,0.328
			c0.222,0.245,0.203,0.625-0.043,0.847C1181.262,293.925,1181.118,293.977,1180.974,293.977z"/>
	</g>
</g>
<path fill="#615B4F" d="M1518.263,511.566l-79.779-4.313l2.205,41.336l6.396-0.057V561.3h3v-12.794l61.5-0.546v13.693h3v-13.72
	l7.658-0.068L1518.263,511.566z M1516.289,530.26l-60.474-4.422l59.429-4.862v-0.256L1516.289,530.26z M1442.717,511.488
	l71.941,3.889l0.393,3.59l-72.104-5.628l-0.078,1.001L1442.717,511.488z M1442.922,515.343l59.69,4.659l-59.183,4.842
	L1442.922,515.343z M1443.541,526.945l72.969,5.336l0.236,2.156l-72.909-1.932L1443.541,526.945z M1444.137,538.129l-0.14-2.62
	l73.078,1.937l0.226,2.059l-73.106-2.875L1444.137,538.129z M1444.48,544.556l-0.263-4.923l73.191,2.878l0.058-1.496l0.317,2.888
	L1444.48,544.556z"/>
<g>
	<path fill="#494339" d="M1567.02,552.097v-26.796h-4.114V407.264c2.335-0.828,4.017-3.034,4.017-5.652V381.03
		c0-3.324-2.695-6.019-6.019-6.019s-6.019,2.695-6.019,6.019v20.582c0,2.619,1.682,4.824,4.017,5.652v118.037h-4.114v26.796h-4.66
		V562h21.553v-9.903H1567.02z"/>
	<path fill="#615B4F" d="M1560.904,404.136V375.01c-3.324,0-6.019,2.695-6.019,6.019v20.582c0,2.619,1.682,4.824,4.017,5.652V525.3
		h-4.114v26.796h-4.66V562h10.283C1559.507,528.329,1560.904,404.136,1560.904,404.136z"/>
	<g>
		<path fill="#494339" d="M1597.645,402.976l1.748-17.33c-1.748-4.369-5.388-5.097-5.388-5.097c-4.806,0-7.136,5.388-7.136,5.388
			l0.874,17.039c0.016,0.304,0.104,0.64,0.248,0.989C1587.99,403.965,1593.422,407.199,1597.645,402.976z"/>
		<path fill="#D1E6D4" d="M1588.325,386.811c0,0,4.369-2.476,9.466,0l-1.602,13.689c0,0-4.951,1.02-7.281,0L1588.325,386.811z"/>
	</g>
	<g>
		<path fill="#494339" d="M1593.253,383.769c-15.487-13.058-27.367-2.348-27.868-1.886l-1.584-1.707
			c0.136-0.127,13.894-12.567,30.953,1.811L1593.253,383.769z"/>
	</g>
	<g>
		<g>
			<path fill="#615B4F" d="M1523.991,402.976l-1.748-17.33c1.748-4.369,5.388-5.097,5.388-5.097c4.806,0,7.136,5.388,7.136,5.388
				l-0.874,17.039c-0.016,0.304-0.104,0.64-0.248,0.989C1533.645,403.965,1528.214,407.199,1523.991,402.976z"/>
			<path fill="#D1E6D4" d="M1533.311,386.811c0,0-4.369-2.476-9.466,0l1.602,13.689c0,0,4.952,1.02,7.282,0L1533.311,386.811z"/>
		</g>
		<g>
			<path fill="#615B4F" d="M1528.383,383.769c15.487-13.058,27.367-2.348,27.868-1.886l1.584-1.707
				c-0.136-0.127-13.894-12.567-30.953,1.811L1528.383,383.769z"/>
		</g>
	</g>
</g>
<g>
	<path fill="#867F76" d="M1227.702,95.441c0,0,35.427-64.719,40.426-93.119h94.967c0,0,24.612,78,33.012,96"/>
	<path opacity="0.5" fill="#635E58" d="M1380.03,54.299L1380.03,54.299c-5.496,21.977-36.304,41.596-36.304,41.596l-11.34,1.338
		l63.72,1.09C1392.59,90.788,1386.233,72.739,1380.03,54.299z"/>
	<rect x="1230.126" y="102.992" fill="#A98F67" width="162.6" height="458.261"/>
	<g>
		<path fill="#876F45" d="M1272.498,443.941v-44.8v-2.4v-2.4h-8.468l1.268-4.25h-11.7l1.48,4.25h-8.179v2.4v2.4v44.8h-2.45v4.2h30
			v-4.2H1272.498z M1250.598,399.142h0.45v0.916v10.985v1.2v14.501v1.2v16h-0.45V399.142z M1269.048,443.941v-16v-1.2v-14.501v-1.2
			v-11.899h0.15v44.8H1269.048z"/>
		<g>
			<g>
				<g>
					<rect x="1248.327" y="396.391" fill="#726E71" width="18" height="47.1"/>
					<path opacity="0.3" fill="#585153" enable-background="new    " d="M1248.327,396.391v2.465c3.617-0.586,14.254-1.332,15,9.985
						c0.656,9.958-0.203,26.45-0.716,34.65h3.716v-47.1H1248.327z"/>
				</g>
				<rect x="1248.327" y="396.391" fill="none" stroke="#3A3136" stroke-miterlimit="10" width="18" height="47.1"/>
				<g>
					<rect x="1256.727" y="395.791" fill="#3A3136" width="1.2" height="47.7"/>
				</g>
				<g>
					<rect x="1248.327" y="409.841" fill="#3A3136" width="18" height="1.2"/>
				</g>
				<g>
					<rect x="1248.327" y="425.542" fill="#3A3136" width="18" height="1.2"/>
				</g>
			</g>
			<g>
				<rect x="1266.477" y="395.542" fill="#FFEDE2" stroke="#AFAAAA" stroke-miterlimit="10" width="3.3" height="47.2"/>
				<rect x="1244.177" y="395.542" fill="#FFEDE2" stroke="#AFAAAA" stroke-miterlimit="10" width="3.7" height="47.2"/>
				<rect x="1244.177" y="393.142" fill="#FFEDE2" stroke="#AFAAAA" stroke-miterlimit="10" width="25.6" height="4.8"/>
				<rect x="1241.727" y="442.741" fill="#FFEDE2" stroke="#AFAAAA" stroke-miterlimit="10" width="30" height="4.2"/>
				<polygon fill="#FFEDE2" stroke="#AFAAAA" stroke-miterlimit="10" points="1254.026,397.942 1250.877,388.891 1262.577,388.891 
					1259.877,397.942 				"/>
			</g>
		</g>
	</g>
	<g>
		<path fill="#876F45" d="M1378.266,443.941v-44.8v-2.4v-2.4h-8.468l1.268-4.25h-11.7l1.48,4.25h-8.179v2.4v2.4v44.8h-2.45v4.2h30
			v-4.2H1378.266z M1356.366,399.142h0.45v0.916v10.985v1.2v14.501v1.2v16h-0.45V399.142z M1374.816,443.941v-16v-1.2v-14.501v-1.2
			v-11.899h0.15v44.8H1374.816z"/>
		<g>
			<g>
				<g>
					<rect x="1354.095" y="396.391" fill="#726E71" width="18" height="47.1"/>
					<path opacity="0.3" fill="#585153" enable-background="new    " d="M1354.095,396.391v2.465c3.617-0.586,14.254-1.332,15,9.985
						c0.656,9.958-0.203,26.45-0.717,34.65h3.717v-47.1H1354.095z"/>
				</g>
				<rect x="1354.095" y="396.391" fill="none" stroke="#3A3136" stroke-miterlimit="10" width="18" height="47.1"/>
				<g>
					<rect x="1362.495" y="395.791" fill="#3A3136" width="1.2" height="47.7"/>
				</g>
				<g>
					<rect x="1354.095" y="409.841" fill="#3A3136" width="18" height="1.2"/>
				</g>
				<g>
					<rect x="1354.095" y="425.542" fill="#3A3136" width="18" height="1.2"/>
				</g>
			</g>
			<g>
				<rect x="1372.245" y="395.542" fill="#FFEDE2" stroke="#AFAAAA" stroke-miterlimit="10" width="3.3" height="47.2"/>
				<rect x="1349.945" y="395.542" fill="#FFEDE2" stroke="#AFAAAA" stroke-miterlimit="10" width="3.7" height="47.2"/>
				<rect x="1349.945" y="393.142" fill="#FFEDE2" stroke="#AFAAAA" stroke-miterlimit="10" width="25.6" height="4.8"/>
				<rect x="1347.495" y="442.741" fill="#FFEDE2" stroke="#AFAAAA" stroke-miterlimit="10" width="30" height="4.2"/>
				<polygon fill="#FFEDE2" stroke="#AFAAAA" stroke-miterlimit="10" points="1359.795,397.942 1356.645,388.891 1368.345,388.891 
					1365.645,397.942 				"/>
			</g>
		</g>
	</g>
	<g>
		<path fill="#DEC39B" d="M1279.33,463.417h-42.805v-84.6h42.805V463.417z M1237.725,462.217h40.405v-82.2h-40.405V462.217z"/>
	</g>
	<g>
		<path fill="#DEC39B" d="M1385.418,463.417h-42.805v-84.6h42.805V463.417z M1343.814,462.217h40.405v-82.2h-40.405V462.217z"/>
	</g>
	<g>
		<path fill="#876F45" d="M1317.931,393.949h-3.276h-1.576h-2.204h-2.646c-1.134,8.19-6.3,9.702-6.3,9.702v26.712
			c6.174,5.292,6.804,10.836,6.804,10.836h2.142h2.204h1.576h2.772c0,0,0.63-5.544,6.804-10.836v-26.712
			C1324.231,403.651,1319.065,402.139,1317.931,393.949z"/>
		<g>
			<path fill="#FCFEFA" d="M1316.251,393.202h-3.276h-1.576h-2.206h-2.646c-1.134,8.19-6.3,9.702-6.3,9.702v26.712
				c6.174,5.292,6.804,10.836,6.804,10.836h2.142h2.206h1.576h2.772c0,0,0.63-5.544,6.804-10.836v-26.712
				C1322.551,402.904,1317.385,401.392,1316.251,393.202z"/>
			<g>
				<path fill="#A98F67" d="M1319.276,427.943h-15.54v-22.89h15.54V427.943z M1304.996,426.683h13.02v-20.37h-13.02V426.683z"/>
			</g>
		</g>
		<g>
			<path fill="#91754E" d="M1315.749,441.08h-9.255l-0.066-0.558c-0.006-0.053-0.697-5.381-6.587-10.429l-0.221-0.19V402.43
				l0.452-0.132c0.193-0.059,4.794-1.541,5.854-9.184l0.076-0.544h10.799l0.076,0.544c1.06,7.644,5.66,9.125,5.856,9.184
				l0.448,0.137l0.002,0.468v27.001l-0.219,0.19c-5.89,5.048-6.581,10.376-6.587,10.429l-0.066,0.557L1315.749,441.08z
				 M1307.583,439.82h7.637c0.326-1.556,1.663-6.077,6.702-10.494v-25.991c-1.321-0.574-5.101-2.776-6.211-9.505h-8.618
				c-1.11,6.73-4.89,8.932-6.211,9.505v25.991C1305.919,433.744,1307.256,438.264,1307.583,439.82z"/>
		</g>
	</g>
	<g>
		<path fill="#DEC39B" d="M1333.326,481.417h-45v-121.8h45V481.417z M1289.526,480.217h42.6v-119.4h-42.6V480.217z"/>
	</g>
	<polygon opacity="0.4" fill="#846B4D" enable-background="new    " points="1230.126,360.217 1230.126,371.617 1281.468,371.617 
		1283.226,371.617 1283.226,481.417 1286.452,481.417 1288.326,481.417 1288.326,371.617 1383.726,371.617 1387.326,360.217 	"/>
	<g>
		<g>
			<path fill="#876F45" d="M1273.019,314.518v-44.8v-2.4v-2.4h-8.468l1.268-4.25h-11.7l1.48,4.25h-8.179v2.4v2.4v44.8h-2.45v4.2h30
				v-4.2H1273.019z M1251.119,269.717h0.45v0.916v10.985v1.2v14.501v1.2v16h-0.45V269.717z M1269.569,314.518v-16v-1.2v-14.501v-1.2
				v-11.899h0.15v44.8H1269.569z"/>
			<g>
				<g>
					<g>
						<rect x="1248.847" y="266.968" fill="#726E71" width="18" height="47.1"/>
						<path opacity="0.3" fill="#585153" enable-background="new    " d="M1248.847,266.968v2.465
							c3.617-0.586,14.254-1.332,15,9.985c0.656,9.958-0.203,26.45-0.716,34.65h3.716v-47.1H1248.847z"/>
					</g>
					<rect x="1248.847" y="266.968" fill="none" stroke="#3A3136" stroke-miterlimit="10" width="18" height="47.1"/>
					<g>
						<rect x="1257.247" y="266.368" fill="#3A3136" width="1.2" height="47.7"/>
					</g>
					<g>
						<rect x="1248.847" y="280.417" fill="#3A3136" width="18" height="1.2"/>
					</g>
					<g>
						<rect x="1248.847" y="296.118" fill="#3A3136" width="18" height="1.2"/>
					</g>
				</g>
				<g>
					<rect x="1266.997" y="266.117" fill="#FFEDE2" stroke="#AFAAAA" stroke-miterlimit="10" width="3.3" height="47.2"/>
					<rect x="1244.698" y="266.117" fill="#FFEDE2" stroke="#AFAAAA" stroke-miterlimit="10" width="3.7" height="47.2"/>
					<rect x="1244.698" y="263.717" fill="#FFEDE2" stroke="#AFAAAA" stroke-miterlimit="10" width="25.6" height="4.8"/>
					<rect x="1242.247" y="313.318" fill="#FFEDE2" stroke="#AFAAAA" stroke-miterlimit="10" width="30" height="4.2"/>
					<polygon fill="#FFEDE2" stroke="#AFAAAA" stroke-miterlimit="10" points="1254.547,268.517 1251.397,259.468 1263.097,259.468 
						1260.397,268.517 					"/>
				</g>
			</g>
		</g>
		<g>
			<path fill="#876F45" d="M1378.787,314.518v-44.8v-2.4v-2.4h-8.468l1.268-4.25h-11.7l1.48,4.25h-8.179v2.4v2.4v44.8h-2.45v4.2h30
				v-4.2H1378.787z M1356.887,269.717h0.45v0.916v10.985v1.2v14.501v1.2v16h-0.45V269.717z M1375.337,314.518v-16v-1.2v-14.501v-1.2
				v-11.899h0.15v44.8H1375.337z"/>
			<g>
				<g>
					<g>
						<rect x="1354.614" y="266.968" fill="#726E71" width="18" height="47.1"/>
						<path opacity="0.3" fill="#585153" enable-background="new    " d="M1354.614,266.968v2.465
							c3.617-0.586,14.254-1.332,15,9.985c0.656,9.958-0.203,26.45-0.716,34.65h3.716v-47.1H1354.614z"/>
					</g>
					<rect x="1354.614" y="266.968" fill="none" stroke="#3A3136" stroke-miterlimit="10" width="18" height="47.1"/>
					<g>
						<rect x="1363.014" y="266.368" fill="#3A3136" width="1.2" height="47.7"/>
					</g>
					<g>
						<rect x="1354.614" y="280.417" fill="#3A3136" width="18" height="1.2"/>
					</g>
					<g>
						<rect x="1354.614" y="296.118" fill="#3A3136" width="18" height="1.2"/>
					</g>
				</g>
				<g>
					<rect x="1372.764" y="266.117" fill="#FFEDE2" stroke="#AFAAAA" stroke-miterlimit="10" width="3.3" height="47.2"/>
					<rect x="1350.464" y="266.117" fill="#FFEDE2" stroke="#AFAAAA" stroke-miterlimit="10" width="3.7" height="47.2"/>
					<rect x="1350.464" y="263.717" fill="#FFEDE2" stroke="#AFAAAA" stroke-miterlimit="10" width="25.6" height="4.8"/>
					<rect x="1348.014" y="313.318" fill="#FFEDE2" stroke="#AFAAAA" stroke-miterlimit="10" width="30" height="4.2"/>
					<polygon fill="#FFEDE2" stroke="#AFAAAA" stroke-miterlimit="10" points="1360.314,268.517 1357.164,259.468 1368.864,259.468 
						1366.164,268.517 					"/>
				</g>
			</g>
		</g>
		<g>
			<path fill="#DEC39B" d="M1279.849,333.992h-42.805v-84.6h42.805V333.992z M1238.244,332.792h40.405v-82.2h-40.405V332.792z"/>
		</g>
		<g>
			<path fill="#DEC39B" d="M1385.939,333.992h-42.805v-84.6h42.805V333.992z M1344.334,332.792h40.405v-82.2h-40.405V332.792z"/>
		</g>
		<g>
			<path fill="#876F45" d="M1318.452,264.524h-3.276h-1.576h-2.206h-2.646c-1.134,8.19-6.3,9.702-6.3,9.702v26.712
				c6.174,5.292,6.804,10.836,6.804,10.836h2.142h2.206h1.576h2.772c0,0,0.63-5.544,6.804-10.836v-26.712
				C1324.752,274.226,1319.586,272.714,1318.452,264.524z"/>
			<g>
				<path fill="#FCFEFA" d="M1316.772,263.777h-3.276h-1.576h-2.206h-2.646c-1.134,8.19-6.3,9.702-6.3,9.702v26.712
					c6.174,5.292,6.804,10.836,6.804,10.836h2.142h2.206h1.576h2.772c0,0,0.63-5.544,6.804-10.836v-26.712
					C1323.072,273.479,1317.906,271.967,1316.772,263.777z"/>
				<g>
					<path fill="#A98F67" d="M1319.796,298.519h-15.54v-22.89h15.54V298.519z M1305.516,297.259h13.02v-20.37h-13.02V297.259z"/>
				</g>
			</g>
			<g>
				<path fill="#91754E" d="M1316.268,311.657h-9.254l-0.066-0.557c-0.006-0.053-0.697-5.381-6.587-10.429l-0.221-0.19v-27.474
					l0.452-0.132c0.193-0.059,4.794-1.541,5.854-9.185l0.076-0.544h10.799l0.076,0.544c1.06,7.644,5.66,9.125,5.856,9.185
					l0.448,0.137l0.002,0.468v27.001l-0.221,0.19c-5.888,5.048-6.581,10.376-6.587,10.429l-0.066,0.556L1316.268,311.657z
					 M1308.103,310.397h7.637c0.326-1.556,1.663-6.077,6.702-10.494v-25.991c-1.321-0.574-5.101-2.776-6.211-9.505h-8.618
					c-1.11,6.73-4.89,8.932-6.211,9.505v25.991C1306.439,304.32,1307.777,308.84,1308.103,310.397z"/>
			</g>
		</g>
		<g>
			<path fill="#DEC39B" d="M1333.846,351.992h-45v-121.8h45V351.992z M1290.046,350.792h42.6v-119.4h-42.6V350.792z"/>
		</g>
		<polygon opacity="0.4" fill="#846B4D" enable-background="new    " points="1230.646,230.792 1230.646,242.192 1281.989,242.192 
			1283.746,242.192 1283.746,351.992 1286.973,351.992 1288.846,351.992 1288.846,242.192 1384.246,242.192 1387.846,230.792 		"/>
		<g>
			<polygon fill="#FFEDE2" stroke="#AFAAAA" stroke-miterlimit="10" points="1320.996,343.592 1302.017,343.592 1222.356,343.592 
				1224.756,352.892 1230.156,362.192 1302.017,362.192 1320.996,362.192 1392.856,362.192 1398.256,352.892 1400.656,343.592 			
				"/>
			<g>
				<line fill="none" x1="1224.756" y1="352.892" x2="1398.256" y2="352.892"/>
				<rect x="1224.756" y="352.292" fill="#AFAAAA" width="173.5" height="1.2"/>
			</g>
		</g>
	</g>
	<g>
		<path fill="#876F45" d="M1272.499,186.718v-44.8v-2.4v-2.4h-8.468l1.268-4.25h-11.7l1.48,4.25h-8.179v2.4v2.4v44.8h-2.45v4.2h30
			v-4.2H1272.499z M1250.599,141.917h0.45v0.916v10.985v1.2v14.501v1.2v16h-0.45V141.917z M1269.049,186.718v-16v-1.2v-14.501v-1.2
			v-11.899h0.15v44.8H1269.049z"/>
		<g>
			<g>
				<g>
					<rect x="1248.328" y="139.168" fill="#726E71" width="18" height="47.1"/>
					<path opacity="0.3" fill="#585153" enable-background="new    " d="M1248.328,139.168v2.465c3.617-0.586,14.254-1.332,15,9.985
						c0.656,9.958-0.203,26.45-0.717,34.65h3.717v-47.1H1248.328z"/>
				</g>
				<rect x="1248.328" y="139.168" fill="none" stroke="#3A3136" stroke-miterlimit="10" width="18" height="47.1"/>
				<g>
					<rect x="1256.728" y="138.568" fill="#3A3136" width="1.2" height="47.7"/>
				</g>
				<g>
					<rect x="1248.328" y="152.617" fill="#3A3136" width="18" height="1.2"/>
				</g>
				<g>
					<rect x="1248.328" y="168.318" fill="#3A3136" width="18" height="1.2"/>
				</g>
			</g>
			<g>
				<rect x="1266.478" y="138.317" fill="#FFEDE2" stroke="#AFAAAA" stroke-miterlimit="10" width="3.3" height="47.2"/>
				<rect x="1244.177" y="138.317" fill="#FFEDE2" stroke="#AFAAAA" stroke-miterlimit="10" width="3.7" height="47.2"/>
				<rect x="1244.177" y="135.917" fill="#FFEDE2" stroke="#AFAAAA" stroke-miterlimit="10" width="25.6" height="4.8"/>
				<rect x="1241.728" y="185.518" fill="#FFEDE2" stroke="#AFAAAA" stroke-miterlimit="10" width="30" height="4.2"/>
				<polygon fill="#FFEDE2" stroke="#AFAAAA" stroke-miterlimit="10" points="1254.028,140.717 1250.878,131.668 1262.578,131.668 
					1259.878,140.717 				"/>
			</g>
		</g>
	</g>
	<g>
		<path fill="#876F45" d="M1378.266,186.718v-44.8v-2.4v-2.4h-8.468l1.268-4.25h-11.7l1.48,4.25h-8.179v2.4v2.4v44.8h-2.45v4.2h30
			v-4.2H1378.266z M1356.366,141.917h0.45v0.916v10.985v1.2v14.501v1.2v16h-0.45V141.917z M1374.816,186.718v-16v-1.2v-14.501v-1.2
			v-11.899h0.15v44.8H1374.816z"/>
		<g>
			<g>
				<g>
					<rect x="1354.095" y="139.168" fill="#726E71" width="18" height="47.1"/>
					<path opacity="0.3" fill="#585153" enable-background="new    " d="M1354.095,139.168v2.465c3.617-0.586,14.254-1.332,15,9.985
						c0.656,9.958-0.203,26.45-0.717,34.65h3.717v-47.1H1354.095z"/>
				</g>
				<rect x="1354.095" y="139.168" fill="none" stroke="#3A3136" stroke-miterlimit="10" width="18" height="47.1"/>
				<g>
					<rect x="1362.495" y="138.568" fill="#3A3136" width="1.2" height="47.7"/>
				</g>
				<g>
					<rect x="1354.095" y="152.617" fill="#3A3136" width="18" height="1.2"/>
				</g>
				<g>
					<rect x="1354.095" y="168.318" fill="#3A3136" width="18" height="1.2"/>
				</g>
			</g>
			<g>
				<rect x="1372.245" y="138.317" fill="#FFEDE2" stroke="#AFAAAA" stroke-miterlimit="10" width="3.3" height="47.2"/>
				<rect x="1349.945" y="138.317" fill="#FFEDE2" stroke="#AFAAAA" stroke-miterlimit="10" width="3.7" height="47.2"/>
				<rect x="1349.945" y="135.917" fill="#FFEDE2" stroke="#AFAAAA" stroke-miterlimit="10" width="25.6" height="4.8"/>
				<rect x="1347.495" y="185.518" fill="#FFEDE2" stroke="#AFAAAA" stroke-miterlimit="10" width="30" height="4.2"/>
				<polygon fill="#FFEDE2" stroke="#AFAAAA" stroke-miterlimit="10" points="1359.795,140.717 1356.645,131.668 1368.345,131.668 
					1365.645,140.717 				"/>
			</g>
		</g>
	</g>
	<g>
		<path fill="#DEC39B" d="M1279.33,206.192h-42.805v-84.6h42.805V206.192z M1237.725,204.992h40.405v-82.2h-40.405V204.992z"/>
	</g>
	<g>
		<path fill="#DEC39B" d="M1385.419,206.192h-42.805v-84.6h42.805V206.192z M1343.814,204.992h40.405v-82.2h-40.405V204.992z"/>
	</g>
	<g>
		<path fill="#876F45" d="M1317.932,136.724h-3.276h-1.576h-2.206h-2.646c-1.134,8.19-6.3,9.702-6.3,9.702v26.712
			c6.174,5.292,6.804,10.836,6.804,10.836h2.142h2.206h1.576h2.772c0,0,0.63-5.544,6.804-10.836v-26.712
			C1324.233,146.426,1319.067,144.914,1317.932,136.724z"/>
		<g>
			<path fill="#FCFEFA" d="M1316.253,135.977h-3.276h-1.576h-2.206h-2.646c-1.134,8.19-6.3,9.702-6.3,9.702v26.712
				c6.174,5.292,6.804,10.836,6.804,10.836h2.142h2.206h1.576h2.772c0,0,0.63-5.544,6.804-10.836v-26.712
				C1322.552,145.679,1317.387,144.167,1316.253,135.977z"/>
			<g>
				<path fill="#A98F67" d="M1319.276,170.719h-15.54v-22.89h15.54V170.719z M1304.996,169.459h13.02v-20.37h-13.02V169.459z"/>
			</g>
		</g>
		<g>
			<path fill="#91754E" d="M1315.749,183.857h-9.255l-0.066-0.557c-0.006-0.053-0.697-5.381-6.587-10.429l-0.22-0.19v-27.474
				l0.452-0.132c0.193-0.059,4.794-1.541,5.854-9.185l0.076-0.544h10.799l0.076,0.544c1.06,7.644,5.661,9.125,5.856,9.185
				l0.448,0.137l0.002,0.468v27.001l-0.221,0.19c-5.888,5.048-6.581,10.376-6.587,10.429l-0.066,0.556L1315.749,183.857z
				 M1307.583,182.597h7.637c0.326-1.556,1.663-6.077,6.702-10.494v-25.991c-1.321-0.574-5.101-2.776-6.211-9.505h-8.618
				c-1.11,6.73-4.89,8.932-6.211,9.505v25.991C1305.919,176.52,1307.257,181.04,1307.583,182.597z"/>
		</g>
	</g>
	<g>
		<path fill="#DEC39B" d="M1333.326,224.192h-45v-121.8h45V224.192z M1289.526,222.992h42.6v-119.4h-42.6V222.992z"/>
	</g>
	<g>
		<polygon fill="#FFEDE2" stroke="#AFAAAA" stroke-miterlimit="10" points="1320.477,215.792 1301.496,215.792 1221.837,215.792 
			1224.237,225.092 1229.636,234.392 1301.496,234.392 1320.477,234.392 1392.336,234.392 1397.736,225.092 1400.136,215.792 		"/>
		<g>
			<line fill="none" x1="1224.237" y1="225.092" x2="1397.736" y2="225.092"/>
			<rect x="1224.237" y="224.492" fill="#AFAAAA" width="173.5" height="1.2"/>
		</g>
	</g>
	<g>
		<g>
			<g>
				<path fill="#F3F4ED" d="M1361.981,491.653c0,0-24-21-51.3-20.4c-27.3-0.6-51.3,20.4-51.3,20.4h-30.9v69.6h164.4v-69.6H1361.981z
					 M1331.231,550.153h-41.1v-58.2c0,0,18.6-11.1,41.1,0V550.153z"/>
				<g>
					<path fill="#BDB7B2" d="M1392.881,502.453h-36.729l-0.172-0.31c-13.474-24.31-47.136-24.59-47.476-24.59
						c-28.284,0.131-44.638,24.385-44.8,24.63l-0.178,0.27h-35.047v-1.2h34.411c1.909-2.707,18.326-24.774,45.612-24.9
						c0.347,0,34.43,0.286,48.354,24.9h36.024v1.2H1392.881z"/>
				</g>
				<g>
					<g>
						<rect x="1243.505" y="491.654" fill="#BDB7B2" width="1.2" height="9.6"/>
					</g>
					<g>
						
							<rect x="1256.008" y="495.938" transform="matrix(-0.3435 -0.9392 0.9392 -0.3435 1227.9658 1851.4816)" fill="#BDB7B2" width="10.222" height="1.2"/>
					</g>
					<g>
						
							<rect x="1268.66" y="486.171" transform="matrix(-0.6263 -0.7796 0.7796 -0.6263 1689.2797 1783.3251)" fill="#BDB7B2" width="6.826" height="1.2"/>
					</g>
					<g>
						
							<rect x="1286.085" y="477.131" transform="matrix(-0.4052 -0.9142 0.9142 -0.4052 1374.0907 1849.4374)" fill="#BDB7B2" width="5.156" height="1.199"/>
					</g>
				</g>
				<g>
					<g>
						<rect x="1375.405" y="491.654" fill="#BDB7B2" width="1.2" height="9.6"/>
					</g>
					<g>
						<polygon fill="#BDB7B2" points="1357.783,501.46 1361.981,491.653 1360.921,490.772 1356.151,502.453 						"/>
					</g>
					<g>
						<polygon fill="#BDB7B2" points="1346.38,489.78 1350.995,483.809 1349.895,483.139 1345.444,489.028 						"/>
					</g>
					<g>
						<polygon fill="#BDB7B2" points="1330.606,481.104 1333.365,475.238 1332.093,474.797 1329.505,480.553 						"/>
					</g>
				</g>
				<path fill="#F3F4ED" d="M1304.905,483.139l-2.8-16.6c0,0,5.4-2.2,14.2,0l-2.4,16.6H1304.905z"/>
				<g>
					<path fill="#BDB7B2" d="M1314.425,483.74h-10.026l-2.964-17.575l0.445-0.181c0.102-0.042,2.558-1.022,6.833-1.022
						c2.492,0,5.095,0.335,7.738,0.995l0.526,0.131L1314.425,483.74z M1305.413,482.54h7.974l2.248-15.546
						c-2.368-0.552-4.692-0.832-6.922-0.832c-3.002,0-5.069,0.516-5.93,0.78L1305.413,482.54z"/>
				</g>
				<polygon fill="#BDB7B2" points="1392.881,509.653 1392.881,508.453 1357.351,508.453 1357.351,502.453 1356.151,502.453 
					1356.151,508.453 1356.151,509.653 1356.151,516.247 1356.151,517.447 1356.151,524.053 1356.151,525.253 1356.151,531.847 
					1356.151,533.047 1356.151,539.579 1356.151,540.779 1356.151,547.373 1356.151,548.573 1356.151,548.653 1392.881,548.573 
					1392.881,547.373 1357.351,547.373 1357.351,540.779 1392.881,540.779 1392.881,539.579 1357.351,539.579 1357.351,533.047 
					1392.881,533.047 1392.881,531.847 1357.351,531.847 1357.351,525.253 1392.881,525.253 1392.881,524.053 1357.351,524.053 
					1357.351,517.447 1392.881,517.447 1392.881,516.247 1357.351,516.247 1357.351,509.653 				"/>
				<polygon fill="#BDB7B2" points="1262.47,502.453 1262.47,508.453 1228.481,508.453 1228.481,509.653 1262.47,509.653 
					1262.47,516.247 1228.481,516.247 1228.481,517.447 1262.47,517.447 1262.47,524.053 1228.481,524.053 1228.481,525.253 
					1262.47,525.253 1262.47,531.847 1228.481,531.847 1228.481,533.047 1262.47,533.047 1262.47,539.579 1228.481,539.579 
					1228.481,540.779 1262.47,540.779 1262.47,547.373 1228.481,547.373 1228.481,548.576 1263.67,548.653 1263.67,548.573 
					1263.67,547.373 1263.67,540.779 1263.67,539.579 1263.67,533.047 1263.67,531.847 1263.67,525.253 1263.67,524.053 
					1263.67,517.447 1263.67,516.247 1263.67,509.653 1263.67,508.453 1263.67,502.453 				"/>
			</g>
			<polygon fill="#BDB7B2" points="1228.481,547.572 1228.481,548.772 1264.882,548.772 1264.882,556.526 1228.481,556.526 
				1228.481,557.726 1266.082,557.726 1266.082,547.572 			"/>
			<polygon fill="#BDB7B2" points="1392.116,547.572 1392.881,548.772 1355.716,548.772 1355.716,556.526 1392.881,556.526 
				1392.881,557.726 1354.516,557.726 1354.516,547.572 			"/>
			<g>
				<path fill="#BDB7B2" d="M1393.481,561.253h-165.6v-4.727h165.6V561.253z M1229.081,560.053h163.2v-2.327h-163.2V560.053z"/>
			</g>
			<g>
				<rect x="1262.814" y="544.001" fill="#BDB7B2" width="27.383" height="1.2"/>
				<rect x="1331.231" y="544.001" fill="#BDB7B2" width="25.266" height="1.2"/>
			</g>
			<g>
				<rect x="1262.814" y="531.349" fill="#BDB7B2" width="27.383" height="1.2"/>
				<rect x="1331.231" y="531.349" fill="#BDB7B2" width="25.266" height="1.2"/>
			</g>
			<g>
				<rect x="1263.84" y="518.627" fill="#BDB7B2" width="26.358" height="1.2"/>
				<rect x="1331.231" y="518.627" fill="#BDB7B2" width="26.291" height="1.2"/>
			</g>
			<g>
				<rect x="1262.47" y="505.975" fill="#BDB7B2" width="27.727" height="1.2"/>
				<rect x="1331.231" y="505.975" fill="#BDB7B2" width="24.922" height="1.2"/>
			</g>
			<g>
				
					<rect x="1279.522" y="488.52" transform="matrix(-0.8753 -0.4835 0.4835 -0.8753 2173.687 1538.684)" fill="#BDB7B2" width="11.364" height="1.2"/>
			</g>
			<g>
				
					<rect x="1334.867" y="483.854" transform="matrix(-0.5881 -0.8088 0.8088 -0.5881 1725.3649 1856.6599)" fill="#BDB7B2" width="1.2" height="10.249"/>
			</g>
			<g>
				
					<rect x="1292.174" y="483.448" transform="matrix(-0.3646 -0.9312 0.9312 -0.3646 1319.2324 1868.3168)" fill="#BDB7B2" width="9.788" height="1.201"/>
			</g>
			<g>
				
					<rect x="1319.364" y="478.519" transform="matrix(-0.8014 -0.5981 0.5981 -0.8014 2088.6294 1660.4178)" fill="#BDB7B2" width="1.199" height="9.907"/>
			</g>
			<g>
				<path fill="#BDB7B2" d="M1331.827,550.754h-42.293l-0.295-58.589l0.262-0.18c0.319-0.22,7.949-5.374,20.383-5.374
					c7.259,0,14.646,1.778,21.959,5.286l0.343,0.166L1331.827,550.754z M1290.727,549.554h39.907l0.347-56.737
					c-7.037-3.322-14.134-5.005-21.097-5.005c-10.793,0-18.01,4.106-19.442,4.994L1290.727,549.554z"/>
			</g>
			<path opacity="0.3" fill="#BDB7B2" enable-background="new    " d="M1333.365,482.912c0,0,18.628,8.281,22.222,18.547
				l0.565,0.994l0.344,45.119h-1.98v8.954h-11.834l1.696-7.873l-1.696-52.2C1342.681,496.453,1341.149,488.599,1333.365,482.912z"/>
			<g>
				<rect x="1266.082" y="549.254" fill="#BDB7B2" width="88.434" height="1.2"/>
			</g>
		</g>
		<g>
			<rect x="1266.082" y="552.977" fill="#BDB7B2" width="89.05" height="1.2"/>
		</g>
	</g>
	<g>
		<g>
			<g>
				<path fill="#B19579" d="M1291.229,492.9l0.284,56.448h39.911l0.344-56.437c-7.037-3.322-14.134-5.005-21.097-5.005
					C1299.879,487.905,1292.662,492.012,1291.229,492.9z"/>
			</g>
			<g>
				<g>
					<path fill="#876A46" d="M1328.029,512.64h-14.2v-19.579l0.468-0.106c0.041-0.01,1.028-0.229,2.579-0.229
						c2.839,0,7.045,0.716,10.948,4.129l0.205,0.179L1328.029,512.64L1328.029,512.64z M1315.03,511.44h11.8v-13.859
						c-3.564-3.017-7.368-3.656-9.953-3.656c-0.806,0-1.446,0.065-1.847,0.121L1315.03,511.44L1315.03,511.44z"/>
				</g>
				<g>
					<path fill="#876A46" d="M1328.13,529.841h-14.4V514.74h14.4V529.841z M1314.93,528.641h12V515.94h-12V528.641z"/>
				</g>
				<g>
					<path fill="#876A46" d="M1328.23,546.241h-14.4V531.14h14.4V546.241z M1315.03,545.041h12V532.34h-12V545.041z"/>
				</g>
				<g>
					<path fill="#876A46" d="M1324.822,508.841h-7.992v-12.352l0.551-0.047c0.002,0,6.503-0.564,7.531,3.553
						c0.923,3.688,0.043,8.174,0.006,8.363L1324.822,508.841z M1318.03,507.641h5.795c0.193-1.234,0.612-4.601-0.077-7.355
						c-0.622-2.485-4.323-2.722-5.718-2.669V507.641z"/>
				</g>
				<g>
					<path fill="#876A46" d="M1325.28,526.94h-8.702v-8.914h8.702V526.94z M1317.779,525.74h6.302v-6.514h-6.302V525.74z"/>
				</g>
				<g>
					<path fill="#876A46" d="M1325.381,543.148h-8.702v-8.914h8.702V543.148z M1317.879,541.948h6.302v-6.514h-6.302V541.948z"/>
				</g>
			</g>
			<g>
				<g>
					<path fill="#876A46" d="M1294.73,497.034l0.205-0.179c3.902-3.414,8.108-4.129,10.948-4.129c1.55,0,2.538,0.221,2.579,0.229
						l0.468,0.106v19.579h-14.2L1294.73,497.034L1294.73,497.034z M1307.73,494.046c-0.401-0.056-1.04-0.121-1.847-0.121
						c-2.585,0-6.389,0.64-9.953,3.656v13.859h11.8L1307.73,494.046L1307.73,494.046z"/>
				</g>
				<g>
					<path fill="#876A46" d="M1294.63,514.74h14.4v15.101h-14.4V514.74z M1307.83,515.94h-12v12.701h12V515.94z"/>
				</g>
				<g>
					<path fill="#876A46" d="M1294.53,531.14h14.4v15.101h-14.4V531.14z M1307.73,532.34h-12v12.701h12V532.34z"/>
				</g>
				<g>
					<path fill="#876A46" d="M1297.841,508.358c-0.037-0.188-0.917-4.675,0.006-8.363c1.028-4.117,7.529-3.553,7.531-3.553
						l0.551,0.047v12.352h-7.992L1297.841,508.358z M1304.73,497.617c-1.396-0.053-5.096,0.182-5.718,2.669
						c-0.689,2.754-0.271,6.121-0.077,7.355h5.795V497.617z"/>
				</g>
				<g>
					<path fill="#876A46" d="M1297.479,518.027h8.702v8.914h-8.702V518.027z M1304.981,519.227h-6.302v6.514h6.302V519.227z"/>
				</g>
				<g>
					<path fill="#876A46" d="M1297.379,534.234h8.702v8.914h-8.702V534.234z M1304.881,535.434h-6.302v6.514h6.302V535.434z"/>
				</g>
			</g>
		</g>
		<path opacity="0.4" fill="#876A46" d="M1310.671,487.906c-10.793,0-18.01,4.106-19.442,4.994l0.004,0.798
			c8.263-1.323,28.3-2.565,33.589,15.143c4.339,14.525,3.069,30.803,1.628,40.507h4.975l0.344-56.437
			C1324.732,489.589,1317.635,487.906,1310.671,487.906z"/>
	</g>
	<polygon opacity="0.4" fill="#846B4D" enable-background="new    " points="1387.326,102.992 1230.126,102.992 1230.126,114.392 
		1272.781,114.392 1274.969,124.823 1283.226,124.823 1283.226,224.192 1286.453,224.192 1288.326,224.192 1288.326,124.823 
		1331.143,124.823 1338.826,114.392 1383.726,114.392 	"/>
	<g>
		<g>
			<path fill="#FFFFF9" d="M1228.094,101.595c0,0-2.25-3.75,0-5.7h168.6c0,0,1.05,3.9-1.2,4.95l0.15,4.5h-165.9L1228.094,101.595z"
				/>
			<g>
				<path fill="#B1B0AA" d="M1396.265,105.945h-166.911l-1.808-4.109c-0.067-0.103-2.445-4.14,0.157-6.395l0.169-0.146h169.283
					l0.12,0.444c0.047,0.17,1.048,4.007-1.167,5.452L1396.265,105.945z M1230.136,104.745h164.889l-0.143-4.276l0.359-0.168
					c1.363-0.636,1.137-2.851,0.967-3.806h-167.874c-1.58,1.648,0.257,4.759,0.275,4.792L1230.136,104.745z"/>
			</g>
		</g>
		<g>
			<rect x="1228.609" y="100.639" fill="#B1B0AA" width="167.497" height="1.2"/>
		</g>
	</g>
	<g>
		<g>
			<g>
				<path fill="#8F989C" d="M1293.021,104.945l-1.4-38.2c0,0,5.6-21.8,12.6-22.8s16.4-4.6,17.8,1.2s10.2,16.4,10.4,17
					c0.2,0.6-2.4,42.8-2.4,42.8l-36.6,1"/>
				<path opacity="0.5" fill="#667276" d="M1325.421,105.945c2-5-15.2-37.956-16.8-47.955c-0.87-5.438,0.214-11.098,1.383-15.144
					c-1.968,0.402-3.957,0.838-5.783,1.099c-7,1-12.6,22.8-12.6,22.8l1.4,38.2l0.4,1l14.904-0.407
					C1308.453,103.041,1323.611,110.469,1325.421,105.945z"/>
			</g>
			<g>
				<g>
					<path fill="#F8F7F5" d="M1303.898,40.764l-1.833-10.599c0,0,9.6-4.35,18.75,0l-3.3,11.4
						C1317.515,41.565,1311.731,38.312,1303.898,40.764z"/>
					<g>
						<path fill="#B1B0AA" d="M1317.698,42.012l-0.329-0.185c-0.031-0.016-3.047-1.677-7.576-1.677c-1.942,0-3.895,0.302-5.805,0.9
							l-0.326,0.103l-1.931-11.164l0.211-0.096c0.043-0.02,4.391-1.961,9.947-1.961c3.27,0,6.318,0.661,9.056,1.963l0.23,0.109
							L1317.698,42.012z M1309.792,39.55c3.866,0,6.614,1.14,7.535,1.583l3.128-10.805c-2.598-1.192-5.48-1.796-8.568-1.796
							c-4.739,0-8.564,1.439-9.486,1.816l1.734,10.03C1305.999,39.827,1307.9,39.55,1309.792,39.55z"/>
					</g>
				</g>
				<g>
					<g>
						<path fill="#F8F7F5" d="M1311.814,37.262c-18.6-0.4-22.6,18.2-25,23.4s-12.6-1.4-12.6-1.4s4,12,5.4,12.2c1.4,0.2,4,1.4,4,1.4
							v30.2l7.6,12.6l22-0.8L1311.814,37.262z M1294.214,66.418c0.763-1.332,1.665-3.448,2.4-6.756c1.6-7.2,5.8-14.4,11.8-13.6
							l0.271,20.038l-14.471,1.034V66.418z M1294.214,71.41l14.525-1.306l0.264,19.557h-14.789V71.41z M1294.214,105.262v-12.4
							h14.833l0.167,12.4H1294.214z"/>
						<g>
							<path fill="#B1B0AA" d="M1290.965,116.121l-7.801-12.934V73.154c-0.684-0.302-2.547-1.095-3.614-1.247
								c-1.458-0.209-4.236-7.923-5.763-12.504l-0.406-1.216l1.077,0.697c0.05,0.033,5.184,3.325,8.858,3.325
								c1.539,0,2.55-0.568,3.088-1.736c0.319-0.689,0.673-1.639,1.084-2.74c2.534-6.793,7.805-20.927,23.739-20.927
								c0.196,0,0.397,0.001,0.597,0.006l0.432,0.009l0.008,0.432l-0.238,78.102L1290.965,116.121z M1284.064,102.936l7.398,12.266
								l19.836-0.773l0.075-76.723c-0.049,0-0.097,0-0.145,0c-15.308,0-20.244,13.233-22.896,20.341
								c-0.417,1.118-0.777,2.084-1.109,2.803c-0.691,1.498-2.006,2.258-3.906,2.258c-2.919,0-6.523-1.826-8.284-2.83
								c1.759,5.109,3.93,10.4,4.676,10.746c1.418,0.199,3.985,1.379,4.094,1.429l0.261,0.121V102.936z M1309.669,105.712h-15.906
								V92.411h15.727L1309.669,105.712z M1294.663,104.812h14.094l-0.156-11.501h-13.938V104.812z M1309.458,90.112h-15.695V70.999
								l15.418-1.386L1309.458,90.112z M1294.663,89.212h13.883l-0.251-18.615l-13.632,1.225V89.212z M1293.763,67.615v-1.317
								l0.06-0.104c0.952-1.662,1.743-3.892,2.351-6.629c1.512-6.804,5.704-14.811,12.299-13.95l0.384,0.052l0.282,20.851
								L1293.763,67.615z M1294.663,66.536v0.114l13.564-0.969l-0.259-19.213c-5.791-0.415-9.514,6.981-10.916,13.291
								C1296.438,62.53,1295.634,64.809,1294.663,66.536z"/>
						</g>
						<g>
							<path fill="#B1B0AA" d="M1284.466,72.557c-2.944,0-5.371-0.705-5.425-0.722l0.345-1.15
								c0.453,0.138,11.177,3.237,13.809-4.579c0.328-0.975,0.647-2.007,0.975-3.069c2.549-8.235,5.722-18.475,17.699-17.374
								l-0.11,1.195c-11.019-1.02-13.896,8.307-16.441,16.533c-0.332,1.071-0.654,2.114-0.986,3.097
								C1292.664,71.45,1288.157,72.557,1284.466,72.557z"/>
						</g>
						<g>
							<path fill="#B1B0AA" d="M1284.121,67.944c-3.738,0-7.955-2.415-8.209-2.563l0.602-1.038
								c0.082,0.048,8.177,4.684,11.021,0.956c0.675-0.887,1.488-2.68,2.429-4.755c3.382-7.463,9.014-19.888,21.027-19.888
								c0.152,0,0.306,0.002,0.459,0.006l-0.031,1.2c-11.525-0.243-17.061,11.893-20.364,19.177
								c-1.01,2.231-1.809,3.993-2.568,4.988C1287.406,67.449,1285.812,67.944,1284.121,67.944z"/>
						</g>
						<polygon fill="#B1B0AA" points="1286.413,75.062 1291.813,72.557 1291.813,103.262 1286.413,101.262 						"/>
					</g>
					<g>
						<path fill="#F8F7F5" d="M1312.762,115.125l20.077,0.537l7.6-12.6v-30.2c0,0,2.6-1.2,4-1.4c1.4-0.2,5.4-12.2,5.4-12.2
							s-10.2,6.6-12.6,1.4c-2.4-5.2-6.4-23.8-25-23.4L1312.762,115.125z M1329.839,67.133l-14.471-1.034l0.271-20.038
							c6-0.8,10.2,6.4,11.8,13.6c0.735,3.308,1.637,5.424,2.4,6.756V67.133z M1329.839,89.662h-14.789l0.264-19.557l14.525,1.306
							V89.662z M1314.839,105.262l0.168-12.4h14.832v12.4H1314.839z"/>
						<g>
							<path fill="#B1B0AA" d="M1311.614,115.34l0.175-78.087l0.008-0.432l0.432-0.009c0.199-0.005,0.401-0.006,0.596-0.006
								c15.934,0,21.205,14.134,23.739,20.927c0.411,1.1,0.765,2.051,1.084,2.74c0.538,1.167,1.549,1.736,3.088,1.736
								c3.674,0,8.808-3.292,8.858-3.325l1.077-0.697l-0.406,1.216c-1.527,4.581-4.305,12.295-5.763,12.504
								c-1.068,0.152-2.93,0.945-3.614,1.247v30.033l-7.801,12.934L1311.614,115.34z M1339.988,72.574l0.261-0.121
								c0.109-0.049,2.677-1.229,4.095-1.429c0.745-0.346,2.917-5.637,4.676-10.746c-1.761,1.004-5.365,2.83-8.284,2.83
								c-1.9,0-3.214-0.761-3.906-2.258c-0.332-0.72-0.691-1.685-1.109-2.803c-2.652-7.109-7.588-20.341-22.896-20.341
								c-0.048,0-0.096,0-0.145,0l-0.417,76.758l20.327,0.738l7.398-12.266V72.574z M1314.562,92.411h15.727v13.301h-15.906
								L1314.562,92.411z M1329.389,93.311h-13.938l-0.156,11.501h14.094V93.311z M1314.87,69.612l15.418,1.386v19.113h-15.695
								L1314.87,69.612z M1329.389,71.821l-13.632-1.225l-0.251,18.615h13.883V71.821z M1314.913,66.517l0.282-20.851l0.384-0.052
								c6.595-0.861,10.787,7.146,12.299,13.95c0.608,2.737,1.399,4.968,2.351,6.629l0.06,0.104v1.317L1314.913,66.517z
								 M1326.999,59.759c-1.402-6.311-5.125-13.706-10.916-13.291l-0.259,19.213l13.564,0.969v-0.114
								C1328.419,64.809,1327.615,62.53,1326.999,59.759z"/>
						</g>
						<g>
							<path fill="#B1B0AA" d="M1339.587,72.557c2.944,0,5.371-0.705,5.425-0.722l-0.344-1.15
								c-0.454,0.138-11.177,3.237-13.809-4.579c-0.328-0.975-0.647-2.007-0.975-3.069c-2.549-8.235-5.722-18.475-17.699-17.374
								l0.11,1.195c11.019-1.02,13.896,8.307,16.441,16.533c0.332,1.071,0.654,2.114,0.985,3.097
								C1331.388,71.45,1335.895,72.557,1339.587,72.557z"/>
						</g>
						<g>
							<path fill="#B1B0AA" d="M1339.931,67.944c3.738,0,7.955-2.415,8.209-2.563l-0.602-1.038
								c-0.082,0.048-8.177,4.684-11.021,0.956c-0.675-0.887-1.488-2.68-2.429-4.755c-3.382-7.463-9.014-19.888-21.027-19.888
								c-0.152,0-0.306,0.002-0.459,0.006l0.03,1.2c11.525-0.243,17.061,11.893,20.364,19.177c1.01,2.231,1.809,3.993,2.568,4.988
								C1336.646,67.449,1338.24,67.944,1339.931,67.944z"/>
						</g>
						<polygon fill="#B1B0AA" points="1337.639,75.062 1332.239,72.557 1332.239,103.262 1337.639,101.262 						"/>
					</g>
				</g>
				<path fill="#B1B0AA" d="M1304.211,46.357c0,0,7.633-3.441,14.853-0.346"/>
				<g>
					<polygon fill="#F8F7F5" points="1316.119,40.662 1314.019,40.662 1314.019,36.262 1309.719,36.262 1309.719,40.662 
						1307.619,40.662 1307.619,43.662 1309.719,43.662 1309.719,47.762 1314.019,47.762 1314.019,43.662 1316.119,43.662 					"/>
					<g>
						<path fill="#B1B0AA" d="M1314.319,48.062h-4.901v-4.099h-2.1v-3.6h2.1v-4.4h4.901v4.4h2.1v3.6h-2.1V48.062z M1310.019,47.462
							h3.701v-4.099h2.1v-2.4h-2.1v-4.4h-3.701v4.4h-2.1v2.4h2.1V47.462z"/>
					</g>
				</g>
				<g>
					
						<rect x="1303.3" y="32.752" transform="matrix(0.1861 0.9825 -0.9825 0.1861 1096.4673 -1257.575)" fill="#B1B0AA" width="8.04" height="0.601"/>
				</g>
				<g>
					
						<rect x="1315.566" y="28.654" transform="matrix(0.9912 0.1327 -0.1327 0.9912 15.9944 -174.2918)" fill="#B1B0AA" width="0.601" height="8.441"/>
				</g>
			</g>
		</g>
		<g>
			<polygon fill="#F8F7F5" points="1293.905,119.049 1287.739,107.772 1336.339,107.772 1330.681,117.969 			"/>
			<g>
				<path fill="#B4ACA2" d="M1331.316,119.049h-38.545l-6.314-11.278h51.138L1331.316,119.049z M1293.405,117.969h37.277
					l5.076-9.118h-47.459L1293.405,117.969z"/>
			</g>
		</g>
	</g>
	<g>
		<rect x="1274.213" y="10.922" fill="#9D948E" width="84.513" height="1.2"/>
	</g>
	<g>
		<polygon fill="#9D948E" points="1285.258,50.923 1255.858,50.923 1262.016,34.685 1263.139,35.111 1257.597,49.723 
			1284.194,49.723 1285.787,36.514 1271.581,35.45 1272.844,24.122 1293.187,24.122 1294.859,11.444 1296.05,11.601 
			1294.239,25.322 1273.918,25.322 1272.912,34.346 1287.127,35.41 		"/>
	</g>
	<g>
		<polygon fill="#9D948E" points="1321.415,25.252 1293.684,23.922 1293.743,22.724 1320.215,23.993 1320.215,12.122 
			1321.415,12.122 		"/>
	</g>
	<g>
		<polygon fill="#9D948E" points="1367.688,50.344 1333.296,49.409 1331.555,35.642 1350.001,36.186 1348.887,25.852 
			1325.427,25.852 1325.427,12.122 1326.627,12.122 1326.627,24.652 1349.966,24.652 1351.341,37.426 1332.922,36.882 
			1334.357,48.237 1366.164,49.102 1362.441,33.19 1363.611,32.916 		"/>
	</g>
	<g>
		<path fill="#9D948E" d="M1277.526,88.51h-39.939l10.342-22.355l14.536-1.277l2.269-14.051c0.052-0.327,0.355-0.557,0.688-0.496
			c0.327,0.053,0.55,0.36,0.496,0.688l-2.417,14.972l-14.775,1.298l-9.261,20.02h38.061c0.332,0,0.6,0.268,0.6,0.6
			S1277.858,88.51,1277.526,88.51z"/>
	</g>
	<g>
		<path fill="#9D948E" d="M1381.726,89.11h-34.059l-1.867-7.768l31.38-0.8l-3.764-16.614l-19.902,0.202l-0.47-14.147
			c-0.01-0.332,0.249-0.608,0.58-0.62c0.007,0,0.014,0,0.02,0c0.322,0,0.589,0.255,0.6,0.58l0.43,12.975l19.698-0.199l4.301,18.986
			l-31.359,0.8l1.3,5.406h33.112c0.332,0,0.6,0.268,0.6,0.6C1382.326,88.842,1382.057,89.11,1381.726,89.11z"/>
	</g>
</g>
<g>
	<polygon opacity="0.2" fill="#576486" enable-background="new    " points="1091.924,518.684 1091.924,517.384 1089.39,517.384 
		1089.39,504.822 1089.787,504.822 1089.787,503.522 1089.39,503.522 1089.39,491.175 1090.04,491.175 1090.04,489.876 
		1089.39,489.876 1089.39,480.134 1089.412,479.479 1089.39,479.478 1089.39,465.238 1089.401,465.238 1089.401,463.938 
		1089.39,463.938 1089.39,443.919 1089.401,443.26 1089.39,443.26 1089.39,429.844 1089.39,429.844 1089.39,428.545 
		1089.39,428.545 1089.39,419.914 1089.39,414.479 1090.04,414.479 1090.04,395.872 1089.385,395.872 1084.802,121.817 
		1081.232,121.817 1074.09,121.817 1052.388,49.427 1052.388,49.427 978.7,25.321 978.055,9.359 978.055,15.424 940.638,116.034 
		933.337,116.034 934.677,124.75 936.55,124.75 936.55,395.872 935.9,395.872 935.9,414.479 936.268,414.479 936.55,419.913 
		936.55,442.888 936.045,442.888 936.045,444.188 936.55,444.188 936.55,474.288 936.067,474.272 936.023,475.571 936.55,475.589 
		936.55,489.876 935.9,489.876 935.9,491.175 936.55,491.175 936.55,503.522 935.647,503.522 935.647,504.822 936.55,504.822 
		936.55,533.387 935.906,533.387 935.906,534.686 936.55,534.686 936.55,553.845 936.55,553.845 959.351,553.845 959.351,554.217 
		959.351,554.217 984.497,554.217 984.497,554.217 991.841,554.217 991.841,554.217 991.841,553.845 1029.508,553.845 
		1029.508,553.845 1054.654,553.845 1054.654,553.845 1061.998,553.845 1061.998,553.845 1089.39,553.845 1089.39,534.686 
		1090.045,534.686 1090.045,533.387 1089.39,533.387 1089.39,518.684 	"/>
	<g>
		<polygon fill="#724935" points="934.479,126.041 973.467,21.207 973.467,14.709 1041.48,12.11 1041.48,17.741 1077.869,123.442 		
			"/>
	</g>
	<g>
		<polygon fill="#8E6954" points="931.962,559.629 931.962,130.533 1078.384,130.533 1084.802,559.629 		"/>
		<polygon fill="#ECE1C8" points="1084.802,559.629 931.962,559.629 931.962,407.504 1084.802,402.305 		"/>
		<polygon fill="#BCB59E" points="931.457,415.951 931.962,425.698 1084.802,425.698 1084.802,410.959 		"/>
		<rect x="931.962" y="402.305" fill="#ECE1C8" width="152.84" height="17.307"/>
		<g>
			<g>
				<polygon fill="#BEB4A1" points="956.127,458.859 948.064,449.971 931.457,449.971 931.457,448.672 948.64,448.672 
					957.089,457.986 				"/>
			</g>
			<g>
				<rect x="970.358" y="420.262" fill="#BEB4A1" width="1.3" height="29.431"/>
			</g>
			<g>
				<polygon fill="#BEB4A1" points="964.783,451.081 954.417,435.628 931.962,435.628 931.962,434.328 955.109,434.328 
					965.862,450.357 				"/>
			</g>
			<g>
				<g>
					<polygon fill="#BEB4A1" points="986.103,458.859 985.14,457.986 993.589,448.672 1010.772,448.672 1010.772,449.971 
						994.165,449.971 					"/>
				</g>
				<g>
					<polygon fill="#BEB4A1" points="977.446,451.081 976.367,450.357 987.119,434.328 1010.267,434.328 1010.267,435.628 
						987.812,435.628 					"/>
				</g>
			</g>
		</g>
		<g>
			<g>
				<polygon fill="#BEB4A1" points="1026.177,458.859 1018.114,449.971 1001.507,449.971 1001.507,448.672 1018.69,448.672 
					1027.139,457.986 				"/>
			</g>
			<g>
				<rect x="1040.409" y="420.262" fill="#BEB4A1" width="1.3" height="29.431"/>
			</g>
			<g>
				<polygon fill="#BEB4A1" points="1034.834,451.081 1024.467,435.628 1002.012,435.628 1002.012,434.328 1025.16,434.328 
					1035.912,450.357 				"/>
			</g>
			<g>
				<g>
					<polygon fill="#BEB4A1" points="1056.153,458.859 1055.191,457.986 1063.644,448.667 1084.814,449.044 1084.791,450.343 
						1064.21,449.977 					"/>
				</g>
				<g>
					<polygon fill="#BEB4A1" points="1047.497,451.081 1046.418,450.357 1057.17,434.328 1084.802,434.328 1084.802,435.628 
						1057.863,435.628 					"/>
				</g>
			</g>
		</g>
		<g>
			<rect x="931.962" y="469.722" fill="#BEB4A1" width="152.851" height="1.3"/>
		</g>
		<g>
			
				<rect x="931.465" y="482.647" transform="matrix(0.9994 0.0339 -0.0339 0.9994 16.9637 -33.9002)" fill="#BEB4A1" width="153.418" height="1.3"/>
		</g>
		<g>
			<rect x="931.312" y="495.659" fill="#BEB4A1" width="154.14" height="1.3"/>
		</g>
		<g>
			<rect x="931.06" y="509.305" fill="#BEB4A1" width="154.14" height="1.3"/>
		</g>
		<g>
			<rect x="933.197" y="523.168" fill="#BEB4A1" width="154.14" height="1.3"/>
		</g>
		<g>
			<rect x="931.318" y="539.17" fill="#BEB4A1" width="154.14" height="1.3"/>
		</g>
		<g>
			<g>
				<path fill="#807B6E" d="M1057.41,559.629v-94.062c0-8.972-7.273-16.245-16.245-16.245s-16.245,7.273-16.245,16.245v94.062
					H1057.41z"/>
				<path opacity="0.4" fill="#5C554B" enable-background="new    " d="M1041.165,449.322c-0.626,0-1.241,0.044-1.849,0.113
					c7.554,8.505,17.258,33.993,10.75,110.194h7.344v-94.062C1057.41,456.595,1050.137,449.322,1041.165,449.322z"/>
			</g>
			<g>
				<path fill="#3D3829" d="M1054.832,470.372h-26.684l0.022-0.67c0.005-0.164,0.66-16.388,13.141-16.388l0.187,0.001
					c12.643,0.164,13.307,16.225,13.312,16.387L1054.832,470.372z M1029.509,469.072h23.96c-0.246-2.948-1.85-14.327-11.988-14.458
					l-0.171-0.001C1031.324,454.613,1029.749,466.107,1029.509,469.072z"/>
			</g>
			<g>
				<path fill="#3D3829" d="M1054.486,489.541h-26.317v-8.934v-7.437h26.317V489.541z M1029.469,488.241h23.718v-13.773h-23.718
					V488.241z"/>
			</g>
			<g>
				<rect x="1029.469" y="480.705" fill="#3D3829" width="25.017" height="1.3"/>
			</g>
			<rect x="1028.819" y="491.851" fill="none" stroke="#3D3829" stroke-miterlimit="10" width="6.66" height="43.176"/>
			<rect x="1028.819" y="538.799" fill="none" stroke="#3D3829" stroke-miterlimit="10" width="6.66" height="16.859"/>
			<g>
				<rect x="1046.526" y="491.851" fill="none" stroke="#3D3829" stroke-miterlimit="10" width="6.66" height="43.176"/>
				<rect x="1046.526" y="538.799" fill="none" stroke="#3D3829" stroke-miterlimit="10" width="6.66" height="16.859"/>
			</g>
		</g>
		<path fill="none" stroke="#3D3829" stroke-miterlimit="10" d="M1041.165,449.322c-0.626,0-1.241,0.044-1.849,0.113l0,0l0,0
			c-8.1,0.919-14.396,7.787-14.396,16.132v94.062h25.146h7.344v-94.062C1057.41,456.595,1050.137,449.322,1041.165,449.322z"/>
		<g>
			<g>
				<path fill="#807B6E" d="M987.253,560v-94.062c0-8.972-7.273-16.245-16.245-16.245s-16.245,7.273-16.245,16.245V560H987.253z"/>
				<path opacity="0.4" fill="#5C554B" enable-background="new    " d="M971.008,449.693c-0.626,0-1.241,0.044-1.849,0.113
					c7.554,8.505,17.258,33.993,10.75,110.194h7.344v-94.062C987.253,456.967,979.98,449.693,971.008,449.693z"/>
			</g>
			<g>
				<path fill="#3D3829" d="M984.676,470.743h-26.684l0.022-0.67c0.005-0.164,0.66-16.388,13.141-16.388l0.187,0.001
					c12.643,0.164,13.307,16.225,13.312,16.387L984.676,470.743z M959.352,469.443h23.96c-0.246-2.948-1.85-14.327-11.988-14.458
					l-0.171-0.001C961.167,454.984,959.592,466.479,959.352,469.443z"/>
			</g>
			<g>
				<path fill="#3D3829" d="M984.329,489.912h-26.317v-8.934v-7.437h26.317V489.912z M959.312,488.613h23.718V474.84h-23.718
					V488.613z"/>
			</g>
			<g>
				<rect x="959.312" y="481.076" fill="#3D3829" width="25.017" height="1.3"/>
			</g>
			<rect x="958.662" y="492.222" fill="none" stroke="#3D3829" stroke-miterlimit="10" width="6.66" height="43.176"/>
			<rect x="958.662" y="539.17" fill="none" stroke="#3D3829" stroke-miterlimit="10" width="6.66" height="16.859"/>
			<g>
				<rect x="976.369" y="492.222" fill="none" stroke="#3D3829" stroke-miterlimit="10" width="6.66" height="43.176"/>
				<rect x="976.369" y="539.17" fill="none" stroke="#3D3829" stroke-miterlimit="10" width="6.66" height="16.859"/>
			</g>
		</g>
		<path fill="none" stroke="#3D3829" stroke-miterlimit="10" d="M971.008,449.693c-0.626,0-1.241,0.044-1.849,0.113l0,0l0,0
			c-8.1,0.919-14.396,7.787-14.396,16.132V560h25.146h7.344v-94.062C987.253,456.967,979.98,449.693,971.008,449.693z"/>
		<g>
			<path fill="#724C39" d="M1029.468,362.667c-2.645,0-24.509-7.64-25.181-15.029c-0.343-3.772,4.419-6.509,14.558-8.37
				c7.656-1.404,7.833-2.692,7.828-2.834c-0.122-3.438-31.326-8.944-61.423-12.28l0.044-1.296l104.094-4.483l-132.095-16.932
				l0.459-23.36l0.737,0.117l137.923,21.921l0.78-11.253l-139.888-35.931V231.62l0.737,0.1l138.32,18.651v-17.429l-137.758-16.038
				v-16.383l137.758,7.459v-13.52L938.678,179.8l-1.477-10.826l139.159,9.538v-13.453l-138.48-15.65l0.073-1.296H1076.5l1.34-5.523
				l-139.473-4.32c-0.359-0.011-0.64-0.311-0.629-0.67s0.298-0.65,0.669-0.63l141.073,4.371l-1.959,8.072H949.491l128.171,14.486
				v16.004l-0.694-0.047l-138.261-9.475l1.123,8.234l137.832,14.678v16.058l-137.758-7.459v13.855l137.758,16.038v20.074l-0.737-0.1
				l-138.32-18.651v18.823l139.959,35.948l-0.953,13.749l-0.701-0.11l-137.886-21.914l-0.407,20.702l138.478,17.749l-0.055,1.295
				l-103.574,4.46c18,2.21,54.319,7.318,54.506,12.581c0.062,1.76-2.597,3.004-8.892,4.159c-9.094,1.668-13.761,4.079-13.499,6.973
				c0.579,6.363,21.979,13.848,23.887,13.848c0.359,0,0.65,0.291,0.65,0.65S1029.828,362.667,1029.468,362.667z"/>
		</g>
		<polygon fill="#ECE1C8" points="938.605,404.904 931.962,402.305 931.962,130.533 938.605,130.533 		"/>
		<polygon fill="#ECE1C8" points="1084.802,402.305 1077.662,402.548 1077.662,130.533 1082.861,130.533 		"/>
		<g>
			<polygon fill="#CF8B6F" points="1078.312,402.955 937.955,402.955 937.955,130.534 939.255,130.534 939.255,401.655 
				1077.012,401.655 1077.012,130.534 1078.312,130.534 			"/>
		</g>
		<g>
			<path fill="#BEB4A1" d="M1085.452,420.262h-154.14v-18.607h154.14V420.262z M932.612,418.963h151.54v-16.008h-151.54V418.963
				L932.612,418.963z"/>
		</g>
	</g>
	<polygon fill="#ECE1C8" points="928.75,121.817 1084.802,121.817 1082.861,130.533 930.089,130.534 	"/>
	<polygon opacity="0.3" fill="#997861" enable-background="new    " points="931.962,126.041 1081.232,126.474 1081.232,129.29 
		934.479,129.29 	"/>
	<g>
		<g>
			<path fill="#896B78" d="M1062.827,156.028h-13.912l0.48-4.147h-12.442l0.612,4.147h-13.814v3.525h0.722l2.457,4.992v73.229v5.438
				h2.523v5.068h6.221v-5.068h15.056v4.653h6.233v-4.653h2.315v-5.438v-72.761h0.323l2.184-5.46h1.042v-3.525H1062.827z
				 M1050.731,225.886h0.669v11.336h-0.669V225.886z M1050.731,224.78v-13.271h0.669v13.271H1050.731z M1050.731,210.403v-12.901
				h0.669v12.901H1050.731z M1050.731,196.396v-13.271h0.669v13.271H1050.731z M1051.4,182.019h-0.669v-11.982h0.669V182.019z"/>
			<g>
				<rect x="1048.658" y="240.724" fill="#FDECE2" stroke="#AFAAA9" stroke-miterlimit="10" width="6.233" height="5.806"/>
				<rect x="1027.381" y="240.724" fill="#FDECE2" stroke="#AFAAA9" stroke-miterlimit="10" width="6.221" height="6.221"/>
				<g>
					<rect x="1031.148" y="166.121" fill="#807068" width="17.51" height="73.037"/>
					<polygon opacity="0.3" fill="#5D5248" enable-background="new    " points="1031.148,166.121 1031.148,173.474 
						1044.787,174.231 1045.651,239.157 1048.658,239.157 1048.658,166.121 					"/>
					<g>
						<g>
							<polygon fill="#FDECE2" stroke="#AFAAA9" stroke-miterlimit="10" points="1024.858,160.683 1024.858,236.439 
								1032.738,236.439 1032.738,168.148 1049.327,168.148 1049.327,236.439 1057.206,236.439 1057.206,160.683 							"/>
							<line fill="none" stroke="#AFAAA9" stroke-miterlimit="10" x1="1028.591" y1="236.439" x2="1028.591" y2="160.683"/>
							<line fill="none" stroke="#AFAAA9" stroke-miterlimit="10" x1="1052.368" y1="236.439" x2="1052.368" y2="160.683"/>
						</g>
						<polygon fill="#FDECE2" stroke="#AFAAA9" stroke-miterlimit="10" points="1022.14,157.689 1025.088,163.678 1057.529,163.678 
							1059.924,157.689 						"/>
						<rect x="1021.679" y="154.692" fill="#FDECE2" stroke="#AFAAA9" stroke-miterlimit="10" width="39.075" height="3.525"/>
						<polygon fill="#FDECE2" stroke="#AFAAA9" stroke-miterlimit="10" points="1036.816,163.678 1045.801,163.678 
							1047.322,150.545 1034.88,150.545 						"/>
					</g>
					<rect x="1024.858" y="236.439" fill="#FDECE2" stroke="#AFAAA9" stroke-miterlimit="10" width="32.348" height="5.438"/>
					<path fill="#493931" d="M1050.87,223.444h-0.185v-27.278v-1.106v-27.465h-18.5v69.396h18.5V224.55h0.185V223.444z
						 M1033.291,196.164h7.591v12.901h-7.591V196.164z M1033.291,195.058v-13.271h7.591v13.271H1033.291z M1033.291,210.173h7.591
						v13.271h-7.591V210.173z M1041.988,210.173h7.591v13.271h-7.591V210.173z M1049.579,209.067h-7.591v-12.901h7.591V209.067z
						 M1041.988,195.058v-13.271h7.591v13.271H1041.988z M1049.579,180.682h-7.591V168.7h7.591V180.682z M1040.882,168.701v11.982
						h-7.591v-11.982H1040.882z M1033.291,224.55h7.591v11.336h-7.591V224.55z M1049.579,235.886h-7.591V224.55h7.591V235.886z"/>
				</g>
			</g>
		</g>
		<g>
			<path fill="#896B78" d="M996.023,156.028h-13.912l0.48-4.147h-12.442l0.612,4.147h-13.814v3.525h0.722l2.457,4.992v73.229v5.438
				h2.523v5.068h6.221v-5.068h15.056v4.653h6.233v-4.653h2.315v-5.438v-72.761h0.323l2.184-5.46h1.042v-3.525H996.023z
				 M983.927,225.886h0.669v11.336h-0.669V225.886z M983.927,224.78v-13.271h0.669v13.271H983.927z M983.927,210.403v-12.901h0.669
				v12.901H983.927z M983.927,196.396v-13.271h0.669v13.271H983.927z M984.596,182.019h-0.669v-11.982h0.669V182.019z"/>
			<g>
				<rect x="981.855" y="240.724" fill="#FDECE2" stroke="#AFAAA9" stroke-miterlimit="10" width="6.233" height="5.806"/>
				<rect x="960.576" y="240.724" fill="#FDECE2" stroke="#AFAAA9" stroke-miterlimit="10" width="6.221" height="6.221"/>
				<g>
					<rect x="964.343" y="166.121" fill="#807068" width="17.51" height="73.037"/>
					<polygon opacity="0.3" fill="#5D5248" enable-background="new    " points="964.343,166.121 964.343,173.474 977.984,174.231 
						978.846,239.157 981.855,239.157 981.855,166.121 					"/>
					<g>
						<g>
							<polygon fill="#FDECE2" stroke="#AFAAA9" stroke-miterlimit="10" points="958.053,160.683 958.053,236.439 965.933,236.439 
								965.933,168.148 982.522,168.148 982.522,236.439 990.402,236.439 990.402,160.683 							"/>
							<line fill="none" stroke="#AFAAA9" stroke-miterlimit="10" x1="961.786" y1="236.439" x2="961.786" y2="160.683"/>
							<line fill="none" stroke="#AFAAA9" stroke-miterlimit="10" x1="985.563" y1="236.439" x2="985.563" y2="160.683"/>
						</g>
						<polygon fill="#FDECE2" stroke="#AFAAA9" stroke-miterlimit="10" points="955.335,157.689 958.285,163.678 990.725,163.678 
							993.122,157.689 						"/>
						<rect x="954.874" y="154.692" fill="#FDECE2" stroke="#AFAAA9" stroke-miterlimit="10" width="39.075" height="3.525"/>
						<polygon fill="#FDECE2" stroke="#AFAAA9" stroke-miterlimit="10" points="970.011,163.678 978.997,163.678 980.518,150.545 
							968.076,150.545 						"/>
					</g>
					<rect x="958.053" y="236.439" fill="#FDECE2" stroke="#AFAAA9" stroke-miterlimit="10" width="32.348" height="5.438"/>
					<path fill="#493931" d="M984.065,223.444h-0.185v-27.278v-1.106v-27.465h-18.5v69.396h18.5V224.55h0.185V223.444z
						 M966.486,196.164h7.591v12.901h-7.591V196.164z M966.486,195.058v-13.271h7.591v13.271H966.486z M966.486,210.173h7.591
						v13.271h-7.591V210.173z M975.185,210.173h7.591v13.271h-7.591V210.173z M982.776,209.067h-7.591v-12.901h7.591V209.067z
						 M975.185,195.058v-13.271h7.591v13.271H975.185z M982.776,180.682h-7.591V168.7h7.591V180.682z M974.079,168.701v11.982
						h-7.591v-11.982H974.079z M966.486,224.55h7.591v11.336h-7.591V224.55z M982.776,235.886h-7.591V224.55h7.591V235.886z"/>
				</g>
			</g>
		</g>
	</g>
	<g>
		<g>
			<path fill="#896B78" d="M1062.827,275.159h-13.912l0.48-4.147h-12.442l0.612,4.147h-13.814v3.525h0.722l2.457,4.992v73.229v5.438
				h2.523v5.068h6.221v-5.068h15.056v4.654h6.233v-4.654h2.315v-5.438v-72.761h0.323l2.184-5.461h1.042v-3.525H1062.827z
				 M1050.731,345.017h0.669v11.336h-0.669V345.017z M1050.731,343.911V330.64h0.669v13.271H1050.731z M1050.731,329.534v-12.901
				h0.669v12.901H1050.731z M1050.731,315.527v-13.271h0.669v13.271H1050.731z M1051.4,301.15h-0.669v-11.982h0.669V301.15z"/>
			<g>
				<rect x="1048.658" y="359.855" fill="#FDECE2" stroke="#AFAAA9" stroke-miterlimit="10" width="6.233" height="5.806"/>
				<rect x="1027.381" y="359.855" fill="#FDECE2" stroke="#AFAAA9" stroke-miterlimit="10" width="6.221" height="6.221"/>
				<g>
					<rect x="1031.148" y="285.252" fill="#807068" width="17.51" height="73.037"/>
					<polygon opacity="0.3" fill="#5D5248" enable-background="new    " points="1031.148,285.252 1031.148,292.605 
						1044.787,293.362 1045.651,358.288 1048.658,358.288 1048.658,285.252 					"/>
					<g>
						<g>
							<polygon fill="#FDECE2" stroke="#AFAAA9" stroke-miterlimit="10" points="1024.858,279.814 1024.858,355.57 1032.738,355.57 
								1032.738,287.279 1049.327,287.279 1049.327,355.57 1057.206,355.57 1057.206,279.814 							"/>
							<line fill="none" stroke="#AFAAA9" stroke-miterlimit="10" x1="1028.591" y1="355.57" x2="1028.591" y2="279.814"/>
							<line fill="none" stroke="#AFAAA9" stroke-miterlimit="10" x1="1052.368" y1="355.57" x2="1052.368" y2="279.814"/>
						</g>
						<polygon fill="#FDECE2" stroke="#AFAAA9" stroke-miterlimit="10" points="1022.14,276.82 1025.088,282.809 1057.529,282.809 
							1059.924,276.82 						"/>
						<rect x="1021.679" y="273.823" fill="#FDECE2" stroke="#AFAAA9" stroke-miterlimit="10" width="39.075" height="3.525"/>
						<polygon fill="#FDECE2" stroke="#AFAAA9" stroke-miterlimit="10" points="1036.816,282.809 1045.801,282.809 
							1047.322,269.676 1034.88,269.676 						"/>
					</g>
					<rect x="1024.858" y="355.57" fill="#FDECE2" stroke="#AFAAA9" stroke-miterlimit="10" width="32.348" height="5.438"/>
					<path fill="#493931" d="M1050.87,342.575h-0.185v-27.278v-1.106v-27.465h-18.5v69.396h18.5v-12.442h0.185V342.575z
						 M1033.291,315.295h7.591v12.901h-7.591V315.295z M1033.291,314.189v-13.271h7.591v13.271H1033.291z M1033.291,329.304h7.591
						v13.271h-7.591V329.304z M1041.988,329.304h7.591v13.271h-7.591V329.304z M1049.579,328.198h-7.591v-12.901h7.591V328.198z
						 M1041.988,314.189v-13.271h7.591v13.271H1041.988z M1049.579,299.812h-7.591v-11.982h7.591V299.812z M1040.882,287.832v11.982
						h-7.591v-11.982H1040.882z M1033.291,343.681h7.591v11.336h-7.591V343.681z M1049.579,355.017h-7.591v-11.336h7.591V355.017z"
						/>
				</g>
			</g>
		</g>
		<g>
			<path fill="#896B78" d="M996.023,275.159h-13.912l0.48-4.147h-12.442l0.612,4.147h-13.814v3.525h0.722l2.457,4.992v73.229v5.438
				h2.523v5.068h6.221v-5.068h15.056v4.654h6.233v-4.654h2.315v-5.438v-72.761h0.323l2.184-5.461h1.042v-3.525H996.023z
				 M983.927,345.017h0.669v11.336h-0.669V345.017z M983.927,343.911V330.64h0.669v13.271H983.927z M983.927,329.534v-12.901h0.669
				v12.901H983.927z M983.927,315.527v-13.271h0.669v13.271H983.927z M984.596,301.15h-0.669v-11.982h0.669V301.15z"/>
			<g>
				<rect x="981.855" y="359.855" fill="#FDECE2" stroke="#AFAAA9" stroke-miterlimit="10" width="6.233" height="5.806"/>
				<rect x="960.576" y="359.855" fill="#FDECE2" stroke="#AFAAA9" stroke-miterlimit="10" width="6.221" height="6.221"/>
				<g>
					<rect x="964.343" y="285.252" fill="#807068" width="17.51" height="73.037"/>
					<polygon opacity="0.3" fill="#5D5248" enable-background="new    " points="964.343,285.252 964.343,292.605 977.984,293.362 
						978.846,358.288 981.855,358.288 981.855,285.252 					"/>
					<g>
						<g>
							<polygon fill="#FDECE2" stroke="#AFAAA9" stroke-miterlimit="10" points="958.053,279.814 958.053,355.57 965.933,355.57 
								965.933,287.279 982.522,287.279 982.522,355.57 990.402,355.57 990.402,279.814 							"/>
							<line fill="none" stroke="#AFAAA9" stroke-miterlimit="10" x1="961.786" y1="355.57" x2="961.786" y2="279.814"/>
							<line fill="none" stroke="#AFAAA9" stroke-miterlimit="10" x1="985.563" y1="355.57" x2="985.563" y2="279.814"/>
						</g>
						<polygon fill="#FDECE2" stroke="#AFAAA9" stroke-miterlimit="10" points="955.335,276.82 958.285,282.809 990.725,282.809 
							993.122,276.82 						"/>
						<rect x="954.874" y="273.823" fill="#FDECE2" stroke="#AFAAA9" stroke-miterlimit="10" width="39.075" height="3.525"/>
						<polygon fill="#FDECE2" stroke="#AFAAA9" stroke-miterlimit="10" points="970.011,282.809 978.997,282.809 980.518,269.676 
							968.076,269.676 						"/>
					</g>
					<rect x="958.053" y="355.57" fill="#FDECE2" stroke="#AFAAA9" stroke-miterlimit="10" width="32.348" height="5.438"/>
					<path fill="#493931" d="M984.065,342.575h-0.185v-27.278v-1.106v-27.465h-18.5v69.396h18.5v-12.442h0.185V342.575z
						 M966.486,315.295h7.591v12.901h-7.591V315.295z M966.486,314.189v-13.271h7.591v13.271H966.486z M966.486,329.304h7.591
						v13.271h-7.591V329.304z M975.185,329.304h7.591v13.271h-7.591V329.304z M982.776,328.198h-7.591v-12.901h7.591V328.198z
						 M975.185,314.189v-13.271h7.591v13.271H975.185z M982.776,299.812h-7.591v-11.982h7.591V299.812z M974.079,287.832v11.982
						h-7.591v-11.982H974.079z M966.486,343.681h7.591v11.336h-7.591V343.681z M982.776,355.017h-7.591v-11.336h7.591V355.017z"/>
				</g>
			</g>
		</g>
	</g>
	<g>
		<defs>
			<polygon id="SVGID_1_" points="934.479,121.817 973.467,16.983 973.467,10.485 1041.48,7.886 1041.48,13.517 1077.869,119.218 
							"/>
		</defs>
		<clipPath id="SVGID_2_">
			<use xlink:href="#SVGID_1_"  overflow="visible"/>
		</clipPath>
		<g clip-path="url(#SVGID_2_)">
			<path fill="#8E6954" d="M1185.81,114.838l0.326-0.202l-4.247-6.855l21.737,0.18l0.006-0.768l-34.693-0.287l-2.884-7.964
				l10.108,0.14l0,0.001l0.003-0.001l23.443,0.324l0.01-0.768l-22.941-0.317l-4.01-9.665l24.402,0.326l0.01-0.768l-82.339-1.099
				l-0.02-0.059l-0.169,0.057L977.421,85.28l-0.03-0.108l-0.371,0.102l-86.635-1.157l-0.01,0.768l28.732,0.384l-0.317,9.482
				l-28.405-0.393l-0.01,0.768l28.768,0.398l0.39,0.013l0-0.008l13.688,0.189l2.099,9.251l-44.937-0.372l-0.006,0.768l45.117,0.374
				l0.02,0.088l0.376-0.085l13.515,0.112l1.108,8.983h-33.687l-1.292-9.148l-0.76,0.108l1.276,9.04h-25.67v0.768h60.227l0.006,0.047
				l0.381-0.047h63.417l0.013,0.071l0.377-0.071h26.915l0.03,0.105l0.37-0.105h31.488l0.041,0.122l0.364-0.122h54.283l0.087,0.173
				l0.343-0.173h77.548v-0.768H1185.81z M1168.121,106.898l-29.528-0.245l-1.671-8.116l13.355,0.185l0.135,0.212l0.324-0.206
				l14.91,0.206l-0.36,0.13L1168.121,106.898z M1024.647,96.984l9.175,0.127l0.022,0.094l0.374-0.089l16.278,0.225l2.214,8.601
				l-26.496-0.219l0.281-0.06L1024.647,96.984z M998.856,105.497l-31.466-0.261l-2.151-9.074l31.921,0.442l-0.373,0.088
				L998.856,105.497z M997.556,96.61l26.304,0.364l1.863,8.746l-26.076-0.216L997.556,96.61z M1051.293,97.353l33.036,0.457
				l2.778,8.417l-33.601-0.278L1051.293,97.353z M1085.142,97.821l4.683,0.065l0.032,0.111l0.369-0.106l19.425,0.269l-0.354,0.146
				l3.354,8.133l-24.733-0.205L1085.142,97.821z M1110.069,98.166l26.459,0.366l-0.375,0.077l1.655,8.038l-24.324-0.201
				L1110.069,98.166z M1172.251,88.65l-0.354,0.147l3.947,9.512l-25.141-0.348l-6.157-9.681L1172.251,88.65z M1144.086,88.274
				l-0.324,0.206l6.022,9.468l-31.537-0.436l-3.244-9.626L1144.086,88.274z M1114.189,87.874l3.243,9.626l-27.027-0.374
				l-2.753-9.606L1114.189,87.874z M1086.851,87.509l2.752,9.606l-4.716-0.065l-0.017-0.053l-0.153,0.05l-19.739-0.273l0.366-0.117
				l-3.035-9.476L1086.851,87.509z M1061.905,87.176l-0.367,0.117l3.035,9.475l-13.478-0.187l-0.026-0.101l-0.371,0.096
				l-16.266-0.225l-2.263-9.572L1061.905,87.176z M1031.378,86.769l2.263,9.572l-27.132-0.375l0.38-0.062l-1.546-9.416l-0.758,0.125
				l1.535,9.348l-26.259-0.363l0.37-0.102l-2.597-9.444L1031.378,86.769z M976.833,86.04l2.627,9.551L951.198,95.2l-2.398-9.534
				L976.833,86.04z M919.558,94.762l0.317-9.475l-0.371-0.012l28.898,0.386l-0.373,0.094l2.373,9.434L919.558,94.762z
				 M936.108,104.977l-2.098-9.247l16.587,0.229l0.025,0.099l0.372-0.094l13.851,0.192l-0.374,0.089l2.13,8.984L936.108,104.977z
				 M983.826,114.838l0.378-0.067l-1.536-8.558l-0.756,0.135l1.524,8.491h-32.15l-1.107-8.976l48.858,0.405l0.021,0.091l0.373-0.088
				l13.261,0.11l1.576,8.459H983.826z M1015.049,114.838l-1.575-8.452l26.085,0.216l-0.369,0.105l2.308,8.132H1015.049z
				 M1042.297,114.838l-2.337-8.233l31.104,0.258l-0.363,0.122l2.644,7.853H1042.297z M1074.155,114.838l-2.684-7.972l15.89,0.132
				l0.041,0.124l0.365-0.12l7.613,0.063l-0.367,0.116l2.409,7.658H1074.155z M1128.764,114.838l-3.788-7.513l-0.686,0.345
				l3.614,7.169h-29.678l-2.444-7.771l42.184,0.349l0.016,0.08l0.375-0.077l12.124,0.1l-0.319,0.213l4.748,7.105H1128.764z
				 M1155.834,114.838l-4.888-7.314l30.893,0.256l-0.617,0.383l4.135,6.675H1155.834z"/>
			<path fill="#8E6954" d="M1168.69,80.376l0.326-0.202l-4.247-6.855l21.737,0.18l0.006-0.768l-34.693-0.287l-2.884-7.964
				l10.108,0.14l0,0.001l0.003-0.001l23.443,0.324l0.01-0.768l-22.941-0.317l-4.01-9.665l24.402,0.326l0.01-0.768l-82.339-1.099
				l-0.02-0.059l-0.169,0.057l-137.132-1.831l-0.03-0.108l-0.371,0.102l-86.635-1.157l-0.01,0.768l28.732,0.384l-0.317,9.482
				l-28.405-0.393l-0.01,0.768l28.768,0.398l0.39,0.013l0-0.008l13.688,0.189l2.099,9.251l-44.937-0.372l-0.006,0.768l45.117,0.374
				l0.02,0.088l0.376-0.085l13.515,0.112l1.108,8.983h-33.687l-1.292-9.148l-0.76,0.108l1.276,9.04h-25.67v0.768h60.227l0.006,0.047
				l0.381-0.047h63.417l0.013,0.071l0.377-0.071h26.915l0.03,0.105l0.37-0.105h31.488l0.041,0.122l0.364-0.122h54.283l0.087,0.173
				l0.343-0.173h77.548v-0.768H1168.69z M1151.001,72.437l-29.528-0.245l-1.671-8.116l13.355,0.185l0.135,0.212l0.324-0.206
				l14.91,0.206l-0.36,0.13L1151.001,72.437z M1007.527,62.523l9.175,0.127l0.022,0.094l0.374-0.089l16.278,0.225l2.214,8.601
				l-26.496-0.219l0.281-0.06L1007.527,62.523z M981.736,71.035l-31.466-0.261l-2.151-9.074l31.921,0.442l-0.373,0.088
				L981.736,71.035z M980.436,62.148l26.304,0.364l1.863,8.746l-26.076-0.216L980.436,62.148z M1034.173,62.891l33.037,0.457
				l2.778,8.417l-33.601-0.278L1034.173,62.891z M1068.022,63.36l4.683,0.065l0.032,0.111l0.369-0.106l19.425,0.269l-0.354,0.146
				l3.354,8.133l-24.733-0.205L1068.022,63.36z M1092.949,63.705l26.459,0.366l-0.375,0.077l1.655,8.038l-24.324-0.201
				L1092.949,63.705z M1155.131,54.188l-0.354,0.147l3.947,9.512l-25.141-0.348l-6.157-9.681L1155.131,54.188z M1126.966,53.812
				l-0.324,0.206l6.022,9.468l-31.537-0.436l-3.244-9.626L1126.966,53.812z M1097.069,53.413l3.243,9.626l-27.027-0.374
				l-2.753-9.606L1097.069,53.413z M1069.731,53.048l2.752,9.606l-4.716-0.065l-0.017-0.053l-0.153,0.05l-19.738-0.273l0.366-0.117
				l-3.035-9.476L1069.731,53.048z M1044.785,52.715l-0.367,0.117l3.035,9.475l-13.478-0.187l-0.026-0.101l-0.371,0.096
				l-16.266-0.225l-2.263-9.572L1044.785,52.715z M1014.258,52.307l2.263,9.572l-27.132-0.375l0.38-0.062l-1.546-9.416l-0.758,0.125
				L989,61.498l-26.259-0.363l0.37-0.102l-2.597-9.444L1014.258,52.307z M959.713,51.579l2.627,9.551l-28.262-0.391l-2.398-9.534
				L959.713,51.579z M902.438,60.3l0.317-9.475l-0.371-0.012l28.898,0.386l-0.373,0.094l2.373,9.434L902.438,60.3z M918.988,70.515
				l-2.098-9.247l16.587,0.229l0.025,0.099l0.372-0.094l13.851,0.192l-0.374,0.089l2.13,8.984L918.988,70.515z M966.706,80.376
				l0.378-0.067l-1.536-8.558l-0.756,0.135l1.524,8.491h-32.15l-1.107-8.976l48.858,0.405l0.021,0.091l0.373-0.088l13.261,0.11
				l1.576,8.459H966.706z M997.929,80.376l-1.575-8.452l26.085,0.216l-0.369,0.105l2.308,8.132H997.929z M1025.178,80.376
				l-2.337-8.233l31.104,0.258l-0.363,0.122l2.644,7.853H1025.178z M1057.035,80.376l-2.684-7.972l15.89,0.132l0.041,0.124
				l0.365-0.12l7.613,0.063l-0.367,0.116l2.409,7.658H1057.035z M1111.644,80.376l-3.788-7.513l-0.686,0.345l3.614,7.169h-29.678
				l-2.444-7.771l42.184,0.349l0.017,0.08l0.375-0.077l12.124,0.1l-0.319,0.213l4.748,7.105H1111.644z M1138.714,80.376
				l-4.888-7.314l30.893,0.256l-0.617,0.383l4.135,6.675H1138.714z"/>
			<path fill="#8E6954" d="M1160.69,44.644l0.326-0.202l-4.247-6.855l21.737,0.18l0.006-0.768l-34.693-0.287l-2.884-7.964
				l10.108,0.14l0,0.001l0.003-0.001l23.443,0.324l0.01-0.768l-22.941-0.317l-4.01-9.665l24.402,0.326l0.01-0.768l-82.339-1.099
				l-0.02-0.059l-0.169,0.057l-137.132-1.831l-0.03-0.108l-0.371,0.102l-86.635-1.157l-0.01,0.768l28.732,0.384l-0.317,9.482
				l-28.405-0.393l-0.01,0.768l28.768,0.398l0.39,0.013l0-0.008l13.688,0.189l2.099,9.251l-44.937-0.372l-0.006,0.768l45.117,0.374
				l0.02,0.088l0.376-0.085l13.515,0.112l1.108,8.983h-33.687l-1.292-9.148l-0.76,0.108l1.276,9.041h-25.67v0.768h60.227
				l0.006,0.047l0.381-0.047h63.417l0.013,0.07l0.377-0.07h26.915l0.03,0.105l0.37-0.105h31.488l0.041,0.122l0.364-0.122h54.283
				l0.087,0.172l0.343-0.172h77.548v-0.768H1160.69z M1143.001,36.705l-29.528-0.245l-1.671-8.116l13.355,0.185l0.135,0.212
				l0.324-0.206l14.91,0.206l-0.36,0.13L1143.001,36.705z M999.527,26.791l9.175,0.127l0.022,0.094l0.374-0.089l16.278,0.225
				l2.214,8.601l-26.496-0.219l0.281-0.06L999.527,26.791z M973.736,35.303l-31.466-0.261l-2.151-9.074l31.921,0.442l-0.373,0.088
				L973.736,35.303z M972.436,26.416l26.304,0.364l1.863,8.746l-26.076-0.216L972.436,26.416z M1026.173,27.16l33.037,0.457
				l2.778,8.417l-33.601-0.278L1026.173,27.16z M1060.022,27.628l4.683,0.065l0.032,0.111l0.369-0.106l19.425,0.269l-0.354,0.146
				l3.354,8.133l-24.733-0.205L1060.022,27.628z M1084.949,27.973l26.459,0.366l-0.375,0.077l1.655,8.038l-24.324-0.201
				L1084.949,27.973z M1147.131,18.456l-0.354,0.147l3.947,9.512l-25.141-0.348l-6.157-9.681L1147.131,18.456z M1118.966,18.08
				l-0.324,0.206l6.022,9.468l-31.537-0.436l-3.244-9.626L1118.966,18.08z M1089.069,17.681l3.243,9.626l-27.027-0.374l-2.753-9.606
				L1089.069,17.681z M1061.731,17.316l2.752,9.606l-4.716-0.065l-0.017-0.053l-0.153,0.05l-19.738-0.273l0.366-0.117l-3.035-9.476
				L1061.731,17.316z M1036.785,16.983l-0.367,0.117l3.035,9.475l-13.478-0.187l-0.026-0.101l-0.371,0.096l-16.266-0.225
				l-2.263-9.572L1036.785,16.983z M1006.258,16.575l2.263,9.572l-27.132-0.375l0.38-0.062l-1.546-9.416l-0.758,0.125L981,25.766
				l-26.259-0.363l0.37-0.102l-2.597-9.444L1006.258,16.575z M951.713,15.847l2.627,9.551l-28.262-0.391l-2.398-9.534
				L951.713,15.847z M894.438,24.569l0.317-9.475l-0.371-0.012l28.898,0.386l-0.373,0.094l2.373,9.434L894.438,24.569z
				 M910.988,34.783l-2.098-9.247l16.587,0.229l0.025,0.099l0.372-0.094l13.851,0.192l-0.374,0.089l2.13,8.984L910.988,34.783z
				 M958.706,44.644l0.378-0.068l-1.536-8.558l-0.756,0.135l1.524,8.491h-32.15l-1.107-8.976l48.858,0.405l0.021,0.091l0.373-0.088
				l13.261,0.11l1.576,8.459H958.706z M989.929,44.644l-1.575-8.452l26.085,0.216l-0.369,0.105l2.308,8.132H989.929z
				 M1017.178,44.644l-2.337-8.233l31.104,0.258l-0.363,0.122l2.644,7.853H1017.178z M1049.035,44.644l-2.684-7.972l15.89,0.132
				l0.041,0.124l0.365-0.12l7.613,0.063l-0.367,0.116l2.409,7.658H1049.035z M1103.644,44.644l-3.788-7.514l-0.686,0.345
				l3.614,7.168h-29.678l-2.444-7.771l42.184,0.349l0.017,0.08l0.375-0.077l12.124,0.1l-0.319,0.213l4.748,7.105H1103.644z
				 M1130.714,44.644l-4.888-7.314l30.893,0.256l-0.617,0.383l4.135,6.675H1130.714z"/>
		</g>
	</g>
</g>
</svg>
